;TYPE=PLATED
;Layer: PTH_Through_Via
;EasyEDA Pro v1.9.26, 2022-12-23 16:49:17
;Gerber Generator version 0.3
M48
METRIC,LZ,000.000
;Hole size 1 = 0.381 METRIC
T01C0.381
%
G05
G90
T01
X005762Y-002841
X008001Y-016764
X003429Y-007747
X003429Y-003683
X009525Y-005334
X018796Y-008763
X011557Y-010541
X009652Y-011684
X007747Y-010922
X008636Y-010922
X013462Y-009779
X007112Y-007493
X009590Y-006690
X012700Y-003556
X010922Y-006350
X003175Y000000
X002286Y-004064
X010033Y-008255
X011303Y-017145
X002159Y-019939
X003302Y-018796
X004191Y-017145
X003302Y-019939
X011049Y-019939
X010414Y-016891
X016256Y-012954
X018796Y-012954
X018796Y-014986
X016256Y-014986
X021463Y-001778
X020193Y-003302
X021463Y-004445
X004953Y-003683
X004953Y-004191
X004064Y-013843
X013970Y-016510
X016129Y-018034
X018669Y-017907
X021463Y-019812
X021463Y000000
X021463Y-003048
X004191Y-011684
X005588Y-010795
X007517Y-016635
X007620Y-017145
X004826Y-016129
M30