G04 Layer: TopPasteMaskLayer*
G04 EasyEDA Pro v1.9.26, 2022-12-23 16:49:17*
G04 Gerber Generator version 0.3*
G04 Scale: 100 percent, Rotated: No, Reflected: No*
G04 Dimensions in millimeters*
G04 Leading zeros omitted, absolute positions, 3 integers and 3 decimals*
%FSLAX33Y33*%
%MOMM*%
%AMPolygonMacro1*4,1,4,-0.625,0.62,0.625,0.62,0.625,-0.62,-0.625,-0.62,-0.625,0.62,0*%
%AMPolygonMacro2*4,1,4,0.625,-0.62,-0.625,-0.62,-0.625,0.62,0.625,0.62,0.625,-0.62,0*%
%AMPolygonMacro3*4,1,4,-0.6,2.0,0.6,2.0,0.6,-2.0,-0.6,-2.0,-0.6,2.0,0*%
%ADD10C,0.0254*%
%ADD11R,0.799998X0.899998*%
%ADD12O,0.343002X1.731493*%
%ADD13R,0.899998X0.799998*%
%ADD14R,0.899998X0.799998*%
%ADD15R,1.299997X1.799996*%
%ADD16R,1.299997X1.799996*%
%ADD17R,1.15001X0.950011*%
%ADD18R,3.0023X1.449997*%
%ADD19R,2.999994X1.449997*%
%ADD20O,1.691996X0.364007*%
%ADD21PolygonMacro1*%
%ADD22PolygonMacro2*%
%ADD23PolygonMacro3*%
G75*


G04 PolygonModel Start*
G36*
G01X10362Y-9848D02*
G01X11162Y-9848D01*
G01X11212Y-9798D01*
G01Y-9570D01*
G01X10842D01*
G01Y-9240D01*
G01X11212D01*
G01Y-8998D01*
G01X11162Y-8948D01*
G01X10362D01*
G01X10312Y-8998D01*
G01Y-9798D01*
G01X10362Y-9848D01*
G37*
G54D10*
G01X10362Y-9848D02*
G01X11162Y-9848D01*
G01X11212Y-9798D01*
G01Y-9570D01*
G01X10842D01*
G01Y-9240D01*
G01X11212D01*
G01Y-8998D01*
G01X11162Y-8948D01*
G01X10362D01*
G01X10312Y-8998D01*
G01Y-9798D01*
G01X10362Y-9848D01*
G36*
G01X11912Y-9798D02*
G01X11912Y-9570D01*
G01X12292D01*
G01Y-9240D01*
G01X11912D01*
G01Y-8998D01*
G01X11962Y-8948D01*
G01X12752D01*
G01X12802Y-8998D01*
G01Y-9798D01*
G01X12752Y-9848D01*
G01X11962D01*
G01X11912Y-9798D01*
G37*
G01X11912Y-9798D02*
G01X11912Y-9570D01*
G01X12292D01*
G01Y-9240D01*
G01X11912D01*
G01Y-8998D01*
G01X11962Y-8948D01*
G01X12752D01*
G01X12802Y-8998D01*
G01Y-9798D01*
G01X12752Y-9848D01*
G01X11962D01*
G01X11912Y-9798D01*
G36*
G01X5773Y-4901D02*
G01X5773Y-5701D01*
G01X5823Y-5751D01*
G01X6051D01*
G01Y-5381D01*
G01X6381D01*
G01Y-5751D01*
G01X6623D01*
G01X6673Y-5701D01*
G01Y-4901D01*
G01X6623Y-4851D01*
G01X5823D01*
G01X5773Y-4901D01*
G37*
G01X5773Y-4901D02*
G01X5773Y-5701D01*
G01X5823Y-5751D01*
G01X6051D01*
G01Y-5381D01*
G01X6381D01*
G01Y-5751D01*
G01X6623D01*
G01X6673Y-5701D01*
G01Y-4901D01*
G01X6623Y-4851D01*
G01X5823D01*
G01X5773Y-4901D01*
G36*
G01X5823Y-6451D02*
G01X6051Y-6451D01*
G01Y-6831D01*
G01X6381D01*
G01Y-6451D01*
G01X6623D01*
G01X6673Y-6501D01*
G01Y-7291D01*
G01X6623Y-7341D01*
G01X5823D01*
G01X5773Y-7291D01*
G01Y-6501D01*
G01X5823Y-6451D01*
G37*
G01X5823Y-6451D02*
G01X6051Y-6451D01*
G01Y-6831D01*
G01X6381D01*
G01Y-6451D01*
G01X6623D01*
G01X6673Y-6501D01*
G01Y-7291D01*
G01X6623Y-7341D01*
G01X5823D01*
G01X5773Y-7291D01*
G01Y-6501D01*
G01X5823Y-6451D01*
G36*
G01X18854Y-5527D02*
G01X18854Y-6327D01*
G01X18904Y-6377D01*
G01X19132D01*
G01Y-6007D01*
G01X19462D01*
G01Y-6377D01*
G01X19704D01*
G01X19754Y-6327D01*
G01Y-5527D01*
G01X19704Y-5477D01*
G01X18904D01*
G01X18854Y-5527D01*
G37*
G01X18854Y-5527D02*
G01X18854Y-6327D01*
G01X18904Y-6377D01*
G01X19132D01*
G01Y-6007D01*
G01X19462D01*
G01Y-6377D01*
G01X19704D01*
G01X19754Y-6327D01*
G01Y-5527D01*
G01X19704Y-5477D01*
G01X18904D01*
G01X18854Y-5527D01*
G36*
G01X18904Y-7077D02*
G01X19132Y-7077D01*
G01Y-7457D01*
G01X19462D01*
G01Y-7077D01*
G01X19704D01*
G01X19754Y-7127D01*
G01Y-7917D01*
G01X19704Y-7967D01*
G01X18904D01*
G01X18854Y-7917D01*
G01Y-7127D01*
G01X18904Y-7077D01*
G37*
G01X18904Y-7077D02*
G01X19132Y-7077D01*
G01Y-7457D01*
G01X19462D01*
G01Y-7077D01*
G01X19704D01*
G01X19754Y-7127D01*
G01Y-7917D01*
G01X19704Y-7967D01*
G01X18904D01*
G01X18854Y-7917D01*
G01Y-7127D01*
G01X18904Y-7077D01*
G36*
G01X2990Y-3100D02*
G01X2990Y-2300D01*
G01X2940Y-2250D01*
G01X2712D01*
G01Y-2620D01*
G01X2382D01*
G01Y-2250D01*
G01X2140D01*
G01X2090Y-2300D01*
G01Y-3100D01*
G01X2140Y-3150D01*
G01X2940D01*
G01X2990Y-3100D01*
G37*
G01X2990Y-3100D02*
G01X2990Y-2300D01*
G01X2940Y-2250D01*
G01X2712D01*
G01Y-2620D01*
G01X2382D01*
G01Y-2250D01*
G01X2140D01*
G01X2090Y-2300D01*
G01Y-3100D01*
G01X2140Y-3150D01*
G01X2940D01*
G01X2990Y-3100D01*
G36*
G01X2940Y-1550D02*
G01X2712Y-1550D01*
G01Y-1170D01*
G01X2382D01*
G01Y-1550D01*
G01X2140D01*
G01X2090Y-1500D01*
G01Y-710D01*
G01X2140Y-660D01*
G01X2940D01*
G01X2990Y-710D01*
G01Y-1500D01*
G01X2940Y-1550D01*
G37*
G01X2940Y-1550D02*
G01X2712Y-1550D01*
G01Y-1170D01*
G01X2382D01*
G01Y-1550D01*
G01X2140D01*
G01X2090Y-1500D01*
G01Y-710D01*
G01X2140Y-660D01*
G01X2940D01*
G01X2990Y-710D01*
G01Y-1500D01*
G01X2940Y-1550D01*
G36*
G01X17524Y-3136D02*
G01X17894Y-3136D01*
G01X17994Y-3236D01*
G01Y-3541D01*
G01X18094Y-3641D01*
G01X18482D01*
G01X18582Y-3541D01*
G01Y-3236D01*
G01X18682Y-3136D01*
G01X19052D01*
G01X19152Y-3236D01*
G01Y-4521D01*
G01X19052Y-4621D01*
G01X17524D01*
G01X17424Y-4521D01*
G01Y-3236D01*
G01X17524Y-3136D01*
G37*
G01X17524Y-3136D02*
G01X17894Y-3136D01*
G01X17994Y-3236D01*
G01Y-3541D01*
G01X18094Y-3641D01*
G01X18482D01*
G01X18582Y-3541D01*
G01Y-3236D01*
G01X18682Y-3136D01*
G01X19052D01*
G01X19152Y-3236D01*
G01Y-4521D01*
G01X19052Y-4621D01*
G01X17524D01*
G01X17424Y-4521D01*
G01Y-3236D01*
G01X17524Y-3136D01*
G36*
G01X17524Y-1436D02*
G01X17894Y-1436D01*
G01X17994Y-1336D01*
G01Y-1031D01*
G01X18094Y-931D01*
G01X18482D01*
G01X18582Y-1031D01*
G01Y-1336D01*
G01X18682Y-1436D01*
G01X19052D01*
G01X19152Y-1336D01*
G01Y-51D01*
G01X19052Y49D01*
G01X17524D01*
G01X17424Y-51D01*
G01Y-1336D01*
G01X17524Y-1436D01*
G37*
G01X17524Y-1436D02*
G01X17894Y-1436D01*
G01X17994Y-1336D01*
G01Y-1031D01*
G01X18094Y-931D01*
G01X18482D01*
G01X18582Y-1031D01*
G01Y-1336D01*
G01X18682Y-1436D01*
G01X19052D01*
G01X19152Y-1336D01*
G01Y-51D01*
G01X19052Y49D01*
G01X17524D01*
G01X17424Y-51D01*
G01Y-1336D01*
G01X17524Y-1436D01*
G36*
G01X5422Y-17782D02*
G01X5422Y-17412D01*
G01X5522Y-17312D01*
G01X5827D01*
G01X5927Y-17212D01*
G01Y-16824D01*
G01X5827Y-16724D01*
G01X5522D01*
G01X5422Y-16624D01*
G01Y-16254D01*
G01X5522Y-16154D01*
G01X6807D01*
G01X6907Y-16254D01*
G01Y-17782D01*
G01X6807Y-17882D01*
G01X5522D01*
G01X5422Y-17782D01*
G37*
G01X5422Y-17782D02*
G01X5422Y-17412D01*
G01X5522Y-17312D01*
G01X5827D01*
G01X5927Y-17212D01*
G01Y-16824D01*
G01X5827Y-16724D01*
G01X5522D01*
G01X5422Y-16624D01*
G01Y-16254D01*
G01X5522Y-16154D01*
G01X6807D01*
G01X6907Y-16254D01*
G01Y-17782D01*
G01X6807Y-17882D01*
G01X5522D01*
G01X5422Y-17782D01*
G36*
G01X3722Y-17782D02*
G01X3722Y-17412D01*
G01X3622Y-17312D01*
G01X3317D01*
G01X3217Y-17212D01*
G01Y-16824D01*
G01X3317Y-16724D01*
G01X3622D01*
G01X3722Y-16624D01*
G01Y-16254D01*
G01X3622Y-16154D01*
G01X2337D01*
G01X2237Y-16254D01*
G01Y-17782D01*
G01X2337Y-17882D01*
G01X3622D01*
G01X3722Y-17782D01*
G37*
G01X3722Y-17782D02*
G01X3722Y-17412D01*
G01X3622Y-17312D01*
G01X3317D01*
G01X3217Y-17212D01*
G01Y-16824D01*
G01X3317Y-16724D01*
G01X3622D01*
G01X3722Y-16624D01*
G01Y-16254D01*
G01X3622Y-16154D01*
G01X2337D01*
G01X2237Y-16254D01*
G01Y-17782D01*
G01X2337Y-17882D01*
G01X3622D01*
G01X3722Y-17782D01*
G36*
G01X14928Y-7917D02*
G01X14928Y-7117D01*
G01X14878Y-7067D01*
G01X14650D01*
G01Y-7437D01*
G01X14320D01*
G01Y-7067D01*
G01X14078D01*
G01X14028Y-7117D01*
G01Y-7917D01*
G01X14078Y-7967D01*
G01X14878D01*
G01X14928Y-7917D01*
G37*
G01X14928Y-7917D02*
G01X14928Y-7117D01*
G01X14878Y-7067D01*
G01X14650D01*
G01Y-7437D01*
G01X14320D01*
G01Y-7067D01*
G01X14078D01*
G01X14028Y-7117D01*
G01Y-7917D01*
G01X14078Y-7967D01*
G01X14878D01*
G01X14928Y-7917D01*
G36*
G01X14878Y-6367D02*
G01X14650Y-6367D01*
G01Y-5987D01*
G01X14320D01*
G01Y-6367D01*
G01X14078D01*
G01X14028Y-6317D01*
G01Y-5527D01*
G01X14078Y-5477D01*
G01X14878D01*
G01X14928Y-5527D01*
G01Y-6317D01*
G01X14878Y-6367D01*
G37*
G01X14878Y-6367D02*
G01X14650Y-6367D01*
G01Y-5987D01*
G01X14320D01*
G01Y-6367D01*
G01X14078D01*
G01X14028Y-6317D01*
G01Y-5527D01*
G01X14078Y-5477D01*
G01X14878D01*
G01X14928Y-5527D01*
G01Y-6317D01*
G01X14878Y-6367D01*
G36*
G01X18095Y-7043D02*
G01X17295Y-7043D01*
G01X17245Y-7093D01*
G01Y-7321D01*
G01X17615D01*
G01Y-7651D01*
G01X17245D01*
G01Y-7893D01*
G01X17295Y-7943D01*
G01X18095D01*
G01X18145Y-7893D01*
G01Y-7093D01*
G01X18095Y-7043D01*
G37*
G01X18095Y-7043D02*
G01X17295Y-7043D01*
G01X17245Y-7093D01*
G01Y-7321D01*
G01X17615D01*
G01Y-7651D01*
G01X17245D01*
G01Y-7893D01*
G01X17295Y-7943D01*
G01X18095D01*
G01X18145Y-7893D01*
G01Y-7093D01*
G01X18095Y-7043D01*
G36*
G01X16545Y-7093D02*
G01X16545Y-7321D01*
G01X16165D01*
G01Y-7651D01*
G01X16545D01*
G01Y-7893D01*
G01X16495Y-7943D01*
G01X15705D01*
G01X15655Y-7893D01*
G01Y-7093D01*
G01X15705Y-7043D01*
G01X16495D01*
G01X16545Y-7093D01*
G37*
G01X16545Y-7093D02*
G01X16545Y-7321D01*
G01X16165D01*
G01Y-7651D01*
G01X16545D01*
G01Y-7893D01*
G01X16495Y-7943D01*
G01X15705D01*
G01X15655Y-7893D01*
G01Y-7093D01*
G01X15705Y-7043D01*
G01X16495D01*
G01X16545Y-7093D01*
G36*
G01X15687Y-6419D02*
G01X16487Y-6419D01*
G01X16537Y-6369D01*
G01Y-6141D01*
G01X16167D01*
G01Y-5811D01*
G01X16537D01*
G01Y-5569D01*
G01X16487Y-5519D01*
G01X15687D01*
G01X15637Y-5569D01*
G01Y-6369D01*
G01X15687Y-6419D01*
G37*
G01X15687Y-6419D02*
G01X16487Y-6419D01*
G01X16537Y-6369D01*
G01Y-6141D01*
G01X16167D01*
G01Y-5811D01*
G01X16537D01*
G01Y-5569D01*
G01X16487Y-5519D01*
G01X15687D01*
G01X15637Y-5569D01*
G01Y-6369D01*
G01X15687Y-6419D01*
G36*
G01X17237Y-6369D02*
G01X17237Y-6141D01*
G01X17617D01*
G01Y-5811D01*
G01X17237D01*
G01Y-5569D01*
G01X17287Y-5519D01*
G01X18077D01*
G01X18127Y-5569D01*
G01Y-6369D01*
G01X18077Y-6419D01*
G01X17287D01*
G01X17237Y-6369D01*
G37*
G01X17237Y-6369D02*
G01X17237Y-6141D01*
G01X17617D01*
G01Y-5811D01*
G01X17237D01*
G01Y-5569D01*
G01X17287Y-5519D01*
G01X18077D01*
G01X18127Y-5569D01*
G01Y-6369D01*
G01X18077Y-6419D01*
G01X17287D01*
G01X17237Y-6369D01*
G36*
G01X16579Y-4633D02*
G01X16579Y-3833D01*
G01X16529Y-3783D01*
G01X16301D01*
G01Y-4153D01*
G01X15971D01*
G01Y-3783D01*
G01X15729D01*
G01X15679Y-3833D01*
G01Y-4633D01*
G01X15729Y-4683D01*
G01X16529D01*
G01X16579Y-4633D01*
G37*
G01X16579Y-4633D02*
G01X16579Y-3833D01*
G01X16529Y-3783D01*
G01X16301D01*
G01Y-4153D01*
G01X15971D01*
G01Y-3783D01*
G01X15729D01*
G01X15679Y-3833D01*
G01Y-4633D01*
G01X15729Y-4683D01*
G01X16529D01*
G01X16579Y-4633D01*
G36*
G01X16529Y-3083D02*
G01X16301Y-3083D01*
G01Y-2703D01*
G01X15971D01*
G01Y-3083D01*
G01X15729D01*
G01X15679Y-3033D01*
G01Y-2243D01*
G01X15729Y-2193D01*
G01X16529D01*
G01X16579Y-2243D01*
G01Y-3033D01*
G01X16529Y-3083D01*
G37*
G01X16529Y-3083D02*
G01X16301Y-3083D01*
G01Y-2703D01*
G01X15971D01*
G01Y-3083D01*
G01X15729D01*
G01X15679Y-3033D01*
G01Y-2243D01*
G01X15729Y-2193D01*
G01X16529D01*
G01X16579Y-2243D01*
G01Y-3033D01*
G01X16529Y-3083D01*
G36*
G01X14028Y-2243D02*
G01X14028Y-3043D01*
G01X14078Y-3093D01*
G01X14306D01*
G01Y-2723D01*
G01X14636D01*
G01Y-3093D01*
G01X14878D01*
G01X14928Y-3043D01*
G01Y-2243D01*
G01X14878Y-2193D01*
G01X14078D01*
G01X14028Y-2243D01*
G37*
G01X14028Y-2243D02*
G01X14028Y-3043D01*
G01X14078Y-3093D01*
G01X14306D01*
G01Y-2723D01*
G01X14636D01*
G01Y-3093D01*
G01X14878D01*
G01X14928Y-3043D01*
G01Y-2243D01*
G01X14878Y-2193D01*
G01X14078D01*
G01X14028Y-2243D01*
G36*
G01X14078Y-3793D02*
G01X14306Y-3793D01*
G01Y-4173D01*
G01X14636D01*
G01Y-3793D01*
G01X14878D01*
G01X14928Y-3843D01*
G01Y-4633D01*
G01X14878Y-4683D01*
G01X14078D01*
G01X14028Y-4633D01*
G01Y-3843D01*
G01X14078Y-3793D01*
G37*
G01X14078Y-3793D02*
G01X14306Y-3793D01*
G01Y-4173D01*
G01X14636D01*
G01Y-3793D01*
G01X14878D01*
G01X14928Y-3843D01*
G01Y-4633D01*
G01X14878Y-4683D01*
G01X14078D01*
G01X14028Y-4633D01*
G01Y-3843D01*
G01X14078Y-3793D01*
G04 PolygonModel End*

G04 Pad Start*
G54D11*
G01X6034Y-19431D03*
G01X4634Y-19431D03*
G54D12*
G01X4837Y-14677D03*
G01X5487Y-14677D03*
G01X6137Y-14677D03*
G01X6787Y-14677D03*
G01X7437Y-14677D03*
G01X8087Y-14677D03*
G01X8737Y-14677D03*
G01X9387Y-14677D03*
G01X4837Y-8945D03*
G01X5487Y-8945D03*
G01X6137Y-8945D03*
G01X6787Y-8945D03*
G01X7437Y-8945D03*
G01X8087Y-8945D03*
G01X8737Y-8945D03*
G01X9387Y-8945D03*
G54D13*
G01X2794Y-13270D03*
G01X2794Y-14670D03*
G54D14*
G01X10160Y-19496D03*
G01X10160Y-18096D03*
G54D13*
G01X13462Y-17969D03*
G01X13462Y-19369D03*
G54D15*
G01X13419Y-12192D03*
G54D16*
G01X13419Y-14732D03*
G54D15*
G01X11219Y-14732D03*
G01X11219Y-12192D03*
G54D14*
G01X4445Y-6796D03*
G01X4445Y-5396D03*
G54D17*
G01X6096Y-340D03*
G01X6096Y-3724D03*
G54D13*
G01X8382Y-18031D03*
G01X8382Y-19431D03*
G54D19*
G01X17653Y-11176D03*
G01X17653Y-16726D03*
G54D20*
G01X8014Y-549D03*
G01X8014Y-1199D03*
G01X8014Y-1849D03*
G01X8014Y-2499D03*
G01X12306Y-549D03*
G01X12306Y-1199D03*
G01X12306Y-1849D03*
G01X12306Y-2499D03*
G01X12306Y-6690D03*
G01X12306Y-6040D03*
G01X12306Y-5390D03*
G01X12306Y-4740D03*
G01X8014Y-6690D03*
G01X8014Y-6040D03*
G01X8014Y-5390D03*
G01X8014Y-4740D03*
G54D14*
G01X4191Y-2605D03*
G01X4191Y-1205D03*
G54D13*
G01X21082Y-5966D03*
G01X21082Y-7366D03*
G54D14*
G01X2540Y-6799D03*
G01X2540Y-5399D03*
G54D21*
G01X2911Y-11633D03*
G54D22*
G01X2911Y-9129D03*
G54D23*
G01X20793Y-16970D03*
G01X20920Y-11970D03*
G04 Pad End*

M02*
