G04 Layer: BottomLayer*
G04 EasyEDA Pro v1.9.26, 2022-12-23 16:49:17*
G04 Gerber Generator version 0.3*
G04 Scale: 100 percent, Rotated: No, Reflected: No*
G04 Dimensions in millimeters*
G04 Leading zeros omitted, absolute positions, 3 integers and 3 decimals*
%FSLAX33Y33*%
%MOMM*%
%ADD999C,0.2032*%
%ADD10R,1.2X2.999999*%
%ADD11O,1.2X2.999999*%
%ADD12C,0.635*%
%ADD13C,0.25*%
%ADD14C,0.2576*%
%ADD15C,0.254*%
%ADD16C,0.3556*%
G75*


G04 Copper Start*
G36*
G01X1827Y-20388D02*
G02X1755Y-20316I0J72D01*
G01Y324D01*
G02X1827Y396I72J0D01*
G01X3741D01*
G01Y-2389D01*
G03X4099Y-2747I358J0D01*
G01X5092D01*
G03X5086Y-2841I669J-93D01*
G03X5762Y-3516I676J0D01*
G03X6437Y-2841I0J676D01*
G03X6245Y-2368I-676J0D01*
G01Y-1190D01*
G03X6103Y-848I-483J0D01*
G01X5803Y-547D01*
G03X5657Y-447I-342J-342D01*
G01Y396D01*
G01X6362D01*
G03X6281Y11I877J-385D01*
G01Y-1789D01*
G03X7239Y-2747I958J0D01*
G03X8197Y-1789I0J958D01*
G01Y11D01*
G03X8116Y396I-958J0D01*
G01X8902D01*
G03X8821Y11I877J-385D01*
G01Y-1789D01*
G03X9779Y-2747I958J0D01*
G03X10737Y-1789I0J958D01*
G01Y11D01*
G03X10656Y396I-958J0D01*
G01X11442D01*
G03X11361Y11I877J-385D01*
G01Y-1789D01*
G03X12319Y-2747I958J0D01*
G03X13277Y-1789I0J958D01*
G01Y11D01*
G03X13196Y396I-958J0D01*
G01X13982D01*
G03X13901Y11I877J-385D01*
G01Y-1789D01*
G03X14859Y-2747I958J0D01*
G03X15817Y-1789I0J958D01*
G01Y11D01*
G03X15736Y396I-958J0D01*
G01X16522D01*
G03X16441Y11I877J-385D01*
G01Y-1789D01*
G03X17399Y-2747I958J0D01*
G03X18357Y-1789I0J958D01*
G01Y11D01*
G03X18276Y396I-958J0D01*
G01X19062D01*
G03X18981Y11I877J-385D01*
G01Y-1789D01*
G03X19939Y-2747I958J0D01*
G03X20897Y-1789I0J958D01*
G01Y11D01*
G03X20816Y396I-958J0D01*
G01X22467D01*
G02X22539Y324I0J-72D01*
G01Y-20316D01*
G02X22467Y-20388I-72J0D01*
G01X20845D01*
G03X20897Y-20077I-906J311D01*
G01Y-18277D01*
G03X20424Y-17451I-958J0D01*
G01Y-11180D01*
G03X20282Y-10837I-485J0D01*
G01X19643Y-10198D01*
G03X19300Y-10056I-343J-343D01*
G01X12027D01*
G03X11557Y-9865I-470J-485D01*
G03X10881Y-10541I0J-676D01*
G03X11403Y-11199I676J0D01*
G01X10122D01*
G03X9652Y-11008I-470J-485D01*
G03X9282Y-11118I0J-676D01*
G03X9312Y-10922I-646J196D01*
G03X9121Y-10452I-676J0D01*
G01Y-10033D01*
G03X8979Y-9690I-485J0D01*
G01X8344Y-9055D01*
G03X8001Y-8913I-343J-343D01*
G01X6731D01*
G03X6388Y-9055I0J-485D01*
G01X6007Y-9436D01*
G03X5865Y-9779I343J-343D01*
G01Y-11811D01*
G03X6007Y-12154I485J0D01*
G01X7023Y-13170D01*
G03X7366Y-13312I343J343D01*
G01X11483D01*
G01X11834Y-13663D01*
G01Y-17451D01*
G03X11361Y-18277I485J-826D01*
G01Y-20077D01*
G03X11413Y-20388I958J0D01*
G01X10685D01*
G03X10737Y-20077I-906J311D01*
G01Y-18277D01*
G03X9779Y-17319I-958J0D01*
G03X9698Y-17322I0J-958D01*
G01X8761Y-16385D01*
G03X8414Y-16229I-379J-379D01*
G03X8001Y-16088I-413J-535D01*
G03X7921Y-16093I0J-676D01*
G03X7517Y-15959I-404J-541D01*
G03X6841Y-16635I0J-676D01*
G03X6957Y-17014I676J0D01*
G03X6944Y-17145I663J-131D01*
G03X7620Y-17821I676J0D01*
G03X8249Y-17393I0J676D01*
G01X8252Y-17391D01*
G01X8861Y-18001D01*
G03X8821Y-18277I918J-276D01*
G01Y-20077D01*
G03X8873Y-20388I958J0D01*
G01X5605D01*
G03X5657Y-20077I-906J311D01*
G01Y-18277D01*
G03X4699Y-17319I-958J0D01*
G03X3741Y-18277I0J-958D01*
G01Y-20077D01*
G03X3793Y-20388I958J0D01*
G01X1827D01*
G37*
%LPC*%
G36*
G01X18796Y-9439D02*
G03X19472Y-8763I0J676D01*
G03X18807Y-8087I-676J0D01*
G01X15710Y-4991D01*
G03X15367Y-4849I-343J-343D01*
G01X9995D01*
G03X9525Y-4658I-470J-485D01*
G03X9045Y-4859I0J-676D01*
G01Y-4413D01*
G01X9366Y-4092D01*
G01X12289D01*
G03X12700Y-4232I411J536D01*
G03X13376Y-3556I0J676D01*
G03X12700Y-2880I-676J0D01*
G03X12289Y-3020I0J-676D01*
G01X9144D01*
G03X8765Y-3177I0J-536D01*
G01X8130Y-3812D01*
G03X7973Y-4191I379J-379D01*
G01Y-5609D01*
G03X8130Y-5988I536J0D01*
G01X8920Y-6778D01*
G03X8993Y-7008I670J88D01*
G01X7582D01*
G03X7112Y-6817I-470J-485D01*
G03X6436Y-7493I0J-676D01*
G03X7112Y-8169I676J0D01*
G03X7582Y-7978I0J676D01*
G01X10414D01*
G03X10757Y-7836I0J485D01*
G01X11265Y-7328D01*
G03X11407Y-6985I-343J343D01*
G01Y-6820D01*
G03X11598Y-6350I-485J470D01*
G03X11340Y-5819I-676J0D01*
G01X15166D01*
G01X18120Y-8774D01*
G03X18796Y-9439I676J11D01*
G37*
G36*
G01X2753Y-7747D02*
G03X3429Y-8423I676J0D01*
G03X4105Y-7747I0J676D01*
G03X3914Y-7277I-676J0D01*
G01Y-4153D01*
G03X4105Y-3683I-485J470D01*
G03X3429Y-3007I-676J0D01*
G03X2753Y-3683I0J-676D01*
G03X2944Y-4153I676J0D01*
G01Y-7277D01*
G03X2753Y-7747I485J-470D01*
G37*
%LPD*%
G36*
G01X18305Y-20388D02*
G03X18357Y-20077I-906J311D01*
G01Y-18277D01*
G03X17884Y-17451I-958J0D01*
G01Y-12192D01*
G03X17742Y-11849I-485J0D01*
G01X17234Y-11341D01*
G03X16891Y-11199I-343J-343D01*
G01X11711D01*
G03X12027Y-11026I-154J658D01*
G01X19099D01*
G01X19454Y-11381D01*
G01Y-17451D01*
G03X18981Y-18277I485J-826D01*
G01Y-20077D01*
G03X19033Y-20388I958J0D01*
G01X18305D01*
G37*
G36*
G01X13225Y-20388D02*
G03X13277Y-20077I-906J311D01*
G01Y-18277D01*
G03X12804Y-17451I-958J0D01*
G01Y-13462D01*
G03X12662Y-13119I-485J0D01*
G01X12220Y-12677D01*
G01X13896D01*
G01X14374Y-13155D01*
G01Y-17451D01*
G03X13901Y-18277I485J-826D01*
G01Y-20077D01*
G03X13953Y-20388I958J0D01*
G01X13225D01*
G37*
G36*
G01X16441Y-20077D02*
G03X16493Y-20388I958J0D01*
G01X15765D01*
G03X15817Y-20077I-906J311D01*
G01Y-18277D01*
G03X15344Y-17451I-958J0D01*
G01Y-12954D01*
G03X15202Y-12611I-485J0D01*
G01X14760Y-12169D01*
G01X16690D01*
G01X16914Y-12393D01*
G01Y-17451D01*
G03X16441Y-18277I485J-826D01*
G01Y-20077D01*
G37*
G54D999*
G01X1827Y-20388D02*
G02X1755Y-20316I0J72D01*
G01Y324D01*
G02X1827Y396I72J0D01*
G01X3741D01*
G01Y-2389D01*
G03X4099Y-2747I358J0D01*
G01X5092D01*
G03X5086Y-2841I669J-93D01*
G03X5762Y-3516I676J0D01*
G03X6437Y-2841I0J676D01*
G03X6245Y-2368I-676J0D01*
G01Y-1190D01*
G03X6103Y-848I-483J0D01*
G01X5803Y-547D01*
G03X5657Y-447I-342J-342D01*
G01Y396D01*
G01X6362D01*
G03X6281Y11I877J-385D01*
G01Y-1789D01*
G03X7239Y-2747I958J0D01*
G03X8197Y-1789I0J958D01*
G01Y11D01*
G03X8116Y396I-958J0D01*
G01X8902D01*
G03X8821Y11I877J-385D01*
G01Y-1789D01*
G03X9779Y-2747I958J0D01*
G03X10737Y-1789I0J958D01*
G01Y11D01*
G03X10656Y396I-958J0D01*
G01X11442D01*
G03X11361Y11I877J-385D01*
G01Y-1789D01*
G03X12319Y-2747I958J0D01*
G03X13277Y-1789I0J958D01*
G01Y11D01*
G03X13196Y396I-958J0D01*
G01X13982D01*
G03X13901Y11I877J-385D01*
G01Y-1789D01*
G03X14859Y-2747I958J0D01*
G03X15817Y-1789I0J958D01*
G01Y11D01*
G03X15736Y396I-958J0D01*
G01X16522D01*
G03X16441Y11I877J-385D01*
G01Y-1789D01*
G03X17399Y-2747I958J0D01*
G03X18357Y-1789I0J958D01*
G01Y11D01*
G03X18276Y396I-958J0D01*
G01X19062D01*
G03X18981Y11I877J-385D01*
G01Y-1789D01*
G03X19939Y-2747I958J0D01*
G03X20897Y-1789I0J958D01*
G01Y11D01*
G03X20816Y396I-958J0D01*
G01X22467D01*
G02X22539Y324I0J-72D01*
G01Y-20316D01*
G02X22467Y-20388I-72J0D01*
G01X20845D01*
G03X20897Y-20077I-906J311D01*
G01Y-18277D01*
G03X20424Y-17451I-958J0D01*
G01Y-11180D01*
G03X20282Y-10837I-485J0D01*
G01X19643Y-10198D01*
G03X19300Y-10056I-343J-343D01*
G01X12027D01*
G03X11557Y-9865I-470J-485D01*
G03X10881Y-10541I0J-676D01*
G03X11403Y-11199I676J0D01*
G01X10122D01*
G03X9652Y-11008I-470J-485D01*
G03X9282Y-11118I0J-676D01*
G03X9312Y-10922I-646J196D01*
G03X9121Y-10452I-676J0D01*
G01Y-10033D01*
G03X8979Y-9690I-485J0D01*
G01X8344Y-9055D01*
G03X8001Y-8913I-343J-343D01*
G01X6731D01*
G03X6388Y-9055I0J-485D01*
G01X6007Y-9436D01*
G03X5865Y-9779I343J-343D01*
G01Y-11811D01*
G03X6007Y-12154I485J0D01*
G01X7023Y-13170D01*
G03X7366Y-13312I343J343D01*
G01X11483D01*
G01X11834Y-13663D01*
G01Y-17451D01*
G03X11361Y-18277I485J-826D01*
G01Y-20077D01*
G03X11413Y-20388I958J0D01*
G01X10685D01*
G03X10737Y-20077I-906J311D01*
G01Y-18277D01*
G03X9779Y-17319I-958J0D01*
G03X9698Y-17322I0J-958D01*
G01X8761Y-16385D01*
G03X8414Y-16229I-379J-379D01*
G03X8001Y-16088I-413J-535D01*
G03X7921Y-16093I0J-676D01*
G03X7517Y-15959I-404J-541D01*
G03X6841Y-16635I0J-676D01*
G03X6957Y-17014I676J0D01*
G03X6944Y-17145I663J-131D01*
G03X7620Y-17821I676J0D01*
G03X8249Y-17393I0J676D01*
G01X8252Y-17391D01*
G01X8861Y-18001D01*
G03X8821Y-18277I918J-276D01*
G01Y-20077D01*
G03X8873Y-20388I958J0D01*
G01X5605D01*
G03X5657Y-20077I-906J311D01*
G01Y-18277D01*
G03X4699Y-17319I-958J0D01*
G03X3741Y-18277I0J-958D01*
G01Y-20077D01*
G03X3793Y-20388I958J0D01*
G01X1827D01*
G01X18796Y-9439D02*
G03X19472Y-8763I0J676D01*
G03X18807Y-8087I-676J0D01*
G01X15710Y-4991D01*
G03X15367Y-4849I-343J-343D01*
G01X9995D01*
G03X9525Y-4658I-470J-485D01*
G03X9045Y-4859I0J-676D01*
G01Y-4413D01*
G01X9366Y-4092D01*
G01X12289D01*
G03X12700Y-4232I411J536D01*
G03X13376Y-3556I0J676D01*
G03X12700Y-2880I-676J0D01*
G03X12289Y-3020I0J-676D01*
G01X9144D01*
G03X8765Y-3177I0J-536D01*
G01X8130Y-3812D01*
G03X7973Y-4191I379J-379D01*
G01Y-5609D01*
G03X8130Y-5988I536J0D01*
G01X8920Y-6778D01*
G03X8993Y-7008I670J88D01*
G01X7582D01*
G03X7112Y-6817I-470J-485D01*
G03X6436Y-7493I0J-676D01*
G03X7112Y-8169I676J0D01*
G03X7582Y-7978I0J676D01*
G01X10414D01*
G03X10757Y-7836I0J485D01*
G01X11265Y-7328D01*
G03X11407Y-6985I-343J343D01*
G01Y-6820D01*
G03X11598Y-6350I-485J470D01*
G03X11340Y-5819I-676J0D01*
G01X15166D01*
G01X18120Y-8774D01*
G03X18796Y-9439I676J11D01*
G01X2753Y-7747D02*
G03X3429Y-8423I676J0D01*
G03X4105Y-7747I0J676D01*
G03X3914Y-7277I-676J0D01*
G01Y-4153D01*
G03X4105Y-3683I-485J470D01*
G03X3429Y-3007I-676J0D01*
G03X2753Y-3683I0J-676D01*
G03X2944Y-4153I676J0D01*
G01Y-7277D01*
G03X2753Y-7747I485J-470D01*
G01X18305Y-20388D02*
G03X18357Y-20077I-906J311D01*
G01Y-18277D01*
G03X17884Y-17451I-958J0D01*
G01Y-12192D01*
G03X17742Y-11849I-485J0D01*
G01X17234Y-11341D01*
G03X16891Y-11199I-343J-343D01*
G01X11711D01*
G03X12027Y-11026I-154J658D01*
G01X19099D01*
G01X19454Y-11381D01*
G01Y-17451D01*
G03X18981Y-18277I485J-826D01*
G01Y-20077D01*
G03X19033Y-20388I958J0D01*
G01X18305D01*
G01X13225Y-20388D02*
G03X13277Y-20077I-906J311D01*
G01Y-18277D01*
G03X12804Y-17451I-958J0D01*
G01Y-13462D01*
G03X12662Y-13119I-485J0D01*
G01X12220Y-12677D01*
G01X13896D01*
G01X14374Y-13155D01*
G01Y-17451D01*
G03X13901Y-18277I485J-826D01*
G01Y-20077D01*
G03X13953Y-20388I958J0D01*
G01X13225D01*
G01X16441Y-20077D02*
G03X16493Y-20388I958J0D01*
G01X15765D01*
G03X15817Y-20077I-906J311D01*
G01Y-18277D01*
G03X15344Y-17451I-958J0D01*
G01Y-12954D01*
G03X15202Y-12611I-485J0D01*
G01X14760Y-12169D01*
G01X16690D01*
G01X16914Y-12393D01*
G01Y-17451D01*
G03X16441Y-18277I485J-826D01*
G01Y-20077D01*
G04 Copper End*

G04 Pad Start*
G54D10*
G01X4699Y-889D03*
G54D11*
G01X9779Y-889D03*
G01X12319Y-889D03*
G01X14859Y-889D03*
G01X17399Y-889D03*
G01X19939Y-889D03*
G01X7239Y-889D03*
G01X19939Y-19177D03*
G01X17399Y-19177D03*
G01X14859Y-19177D03*
G01X12319Y-19177D03*
G01X9779Y-19177D03*
G01X7239Y-19177D03*
G01X4699Y-19177D03*
G04 Pad End*

G04 Via Start*
G54D12*
G01X5762Y-2841D03*
G01X8001Y-16764D03*
G01X3429Y-7747D03*
G01X3429Y-3683D03*
G01X9525Y-5334D03*
G01X18796Y-8763D03*
G01X11557Y-10541D03*
G01X9652Y-11684D03*
G01X7747Y-10922D03*
G01X8636Y-10922D03*
G01X13462Y-9779D03*
G01X7112Y-7493D03*
G01X9590Y-6690D03*
G01X12700Y-3556D03*
G01X10922Y-6350D03*
G01X3175Y0D03*
G01X2286Y-4064D03*
G01X10033Y-8255D03*
G01X11303Y-17145D03*
G01X2159Y-19939D03*
G01X3302Y-18796D03*
G01X4191Y-17145D03*
G01X3302Y-19939D03*
G01X11049Y-19939D03*
G01X10414Y-16891D03*
G01X16256Y-12954D03*
G01X18796Y-12954D03*
G01X18796Y-14986D03*
G01X16256Y-14986D03*
G01X21463Y-1778D03*
G01X20193Y-3302D03*
G01X21463Y-4445D03*
G01X4953Y-3683D03*
G01X4953Y-4191D03*
G01X4064Y-13843D03*
G01X13970Y-16510D03*
G01X16129Y-18034D03*
G01X18669Y-17907D03*
G01X21463Y-19812D03*
G01X21463Y0D03*
G01X21463Y-3048D03*
G01X4191Y-11684D03*
G01X5588Y-10795D03*
G01X7517Y-16635D03*
G01X7620Y-17145D03*
G01X4826Y-16129D03*
G04 Via End*

G04 Track Start*
G54D13*
G01X4699Y-889D02*
G01X5461Y-889D01*
G01X5762Y-1190D01*
G01Y-2841D01*
G54D15*
G01X3429Y-7747D02*
G01X3429Y-3683D01*
G01X15367Y-5334D02*
G01X9525Y-5334D01*
G01X18796Y-8763D02*
G01X15367Y-5334D01*
G01X14859Y-19177D02*
G01X14859Y-12954D01*
G01X7747Y-10922D02*
G01X7747Y-12192D01*
G01X12319Y-19177D02*
G01X12319Y-13462D01*
G01X11684Y-12827D01*
G01X7366D01*
G01X6350Y-11811D01*
G01X19300Y-10541D02*
G01X19939Y-11180D01*
G01X19939Y-19177D02*
G01X19939Y-11180D01*
G01X11557Y-10541D02*
G01X19300Y-10541D01*
G54D16*
G01X12700Y-3556D02*
G01X9144Y-3556D01*
G01X9590Y-6690D02*
G01X8509Y-5609D01*
G01Y-4191D01*
G01X9144Y-3556D01*
G54D15*
G01X8636Y-10922D02*
G01X8636Y-10033D01*
G01X8001Y-9398D01*
G01X6731D01*
G01X6350Y-9779D01*
G01Y-11811D01*
G01X10922Y-6350D02*
G01X10922Y-6985D01*
G01X10414Y-7493D01*
G01X7112D01*
G54D16*
G01X9779Y-19177D02*
G01X9779Y-18161D01*
G54D15*
G01X9652Y-11684D02*
G01X16891Y-11684D01*
G01X17399Y-12192D01*
G01Y-19177D01*
G01X14859Y-12954D02*
G01X14097Y-12192D01*
G01X7747Y-12192D02*
G01X14097Y-12192D01*
G54D16*
G01X8001Y-16764D02*
G01X8382Y-16764D01*
G01X9779Y-18161D01*
G04 Track End*

M02*
