G04 Layer: DrillDrawingLayer*
G04 EasyEDA Pro v1.9.26, 2022-12-23 16:49:17*
G04 Gerber Generator version 0.3*
G04 Scale: 100 percent, Rotated: No, Reflected: No*
G04 Dimensions in millimeters*
G04 Leading zeros omitted, absolute positions, 3 integers and 3 decimals*
%FSLAX33Y33*%
%MOMM*%
%ADD10C,0.254*%
G75*


G04 Image Start*
G36*
G01X5562Y-2641D02*
G01X5562Y-2678D01*
G01X5599D01*
G01X5925D01*
G01Y-3004D01*
G01X5599D01*
G01Y-2678D01*
G01X5562D01*
G01Y-3040D01*
G01X5961D01*
G01Y-2641D01*
G37*
G36*
G01X7802Y-16564D02*
G01X7802Y-16601D01*
G01X7838D01*
G01X8164D01*
G01Y-16927D01*
G01X7838D01*
G01Y-16601D01*
G01X7802D01*
G01Y-16963D01*
G01X8201D01*
G01Y-16564D01*
G37*
G36*
G01X3230Y-7547D02*
G01X3230Y-7584D01*
G01X3266D01*
G01X3592D01*
G01Y-7910D01*
G01X3266D01*
G01Y-7584D01*
G01X3230D01*
G01Y-7946D01*
G01X3629D01*
G01Y-7547D01*
G37*
G36*
G01X3230Y-3483D02*
G01X3230Y-3520D01*
G01X3266D01*
G01X3592D01*
G01Y-3846D01*
G01X3266D01*
G01Y-3520D01*
G01X3230D01*
G01Y-3882D01*
G01X3629D01*
G01Y-3483D01*
G37*
G36*
G01X9326Y-5134D02*
G01X9326Y-5171D01*
G01X9362D01*
G01X9688D01*
G01Y-5497D01*
G01X9362D01*
G01Y-5171D01*
G01X9326D01*
G01Y-5533D01*
G01X9725D01*
G01Y-5134D01*
G37*
G36*
G01X18597Y-8563D02*
G01X18597Y-8600D01*
G01X18633D01*
G01X18959D01*
G01Y-8926D01*
G01X18633D01*
G01Y-8600D01*
G01X18597D01*
G01Y-8963D01*
G01X18996D01*
G01Y-8563D01*
G37*
G36*
G01X11358Y-10341D02*
G01X11358Y-10378D01*
G01X11394D01*
G01X11720D01*
G01Y-10704D01*
G01X11394D01*
G01Y-10378D01*
G01X11358D01*
G01Y-10741D01*
G01X11757D01*
G01Y-10341D01*
G37*
G36*
G01X9453Y-11484D02*
G01X9453Y-11521D01*
G01X9489D01*
G01X9815D01*
G01Y-11847D01*
G01X9489D01*
G01Y-11521D01*
G01X9453D01*
G01Y-11884D01*
G01X9852D01*
G01Y-11484D01*
G37*
G36*
G01X7548Y-10722D02*
G01X7548Y-10759D01*
G01X7584D01*
G01X7910D01*
G01Y-11085D01*
G01X7584D01*
G01Y-10759D01*
G01X7548D01*
G01Y-11122D01*
G01X7947D01*
G01Y-10722D01*
G37*
G36*
G01X8437Y-10722D02*
G01X8437Y-10759D01*
G01X8473D01*
G01X8799D01*
G01Y-11085D01*
G01X8473D01*
G01Y-10759D01*
G01X8437D01*
G01Y-11122D01*
G01X8836D01*
G01Y-10722D01*
G37*
G36*
G01X13263Y-9579D02*
G01X13263Y-9616D01*
G01X13299D01*
G01X13625D01*
G01Y-9942D01*
G01X13299D01*
G01Y-9616D01*
G01X13263D01*
G01Y-9979D01*
G01X13662D01*
G01Y-9579D01*
G37*
G36*
G01X6913Y-7293D02*
G01X6913Y-7330D01*
G01X6949D01*
G01X7275D01*
G01Y-7656D01*
G01X6949D01*
G01Y-7330D01*
G01X6913D01*
G01Y-7692D01*
G01X7312D01*
G01Y-7293D01*
G37*
G36*
G01X9390Y-6491D02*
G01X9390Y-6527D01*
G01X9426D01*
G01X9753D01*
G01Y-6853D01*
G01X9426D01*
G01Y-6527D01*
G01X9390D01*
G01Y-6889D01*
G01X9789D01*
G01Y-6491D01*
G37*
G36*
G01X12501Y-3356D02*
G01X12501Y-3393D01*
G01X12537D01*
G01X12863D01*
G01Y-3719D01*
G01X12537D01*
G01Y-3393D01*
G01X12501D01*
G01Y-3755D01*
G01X12900D01*
G01Y-3356D01*
G37*
G36*
G01X10723Y-6150D02*
G01X10723Y-6187D01*
G01X10759D01*
G01X11085D01*
G01Y-6513D01*
G01X10759D01*
G01Y-6187D01*
G01X10723D01*
G01Y-6549D01*
G01X11122D01*
G01Y-6150D01*
G37*
G36*
G01X2976Y200D02*
G01X2976Y163D01*
G01X3012D01*
G01X3338D01*
G01Y-163D01*
G01X3012D01*
G01Y163D01*
G01X2976D01*
G01Y-199D01*
G01X3375D01*
G01Y200D01*
G37*
G36*
G01X2087Y-3864D02*
G01X2087Y-3901D01*
G01X2123D01*
G01X2449D01*
G01Y-4227D01*
G01X2123D01*
G01Y-3901D01*
G01X2087D01*
G01Y-4263D01*
G01X2486D01*
G01Y-3864D01*
G37*
G36*
G01X9834Y-8055D02*
G01X9834Y-8092D01*
G01X9870D01*
G01X10196D01*
G01Y-8418D01*
G01X9870D01*
G01Y-8092D01*
G01X9834D01*
G01Y-8455D01*
G01X10233D01*
G01Y-8055D01*
G37*
G36*
G01X11104Y-16945D02*
G01X11104Y-16982D01*
G01X11140D01*
G01X11466D01*
G01Y-17308D01*
G01X11140D01*
G01Y-16982D01*
G01X11104D01*
G01Y-17344D01*
G01X11503D01*
G01Y-16945D01*
G37*
G36*
G01X1960Y-19739D02*
G01X1960Y-19776D01*
G01X1996D01*
G01X2322D01*
G01Y-20102D01*
G01X1996D01*
G01Y-19776D01*
G01X1960D01*
G01Y-20138D01*
G01X2359D01*
G01Y-19739D01*
G37*
G36*
G01X3103Y-18596D02*
G01X3103Y-18633D01*
G01X3139D01*
G01X3465D01*
G01Y-18959D01*
G01X3139D01*
G01Y-18633D01*
G01X3103D01*
G01Y-18995D01*
G01X3502D01*
G01Y-18596D01*
G37*
G36*
G01X3992Y-16945D02*
G01X3992Y-16982D01*
G01X4028D01*
G01X4354D01*
G01Y-17308D01*
G01X4028D01*
G01Y-16982D01*
G01X3992D01*
G01Y-17344D01*
G01X4391D01*
G01Y-16945D01*
G37*
G36*
G01X3103Y-19739D02*
G01X3103Y-19776D01*
G01X3139D01*
G01X3465D01*
G01Y-20102D01*
G01X3139D01*
G01Y-19776D01*
G01X3103D01*
G01Y-20138D01*
G01X3502D01*
G01Y-19739D01*
G37*
G36*
G01X10850Y-19739D02*
G01X10850Y-19776D01*
G01X10886D01*
G01X11212D01*
G01Y-20102D01*
G01X10886D01*
G01Y-19776D01*
G01X10850D01*
G01Y-20138D01*
G01X11249D01*
G01Y-19739D01*
G37*
G36*
G01X10215Y-16691D02*
G01X10215Y-16728D01*
G01X10251D01*
G01X10577D01*
G01Y-17054D01*
G01X10251D01*
G01Y-16728D01*
G01X10215D01*
G01Y-17090D01*
G01X10614D01*
G01Y-16691D01*
G37*
G36*
G01X16057Y-12754D02*
G01X16057Y-12791D01*
G01X16093D01*
G01X16419D01*
G01Y-13117D01*
G01X16093D01*
G01Y-12791D01*
G01X16057D01*
G01Y-13154D01*
G01X16456D01*
G01Y-12754D01*
G37*
G36*
G01X18597Y-12754D02*
G01X18597Y-12791D01*
G01X18633D01*
G01X18959D01*
G01Y-13117D01*
G01X18633D01*
G01Y-12791D01*
G01X18597D01*
G01Y-13154D01*
G01X18996D01*
G01Y-12754D01*
G37*
G36*
G01X18597Y-14786D02*
G01X18597Y-14823D01*
G01X18633D01*
G01X18959D01*
G01Y-15149D01*
G01X18633D01*
G01Y-14823D01*
G01X18597D01*
G01Y-15186D01*
G01X18996D01*
G01Y-14786D01*
G37*
G36*
G01X16057Y-14786D02*
G01X16057Y-14823D01*
G01X16093D01*
G01X16419D01*
G01Y-15149D01*
G01X16093D01*
G01Y-14823D01*
G01X16057D01*
G01Y-15186D01*
G01X16456D01*
G01Y-14786D01*
G37*
G36*
G01X21264Y-1578D02*
G01X21264Y-1615D01*
G01X21300D01*
G01X21626D01*
G01Y-1941D01*
G01X21300D01*
G01Y-1615D01*
G01X21264D01*
G01Y-1977D01*
G01X21663D01*
G01Y-1578D01*
G37*
G36*
G01X19994Y-3102D02*
G01X19994Y-3139D01*
G01X20030D01*
G01X20356D01*
G01Y-3465D01*
G01X20030D01*
G01Y-3139D01*
G01X19994D01*
G01Y-3501D01*
G01X20393D01*
G01Y-3102D01*
G37*
G36*
G01X21264Y-4245D02*
G01X21264Y-4282D01*
G01X21300D01*
G01X21626D01*
G01Y-4608D01*
G01X21300D01*
G01Y-4282D01*
G01X21264D01*
G01Y-4644D01*
G01X21663D01*
G01Y-4245D01*
G37*
G36*
G01X4754Y-3483D02*
G01X4754Y-3520D01*
G01X4790D01*
G01X5116D01*
G01Y-3846D01*
G01X4790D01*
G01Y-3520D01*
G01X4754D01*
G01Y-3882D01*
G01X5153D01*
G01Y-3483D01*
G37*
G36*
G01X4754Y-3991D02*
G01X4754Y-4028D01*
G01X4790D01*
G01X5116D01*
G01Y-4354D01*
G01X4790D01*
G01Y-4028D01*
G01X4754D01*
G01Y-4390D01*
G01X5153D01*
G01Y-3991D01*
G37*
G36*
G01X3865Y-13643D02*
G01X3865Y-13680D01*
G01X3901D01*
G01X4227D01*
G01Y-14006D01*
G01X3901D01*
G01Y-13680D01*
G01X3865D01*
G01Y-14043D01*
G01X4264D01*
G01Y-13643D01*
G37*
G36*
G01X13771Y-16310D02*
G01X13771Y-16347D01*
G01X13807D01*
G01X14133D01*
G01Y-16673D01*
G01X13807D01*
G01Y-16347D01*
G01X13771D01*
G01Y-16709D01*
G01X14170D01*
G01Y-16310D01*
G37*
G36*
G01X15930Y-17834D02*
G01X15930Y-17871D01*
G01X15966D01*
G01X16292D01*
G01Y-18197D01*
G01X15966D01*
G01Y-17871D01*
G01X15930D01*
G01Y-18233D01*
G01X16329D01*
G01Y-17834D01*
G37*
G36*
G01X18470Y-17707D02*
G01X18470Y-17744D01*
G01X18506D01*
G01X18832D01*
G01Y-18070D01*
G01X18506D01*
G01Y-17744D01*
G01X18470D01*
G01Y-18106D01*
G01X18869D01*
G01Y-17707D01*
G37*
G36*
G01X21264Y-19612D02*
G01X21264Y-19649D01*
G01X21300D01*
G01X21626D01*
G01Y-19975D01*
G01X21300D01*
G01Y-19649D01*
G01X21264D01*
G01Y-20011D01*
G01X21663D01*
G01Y-19612D01*
G37*
G36*
G01X21264Y200D02*
G01X21264Y163D01*
G01X21300D01*
G01X21626D01*
G01Y-163D01*
G01X21300D01*
G01Y163D01*
G01X21264D01*
G01Y-199D01*
G01X21663D01*
G01Y200D01*
G37*
G36*
G01X21264Y-2848D02*
G01X21264Y-2885D01*
G01X21300D01*
G01X21626D01*
G01Y-3211D01*
G01X21300D01*
G01Y-2885D01*
G01X21264D01*
G01Y-3247D01*
G01X21663D01*
G01Y-2848D01*
G37*
G36*
G01X3992Y-11484D02*
G01X3992Y-11521D01*
G01X4028D01*
G01X4354D01*
G01Y-11847D01*
G01X4028D01*
G01Y-11521D01*
G01X3992D01*
G01Y-11884D01*
G01X4391D01*
G01Y-11484D01*
G37*
G36*
G01X5389Y-10595D02*
G01X5389Y-10632D01*
G01X5425D01*
G01X5751D01*
G01Y-10958D01*
G01X5425D01*
G01Y-10632D01*
G01X5389D01*
G01Y-10995D01*
G01X5788D01*
G01Y-10595D01*
G37*
G36*
G01X7317Y-16435D02*
G01X7317Y-16471D01*
G01X7353D01*
G01X7680D01*
G01Y-16798D01*
G01X7353D01*
G01Y-16471D01*
G01X7317D01*
G01Y-16834D01*
G01X7716D01*
G01Y-16435D01*
G37*
G36*
G01X7421Y-16945D02*
G01X7421Y-16982D01*
G01X7457D01*
G01X7783D01*
G01Y-17308D01*
G01X7457D01*
G01Y-16982D01*
G01X7421D01*
G01Y-17344D01*
G01X7820D01*
G01Y-16945D01*
G37*
G36*
G01X4627Y-15929D02*
G01X4627Y-15966D01*
G01X4663D01*
G01X4989D01*
G01Y-16292D01*
G01X4663D01*
G01Y-15966D01*
G01X4627D01*
G01Y-16328D01*
G01X5026D01*
G01Y-15929D01*
G37*
G04 Image End*
G54D10*

M02*
