;TYPE=PLATED
;Layer: PTH_Through_Via
;EasyEDA Pro v1.9.26, 2022-12-23 16:25:00
;Gerber Generator version 0.3
M48
METRIC,LZ,000.000
;Hole size 1 = 0.381 METRIC
T01C0.381
%
G05
G90
T01
X014097Y-006477
X018288Y-004953
X013716Y-008128
X010922Y-003810
X014097Y-012319
X013208Y-011430
X007239Y-016235
X007239Y-016637
X007239Y-015833
X007620Y-015833
X007620Y-016235
X007620Y-016637
X009271Y-004572
X011303Y-008128
X002667Y-000889
X004191Y-001016
X009779Y-002159
X010795Y-002540
X012573Y-000762
X013589Y-000889
X018669Y-001778
X020447Y-001778
X022352Y-001651
X021336Y-001016
X019558Y-001016
X022098Y-005588
X022352Y-007366
X019812Y-012446
X019685Y-011049
X021082Y-011684
X022352Y-010922
X022352Y-012573
X019558Y-016256
X021082Y-016002
X022352Y-016891
X021209Y-017399
X021082Y-018796
X022225Y-018161
X016762Y-016885
X016891Y-019177
X018034Y-018161
X004064Y-018923
X002540Y-018923
X003302Y-018415
X004572Y-017499
X004699Y-015875
X006604Y-007493
X009017Y-005715
X010033Y-005461
X011303Y-005461
X013462Y-005842
X002286Y-004699
X003429Y-004699
X004318Y-004699
X007493Y-004699
X009652Y-003810
X011049Y-014097
X012319Y-014097
X014605Y-013970
X007494Y-018920
X009398Y-018923
X011176Y-018923
X012954Y-018923
X014545Y-018275
X007620Y-018288
X009398Y-018288
X015240Y-009906
X016637Y-009271
X016637Y-009906
X015240Y-009398
X011176Y-011049
X010668Y-011557
X009779Y-011811
X009398Y-011049
X009219Y-011637
X017145Y-003302
X017653Y-002667
X017780Y-003429
X015494Y-003683
X015494Y-004826
X015240Y-005715
X016256Y-005588
X016891Y-005461
X019732Y-003736
X021151Y-003743
X019732Y-004707
X021151Y-004307
M30