G04 Layer: TopPasteMaskLayer*
G04 EasyEDA Pro v1.9.26, 2022-12-23 16:44:12*
G04 Gerber Generator version 0.3*
G04 Scale: 100 percent, Rotated: No, Reflected: No*
G04 Dimensions in millimeters*
G04 Leading zeros omitted, absolute positions, 3 integers and 3 decimals*
%FSLAX33Y33*%
%MOMM*%
%AMRoundRect*1,1,$1,$2,$3*1,1,$1,$4,$5*1,1,$1,0-$2,0-$3*1,1,$1,0-$4,0-$5*20,1,$1,$2,$3,$4,$5,0*20,1,$1,$4,$5,0-$2,0-$3,0*20,1,$1,0-$2,0-$3,0-$4,0-$5,0*20,1,$1,0-$4,0-$5,$2,$3,0*4,1,4,$2,$3,$4,$5,0-$2,0-$3,0-$4,0-$5,$2,$3,0*%
%ADD10C,0.0254*%
%ADD11RoundRect,0.762X-3.7465X9.144X3.7465X9.144*%
%ADD12R,3.399993X1.499997*%
%ADD13R,0.799998X0.899998*%
%ADD14O,0.343002X1.731493*%
%ADD15R,0.9041X0.799998*%
%ADD16R,0.899998X0.799998*%
%ADD17R,1.299997X1.799996*%
%ADD18R,1.299997X1.799996*%
%ADD19R,0.999998X0.599999*%
%ADD20R,0.899998X0.799998*%
%ADD21R,1.15001X0.950011*%
%ADD22O,1.691996X0.364007*%
G75*


G04 PolygonModel Start*
G36*
G01X17959Y-9456D02*
G01X17159Y-9456D01*
G01X17109Y-9506D01*
G01Y-9734D01*
G01X17479D01*
G01Y-10064D01*
G01X17109D01*
G01Y-10306D01*
G01X17159Y-10356D01*
G01X17959D01*
G01X18009Y-10306D01*
G01Y-9506D01*
G01X17959Y-9456D01*
G37*
G54D10*
G01X17959Y-9456D02*
G01X17159Y-9456D01*
G01X17109Y-9506D01*
G01Y-9734D01*
G01X17479D01*
G01Y-10064D01*
G01X17109D01*
G01Y-10306D01*
G01X17159Y-10356D01*
G01X17959D01*
G01X18009Y-10306D01*
G01Y-9506D01*
G01X17959Y-9456D01*
G36*
G01X16409Y-9506D02*
G01X16409Y-9734D01*
G01X16029D01*
G01Y-10064D01*
G01X16409D01*
G01Y-10306D01*
G01X16359Y-10356D01*
G01X15569D01*
G01X15519Y-10306D01*
G01Y-9506D01*
G01X15569Y-9456D01*
G01X16359D01*
G01X16409Y-9506D01*
G37*
G01X16409Y-9506D02*
G01X16409Y-9734D01*
G01X16029D01*
G01Y-10064D01*
G01X16409D01*
G01Y-10306D01*
G01X16359Y-10356D01*
G01X15569D01*
G01X15519Y-10306D01*
G01Y-9506D01*
G01X15569Y-9456D01*
G01X16359D01*
G01X16409Y-9506D01*
G36*
G01X12648Y-5022D02*
G01X13448Y-5022D01*
G01X13498Y-4972D01*
G01Y-4744D01*
G01X13128D01*
G01Y-4414D01*
G01X13498D01*
G01Y-4172D01*
G01X13448Y-4122D01*
G01X12648D01*
G01X12598Y-4172D01*
G01Y-4972D01*
G01X12648Y-5022D01*
G37*
G01X12648Y-5022D02*
G01X13448Y-5022D01*
G01X13498Y-4972D01*
G01Y-4744D01*
G01X13128D01*
G01Y-4414D01*
G01X13498D01*
G01Y-4172D01*
G01X13448Y-4122D01*
G01X12648D01*
G01X12598Y-4172D01*
G01Y-4972D01*
G01X12648Y-5022D01*
G36*
G01X14198Y-4972D02*
G01X14198Y-4744D01*
G01X14578D01*
G01Y-4414D01*
G01X14198D01*
G01Y-4172D01*
G01X14248Y-4122D01*
G01X15038D01*
G01X15088Y-4172D01*
G01Y-4972D01*
G01X15038Y-5022D01*
G01X14248D01*
G01X14198Y-4972D01*
G37*
G01X14198Y-4972D02*
G01X14198Y-4744D01*
G01X14578D01*
G01Y-4414D01*
G01X14198D01*
G01Y-4172D01*
G01X14248Y-4122D01*
G01X15038D01*
G01X15088Y-4172D01*
G01Y-4972D01*
G01X15038Y-5022D01*
G01X14248D01*
G01X14198Y-4972D01*
G36*
G01X15055Y-3490D02*
G01X15055Y-2690D01*
G01X15005Y-2640D01*
G01X14777D01*
G01Y-3010D01*
G01X14447D01*
G01Y-2640D01*
G01X14205D01*
G01X14155Y-2690D01*
G01Y-3490D01*
G01X14205Y-3540D01*
G01X15005D01*
G01X15055Y-3490D01*
G37*
G01X15055Y-3490D02*
G01X15055Y-2690D01*
G01X15005Y-2640D01*
G01X14777D01*
G01Y-3010D01*
G01X14447D01*
G01Y-2640D01*
G01X14205D01*
G01X14155Y-2690D01*
G01Y-3490D01*
G01X14205Y-3540D01*
G01X15005D01*
G01X15055Y-3490D01*
G36*
G01X15005Y-1940D02*
G01X14777Y-1940D01*
G01Y-1560D01*
G01X14447D01*
G01Y-1940D01*
G01X14205D01*
G01X14155Y-1890D01*
G01Y-1100D01*
G01X14205Y-1050D01*
G01X15005D01*
G01X15055Y-1100D01*
G01Y-1890D01*
G01X15005Y-1940D01*
G37*
G01X15005Y-1940D02*
G01X14777Y-1940D01*
G01Y-1560D01*
G01X14447D01*
G01Y-1940D01*
G01X14205D01*
G01X14155Y-1890D01*
G01Y-1100D01*
G01X14205Y-1050D01*
G01X15005D01*
G01X15055Y-1100D01*
G01Y-1890D01*
G01X15005Y-1940D01*
G36*
G01X9710Y-6171D02*
G01X9710Y-6971D01*
G01X9760Y-7021D01*
G01X9988D01*
G01Y-6651D01*
G01X10318D01*
G01Y-7021D01*
G01X10560D01*
G01X10610Y-6971D01*
G01Y-6171D01*
G01X10560Y-6121D01*
G01X9760D01*
G01X9710Y-6171D01*
G37*
G01X9710Y-6171D02*
G01X9710Y-6971D01*
G01X9760Y-7021D01*
G01X9988D01*
G01Y-6651D01*
G01X10318D01*
G01Y-7021D01*
G01X10560D01*
G01X10610Y-6971D01*
G01Y-6171D01*
G01X10560Y-6121D01*
G01X9760D01*
G01X9710Y-6171D01*
G36*
G01X9760Y-7721D02*
G01X9988Y-7721D01*
G01Y-8101D01*
G01X10318D01*
G01Y-7721D01*
G01X10560D01*
G01X10610Y-7771D01*
G01Y-8561D01*
G01X10560Y-8611D01*
G01X9760D01*
G01X9710Y-8561D01*
G01Y-7771D01*
G01X9760Y-7721D01*
G37*
G01X9760Y-7721D02*
G01X9988Y-7721D01*
G01Y-8101D01*
G01X10318D01*
G01Y-7721D01*
G01X10560D01*
G01X10610Y-7771D01*
G01Y-8561D01*
G01X10560Y-8611D01*
G01X9760D01*
G01X9710Y-8561D01*
G01Y-7771D01*
G01X9760Y-7721D01*
G36*
G01X18346Y-2361D02*
G01X18346Y-3161D01*
G01X18396Y-3211D01*
G01X18624D01*
G01Y-2841D01*
G01X18954D01*
G01Y-3211D01*
G01X19196D01*
G01X19246Y-3161D01*
G01Y-2361D01*
G01X19196Y-2311D01*
G01X18396D01*
G01X18346Y-2361D01*
G37*
G01X18346Y-2361D02*
G01X18346Y-3161D01*
G01X18396Y-3211D01*
G01X18624D01*
G01Y-2841D01*
G01X18954D01*
G01Y-3211D01*
G01X19196D01*
G01X19246Y-3161D01*
G01Y-2361D01*
G01X19196Y-2311D01*
G01X18396D01*
G01X18346Y-2361D01*
G36*
G01X18396Y-3911D02*
G01X18624Y-3911D01*
G01Y-4291D01*
G01X18954D01*
G01Y-3911D01*
G01X19196D01*
G01X19246Y-3961D01*
G01Y-4751D01*
G01X19196Y-4801D01*
G01X18396D01*
G01X18346Y-4751D01*
G01Y-3961D01*
G01X18396Y-3911D01*
G37*
G01X18396Y-3911D02*
G01X18624Y-3911D01*
G01Y-4291D01*
G01X18954D01*
G01Y-3911D01*
G01X19196D01*
G01X19246Y-3961D01*
G01Y-4751D01*
G01X19196Y-4801D01*
G01X18396D01*
G01X18346Y-4751D01*
G01Y-3961D01*
G01X18396Y-3911D01*
G36*
G01X22548Y-4751D02*
G01X22548Y-3951D01*
G01X22498Y-3901D01*
G01X22270D01*
G01Y-4271D01*
G01X21940D01*
G01Y-3901D01*
G01X21698D01*
G01X21648Y-3951D01*
G01Y-4751D01*
G01X21698Y-4801D01*
G01X22498D01*
G01X22548Y-4751D01*
G37*
G01X22548Y-4751D02*
G01X22548Y-3951D01*
G01X22498Y-3901D01*
G01X22270D01*
G01Y-4271D01*
G01X21940D01*
G01Y-3901D01*
G01X21698D01*
G01X21648Y-3951D01*
G01Y-4751D01*
G01X21698Y-4801D01*
G01X22498D01*
G01X22548Y-4751D01*
G36*
G01X22498Y-3201D02*
G01X22270Y-3201D01*
G01Y-2821D01*
G01X21940D01*
G01Y-3201D01*
G01X21698D01*
G01X21648Y-3151D01*
G01Y-2361D01*
G01X21698Y-2311D01*
G01X22498D01*
G01X22548Y-2361D01*
G01Y-3151D01*
G01X22498Y-3201D01*
G37*
G01X22498Y-3201D02*
G01X22270Y-3201D01*
G01Y-2821D01*
G01X21940D01*
G01Y-3201D01*
G01X21698D01*
G01X21648Y-3151D01*
G01Y-2361D01*
G01X21698Y-2311D01*
G01X22498D01*
G01X22548Y-2361D01*
G01Y-3151D01*
G01X22498Y-3201D01*
G36*
G01X18484Y-8053D02*
G01X18484Y-7253D01*
G01X18434Y-7203D01*
G01X18206D01*
G01Y-7573D01*
G01X17876D01*
G01Y-7203D01*
G01X17634D01*
G01X17584Y-7253D01*
G01Y-8053D01*
G01X17634Y-8103D01*
G01X18434D01*
G01X18484Y-8053D01*
G37*
G01X18484Y-8053D02*
G01X18484Y-7253D01*
G01X18434Y-7203D01*
G01X18206D01*
G01Y-7573D01*
G01X17876D01*
G01Y-7203D01*
G01X17634D01*
G01X17584Y-7253D01*
G01Y-8053D01*
G01X17634Y-8103D01*
G01X18434D01*
G01X18484Y-8053D01*
G36*
G01X18434Y-6503D02*
G01X18206Y-6503D01*
G01Y-6123D01*
G01X17876D01*
G01Y-6503D01*
G01X17634D01*
G01X17584Y-6453D01*
G01Y-5663D01*
G01X17634Y-5613D01*
G01X18434D01*
G01X18484Y-5663D01*
G01Y-6453D01*
G01X18434Y-6503D01*
G37*
G01X18434Y-6503D02*
G01X18206Y-6503D01*
G01Y-6123D01*
G01X17876D01*
G01Y-6503D01*
G01X17634D01*
G01X17584Y-6453D01*
G01Y-5663D01*
G01X17634Y-5613D01*
G01X18434D01*
G01X18484Y-5663D01*
G01Y-6453D01*
G01X18434Y-6503D01*
G36*
G01X19108Y-5663D02*
G01X19108Y-6463D01*
G01X19158Y-6513D01*
G01X19386D01*
G01Y-6143D01*
G01X19716D01*
G01Y-6513D01*
G01X19958D01*
G01X20008Y-6463D01*
G01Y-5663D01*
G01X19958Y-5613D01*
G01X19158D01*
G01X19108Y-5663D01*
G37*
G01X19108Y-5663D02*
G01X19108Y-6463D01*
G01X19158Y-6513D01*
G01X19386D01*
G01Y-6143D01*
G01X19716D01*
G01Y-6513D01*
G01X19958D01*
G01X20008Y-6463D01*
G01Y-5663D01*
G01X19958Y-5613D01*
G01X19158D01*
G01X19108Y-5663D01*
G36*
G01X19158Y-7213D02*
G01X19386Y-7213D01*
G01Y-7593D01*
G01X19716D01*
G01Y-7213D01*
G01X19958D01*
G01X20008Y-7263D01*
G01Y-8053D01*
G01X19958Y-8103D01*
G01X19158D01*
G01X19108Y-8053D01*
G01Y-7263D01*
G01X19158Y-7213D01*
G37*
G01X19158Y-7213D02*
G01X19386Y-7213D01*
G01Y-7593D01*
G01X19716D01*
G01Y-7213D01*
G01X19958D01*
G01X20008Y-7263D01*
G01Y-8053D01*
G01X19958Y-8103D01*
G01X19158D01*
G01X19108Y-8053D01*
G01Y-7263D01*
G01X19158Y-7213D01*
G36*
G01X2990Y-4116D02*
G01X2990Y-3316D01*
G01X2940Y-3266D01*
G01X2712D01*
G01Y-3636D01*
G01X2382D01*
G01Y-3266D01*
G01X2140D01*
G01X2090Y-3316D01*
G01Y-4116D01*
G01X2140Y-4166D01*
G01X2940D01*
G01X2990Y-4116D01*
G37*
G01X2990Y-4116D02*
G01X2990Y-3316D01*
G01X2940Y-3266D01*
G01X2712D01*
G01Y-3636D01*
G01X2382D01*
G01Y-3266D01*
G01X2140D01*
G01X2090Y-3316D01*
G01Y-4116D01*
G01X2140Y-4166D01*
G01X2940D01*
G01X2990Y-4116D01*
G36*
G01X2940Y-2566D02*
G01X2712Y-2566D01*
G01Y-2186D01*
G01X2382D01*
G01Y-2566D01*
G01X2140D01*
G01X2090Y-2516D01*
G01Y-1726D01*
G01X2140Y-1676D01*
G01X2940D01*
G01X2990Y-1726D01*
G01Y-2516D01*
G01X2940Y-2566D01*
G37*
G01X2940Y-2566D02*
G01X2712Y-2566D01*
G01Y-2186D01*
G01X2382D01*
G01Y-2566D01*
G01X2140D01*
G01X2090Y-2516D01*
G01Y-1726D01*
G01X2140Y-1676D01*
G01X2940D01*
G01X2990Y-1726D01*
G01Y-2516D01*
G01X2940Y-2566D01*
G36*
G01X17401Y-2071D02*
G01X17031Y-2071D01*
G01X16931Y-1971D01*
G01Y-1666D01*
G01X16831Y-1566D01*
G01X16443D01*
G01X16343Y-1666D01*
G01Y-1971D01*
G01X16243Y-2071D01*
G01X15873D01*
G01X15773Y-1971D01*
G01Y-686D01*
G01X15873Y-586D01*
G01X17401D01*
G01X17501Y-686D01*
G01Y-1971D01*
G01X17401Y-2071D01*
G37*
G01X17401Y-2071D02*
G01X17031Y-2071D01*
G01X16931Y-1971D01*
G01Y-1666D01*
G01X16831Y-1566D01*
G01X16443D01*
G01X16343Y-1666D01*
G01Y-1971D01*
G01X16243Y-2071D01*
G01X15873D01*
G01X15773Y-1971D01*
G01Y-686D01*
G01X15873Y-586D01*
G01X17401D01*
G01X17501Y-686D01*
G01Y-1971D01*
G01X17401Y-2071D01*
G36*
G01X17401Y-3771D02*
G01X17031Y-3771D01*
G01X16931Y-3871D01*
G01Y-4176D01*
G01X16831Y-4276D01*
G01X16443D01*
G01X16343Y-4176D01*
G01Y-3871D01*
G01X16243Y-3771D01*
G01X15873D01*
G01X15773Y-3871D01*
G01Y-5156D01*
G01X15873Y-5256D01*
G01X17401D01*
G01X17501Y-5156D01*
G01Y-3871D01*
G01X17401Y-3771D01*
G37*
G01X17401Y-3771D02*
G01X17031Y-3771D01*
G01X16931Y-3871D01*
G01Y-4176D01*
G01X16831Y-4276D01*
G01X16443D01*
G01X16343Y-4176D01*
G01Y-3871D01*
G01X16243Y-3771D01*
G01X15873D01*
G01X15773Y-3871D01*
G01Y-5156D01*
G01X15873Y-5256D01*
G01X17401D01*
G01X17501Y-5156D01*
G01Y-3871D01*
G01X17401Y-3771D01*
G36*
G01X5422Y-17528D02*
G01X5422Y-17158D01*
G01X5522Y-17058D01*
G01X5827D01*
G01X5927Y-16958D01*
G01Y-16570D01*
G01X5827Y-16470D01*
G01X5522D01*
G01X5422Y-16370D01*
G01Y-16000D01*
G01X5522Y-15900D01*
G01X6807D01*
G01X6907Y-16000D01*
G01Y-17528D01*
G01X6807Y-17628D01*
G01X5522D01*
G01X5422Y-17528D01*
G37*
G01X5422Y-17528D02*
G01X5422Y-17158D01*
G01X5522Y-17058D01*
G01X5827D01*
G01X5927Y-16958D01*
G01Y-16570D01*
G01X5827Y-16470D01*
G01X5522D01*
G01X5422Y-16370D01*
G01Y-16000D01*
G01X5522Y-15900D01*
G01X6807D01*
G01X6907Y-16000D01*
G01Y-17528D01*
G01X6807Y-17628D01*
G01X5522D01*
G01X5422Y-17528D01*
G36*
G01X3722Y-17528D02*
G01X3722Y-17158D01*
G01X3622Y-17058D01*
G01X3317D01*
G01X3217Y-16958D01*
G01Y-16570D01*
G01X3317Y-16470D01*
G01X3622D01*
G01X3722Y-16370D01*
G01Y-16000D01*
G01X3622Y-15900D01*
G01X2337D01*
G01X2237Y-16000D01*
G01Y-17528D01*
G01X2337Y-17628D01*
G01X3622D01*
G01X3722Y-17528D01*
G37*
G01X3722Y-17528D02*
G01X3722Y-17158D01*
G01X3622Y-17058D01*
G01X3317D01*
G01X3217Y-16958D01*
G01Y-16570D01*
G01X3317Y-16470D01*
G01X3622D01*
G01X3722Y-16370D01*
G01Y-16000D01*
G01X3622Y-15900D01*
G01X2337D01*
G01X2237Y-16000D01*
G01Y-17528D01*
G01X2337Y-17628D01*
G01X3622D01*
G01X3722Y-17528D01*
G04 PolygonModel End*

G04 Pad Start*
G54D11*
G01X27877Y-10033D03*
G54D12*
G01X21336Y-9506D03*
G01X21336Y-14116D03*
G54D13*
G01X6542Y-18923D03*
G01X5142Y-18923D03*
G54D14*
G01X10171Y-15693D03*
G01X10821Y-15693D03*
G01X11471Y-15693D03*
G01X12121Y-15693D03*
G01X12771Y-15693D03*
G01X13421Y-15693D03*
G01X14071Y-15693D03*
G01X14721Y-15693D03*
G01X10171Y-9961D03*
G01X10821Y-9961D03*
G01X11471Y-9961D03*
G01X12121Y-9961D03*
G01X12771Y-9961D03*
G01X13421Y-9961D03*
G01X14071Y-9961D03*
G01X14721Y-9961D03*
G54D16*
G01X8514Y-14286D03*
G01X8514Y-15686D03*
G01X10290Y-17445D03*
G01X10290Y-18846D03*
G01X12065Y-17445D03*
G01X12065Y-18846D03*
G01X8514Y-9841D03*
G01X8514Y-11241D03*
G54D17*
G01X16045Y-14732D03*
G54D18*
G01X16045Y-12192D03*
G54D17*
G01X18245Y-12192D03*
G01X18245Y-14732D03*
G54D19*
G01X18062Y-17085D03*
G01X18062Y-18985D03*
G01X15462Y-18985D03*
G01X15462Y-18035D03*
G01X15462Y-17085D03*
G54D16*
G01X19556Y-17445D03*
G01X19556Y-18846D03*
G01X13841Y-17445D03*
G01X13841Y-18846D03*
G54D20*
G01X8509Y-8066D03*
G01X8509Y-6666D03*
G54D21*
G01X5969Y-848D03*
G01X5969Y-4232D03*
G54D20*
G01X4191Y-3621D03*
G01X4191Y-2221D03*
G01X8509Y-18861D03*
G01X8509Y-17461D03*
G54D22*
G01X16243Y-8087D03*
G01X16243Y-7437D03*
G01X16243Y-6787D03*
G01X16243Y-6137D03*
G01X11951Y-8087D03*
G01X11951Y-7437D03*
G01X11951Y-6787D03*
G01X11951Y-6137D03*
G01X8014Y-1565D03*
G01X8014Y-2215D03*
G01X8014Y-2865D03*
G01X8014Y-3515D03*
G01X12306Y-1565D03*
G01X12306Y-2215D03*
G01X12306Y-2865D03*
G01X12306Y-3515D03*
G54D16*
G01X20447Y-2912D03*
G01X20447Y-4312D03*
G04 Pad End*

M02*
