G04 Layer: BottomSilkscreenLayer*
G04 EasyEDA Pro v1.9.26, 2022-12-23 16:44:12*
G04 Gerber Generator version 0.3*
G04 Scale: 100 percent, Rotated: No, Reflected: No*
G04 Dimensions in millimeters*
G04 Leading zeros omitted, absolute positions, 3 integers and 3 decimals*
%FSLAX33Y33*%
%MOMM*%
%ADD10C,0.1*%
G75*


G04 Text Start*
G04 //text: EmoSense Band *
G04 AD5932*
G04 Ver. 2.0.0 *
G54D10*
G01X21706Y-18618D02*
G01X20723Y-18618D01*
G01X21706Y-18618D02*
G01X21706Y-18009D01*
G01X21239Y-18618D02*
G01X21239Y-18245D01*
G01X20723Y-18618D02*
G01X20723Y-18009D01*
G01X21379Y-17683D02*
G01X20723Y-17683D01*
G01X21191Y-17683D02*
G01X21333Y-17544D01*
G01X21379Y-17450D01*
G01Y-17310D01*
G01X21333Y-17216D01*
G01X21191Y-17168D01*
G01X20723D01*
G01X21191Y-17168D02*
G01X21333Y-17028D01*
G01X21379Y-16934D01*
G01Y-16794D01*
G01X21333Y-16700D01*
G01X21191Y-16652D01*
G01X20723D01*
G01X21379Y-16093D02*
G01X21333Y-16187D01*
G01X21239Y-16281D01*
G01X21099Y-16327D01*
G01X21005D01*
G01X20863Y-16281D01*
G01X20769Y-16187D01*
G01X20723Y-16093D01*
G01Y-15954D01*
G01X20769Y-15860D01*
G01X20863Y-15766D01*
G01X21005Y-15720D01*
G01X21099D01*
G01X21239Y-15766D01*
G01X21333Y-15860D01*
G01X21379Y-15954D01*
G01Y-16093D01*
G01X21567Y-14737D02*
G01X21661Y-14831D01*
G01X21706Y-14973D01*
G01Y-15159D01*
G01X21661Y-15301D01*
G01X21567Y-15395D01*
G01X21473D01*
G01X21379Y-15347D01*
G01X21333Y-15301D01*
G01X21285Y-15207D01*
G01X21191Y-14925D01*
G01X21145Y-14831D01*
G01X21099Y-14785D01*
G01X21005Y-14737D01*
G01X20863D01*
G01X20769Y-14831D01*
G01X20723Y-14973D01*
G01Y-15159D01*
G01X20769Y-15301D01*
G01X20863Y-15395D01*
G01X21099Y-14412D02*
G01X21099Y-13851D01*
G01X21191D01*
G01X21285Y-13896D01*
G01X21333Y-13945D01*
G01X21379Y-14039D01*
G01Y-14178D01*
G01X21333Y-14272D01*
G01X21239Y-14366D01*
G01X21099Y-14412D01*
G01X21005D01*
G01X20863Y-14366D01*
G01X20769Y-14272D01*
G01X20723Y-14178D01*
G01Y-14039D01*
G01X20769Y-13945D01*
G01X20863Y-13851D01*
G01X21379Y-13525D02*
G01X20723Y-13525D01*
G01X21191Y-13525D02*
G01X21333Y-13386D01*
G01X21379Y-13292D01*
G01Y-13150D01*
G01X21333Y-13056D01*
G01X21191Y-13010D01*
G01X20723D01*
G01X21239Y-12169D02*
G01X21333Y-12215D01*
G01X21379Y-12357D01*
G01Y-12497D01*
G01X21333Y-12636D01*
G01X21239Y-12685D01*
G01X21145Y-12636D01*
G01X21099Y-12545D01*
G01X21051Y-12309D01*
G01X21005Y-12215D01*
G01X20911Y-12169D01*
G01X20863D01*
G01X20769Y-12215D01*
G01X20723Y-12357D01*
G01Y-12497D01*
G01X20769Y-12636D01*
G01X20863Y-12685D01*
G01X21099Y-11844D02*
G01X21099Y-11283D01*
G01X21191D01*
G01X21285Y-11328D01*
G01X21333Y-11374D01*
G01X21379Y-11468D01*
G01Y-11610D01*
G01X21333Y-11704D01*
G01X21239Y-11798D01*
G01X21099Y-11844D01*
G01X21005D01*
G01X20863Y-11798D01*
G01X20769Y-11704D01*
G01X20723Y-11610D01*
G01Y-11468D01*
G01X20769Y-11374D01*
G01X20863Y-11283D01*
G01X21706Y-9906D02*
G01X20723Y-9906D01*
G01X21706Y-9906D02*
G01X21706Y-9484D01*
G01X21661Y-9345D01*
G01X21615Y-9296D01*
G01X21521Y-9251D01*
G01X21427D01*
G01X21333Y-9296D01*
G01X21285Y-9345D01*
G01X21239Y-9484D01*
G01X21239Y-9906D02*
G01X21239Y-9484D01*
G01X21191Y-9345D01*
G01X21145Y-9296D01*
G01X21051Y-9251D01*
G01X20911D01*
G01X20817Y-9296D01*
G01X20769Y-9345D01*
G01X20723Y-9484D01*
G01Y-9906D01*
G01X21379Y-8362D02*
G01X20723Y-8362D01*
G01X21239Y-8362D02*
G01X21333Y-8456D01*
G01X21379Y-8550D01*
G01Y-8692D01*
G01X21333Y-8786D01*
G01X21239Y-8877D01*
G01X21099Y-8926D01*
G01X21005D01*
G01X20863Y-8877D01*
G01X20769Y-8786D01*
G01X20723Y-8692D01*
G01Y-8550D01*
G01X20769Y-8456D01*
G01X20863Y-8362D01*
G01X21379Y-8037D02*
G01X20723Y-8037D01*
G01X21191Y-8037D02*
G01X21333Y-7897D01*
G01X21379Y-7803D01*
G01Y-7663D01*
G01X21333Y-7569D01*
G01X21191Y-7521D01*
G01X20723D01*
G01X21706Y-6634D02*
G01X20723Y-6634D01*
G01X21239Y-6634D02*
G01X21333Y-6728D01*
G01X21379Y-6822D01*
G01Y-6962D01*
G01X21333Y-7056D01*
G01X21239Y-7150D01*
G01X21099Y-7198D01*
G01X21005D01*
G01X20863Y-7150D01*
G01X20769Y-7056D01*
G01X20723Y-6962D01*
G01Y-6822D01*
G01X20769Y-6728D01*
G01X20863Y-6634D01*
G01X20106Y-18245D02*
G01X19123Y-18618D01*
G01X20106Y-18245D02*
G01X19123Y-17869D01*
G01X19451Y-18478D02*
G01X19451Y-18009D01*
G01X20106Y-17544D02*
G01X19123Y-17544D01*
G01X20106Y-17544D02*
G01X20106Y-17216D01*
G01X20061Y-17076D01*
G01X19967Y-16982D01*
G01X19873Y-16934D01*
G01X19733Y-16888D01*
G01X19499D01*
G01X19357Y-16934D01*
G01X19263Y-16982D01*
G01X19169Y-17076D01*
G01X19123Y-17216D01*
G01Y-17544D01*
G01X20106Y-15999D02*
G01X20106Y-16469D01*
G01X19685Y-16515D01*
G01X19733Y-16469D01*
G01X19779Y-16327D01*
G01Y-16187D01*
G01X19733Y-16048D01*
G01X19639Y-15954D01*
G01X19499Y-15905D01*
G01X19405D01*
G01X19263Y-15954D01*
G01X19169Y-16048D01*
G01X19123Y-16187D01*
G01Y-16327D01*
G01X19169Y-16469D01*
G01X19217Y-16515D01*
G01X19311Y-16563D01*
G01X19779Y-14973D02*
G01X19639Y-15019D01*
G01X19545Y-15113D01*
G01X19499Y-15253D01*
G01Y-15301D01*
G01X19545Y-15441D01*
G01X19639Y-15535D01*
G01X19779Y-15580D01*
G01X19827D01*
G01X19967Y-15535D01*
G01X20061Y-15441D01*
G01X20106Y-15301D01*
G01Y-15253D01*
G01X20061Y-15113D01*
G01X19967Y-15019D01*
G01X19779Y-14973D01*
G01X19545D01*
G01X19311Y-15019D01*
G01X19169Y-15113D01*
G01X19123Y-15253D01*
G01Y-15347D01*
G01X19169Y-15489D01*
G01X19263Y-15535D01*
G01X20106Y-14554D02*
G01X20106Y-14039D01*
G01X19733Y-14318D01*
G01Y-14178D01*
G01X19685Y-14084D01*
G01X19639Y-14039D01*
G01X19499Y-13990D01*
G01X19405D01*
G01X19263Y-14039D01*
G01X19169Y-14133D01*
G01X19123Y-14272D01*
G01Y-14412D01*
G01X19169Y-14554D01*
G01X19217Y-14600D01*
G01X19311Y-14648D01*
G01X19873Y-13619D02*
G01X19921Y-13619D01*
G01X20015Y-13571D01*
G01X20061Y-13525D01*
G01X20106Y-13432D01*
G01Y-13244D01*
G01X20061Y-13150D01*
G01X20015Y-13104D01*
G01X19921Y-13056D01*
G01X19827D01*
G01X19733Y-13104D01*
G01X19591Y-13198D01*
G01X19123Y-13665D01*
G01Y-13010D01*
G01X18509Y-18618D02*
G01X17523Y-18245D01*
G01X18509Y-17869D02*
G01X17523Y-18245D01*
G01X17899Y-17544D02*
G01X17899Y-16982D01*
G01X17993D01*
G01X18084Y-17028D01*
G01X18133Y-17076D01*
G01X18178Y-17168D01*
G01Y-17310D01*
G01X18133Y-17404D01*
G01X18039Y-17498D01*
G01X17899Y-17544D01*
G01X17805D01*
G01X17663Y-17498D01*
G01X17569Y-17404D01*
G01X17523Y-17310D01*
G01Y-17168D01*
G01X17569Y-17076D01*
G01X17663Y-16982D01*
G01X18178Y-16657D02*
G01X17523Y-16657D01*
G01X17899Y-16657D02*
G01X18039Y-16609D01*
G01X18133Y-16515D01*
G01X18178Y-16421D01*
G01Y-16281D01*
G01X17757Y-15911D02*
G01X17711Y-15956D01*
G01X17663Y-15911D01*
G01X17711Y-15862D01*
G01X17757Y-15911D01*
G01X18272Y-14440D02*
G01X18321Y-14440D01*
G01X18415Y-14394D01*
G01X18460Y-14346D01*
G01X18509Y-14254D01*
G01Y-14067D01*
G01X18460Y-13973D01*
G01X18415Y-13924D01*
G01X18321Y-13879D01*
G01X18227D01*
G01X18133Y-13924D01*
G01X17993Y-14018D01*
G01X17523Y-14488D01*
G01Y-13830D01*
G01X17757Y-13459D02*
G01X17711Y-13508D01*
G01X17663Y-13459D01*
G01X17711Y-13414D01*
G01X17757Y-13459D01*
G01X18509Y-12807D02*
G01X18460Y-12946D01*
G01X18321Y-13040D01*
G01X18084Y-13089D01*
G01X17945D01*
G01X17711Y-13040D01*
G01X17569Y-12946D01*
G01X17523Y-12807D01*
G01Y-12713D01*
G01X17569Y-12573D01*
G01X17711Y-12479D01*
G01X17945Y-12431D01*
G01X18084D01*
G01X18321Y-12479D01*
G01X18460Y-12573D01*
G01X18509Y-12713D01*
G01Y-12807D01*
G01X17757Y-12060D02*
G01X17711Y-12106D01*
G01X17663Y-12060D01*
G01X17711Y-12012D01*
G01X17757Y-12060D01*
G01X18509Y-11407D02*
G01X18460Y-11547D01*
G01X18321Y-11641D01*
G01X18084Y-11687D01*
G01X17945D01*
G01X17711Y-11641D01*
G01X17569Y-11547D01*
G01X17523Y-11407D01*
G01Y-11313D01*
G01X17569Y-11171D01*
G01X17711Y-11079D01*
G01X17945Y-11031D01*
G01X18084D01*
G01X18321Y-11079D01*
G01X18460Y-11171D01*
G01X18509Y-11313D01*
G01Y-11407D01*
G04 //text: GND CTRL*
G04 ADC FSYNC*
G04 GND SCLK*
G04 VDD SDATA*
G36*
G01X7510Y-6775D02*
G01X7510Y-8039D01*
G01X8498D01*
G01Y-7921D01*
G01X8995D01*
G01Y-7038D01*
G01X9126D01*
G01Y-8039D01*
G01X9245D01*
G01X9251Y-8029D01*
G01X9259Y-8016D01*
G01X9268Y-8003D01*
G01X9273Y-7997D01*
G01X9278Y-7986D01*
G01X9291Y-7966D01*
G01X9298Y-7957D01*
G01X9311Y-7935D01*
G01X9319Y-7923D01*
G01X9328Y-7910D01*
G01X9332Y-7903D01*
G01X9338Y-7893D01*
G01X9342Y-7887D01*
G01X9351Y-7873D01*
G01X9379Y-7829D01*
G01X9386Y-7817D01*
G01X9396Y-7804D01*
G01X9400Y-7797D01*
G01X9405Y-7787D01*
G01X9409Y-7781D01*
G01X9419Y-7767D01*
G01X9430Y-7749D01*
G01X9450Y-7723D01*
G01X9462Y-7707D01*
G01X9482Y-7681D01*
G01X9486Y-7676D01*
G01X9490Y-7672D01*
G01X9496Y-7667D01*
G01X9500Y-7664D01*
G01X9506Y-7659D01*
G01X9513Y-7649D01*
G01X9521Y-7642D01*
G01X9527Y-7637D01*
G01X9532Y-7631D01*
G01X9535Y-7628D01*
G01X9538Y-7626D01*
G01X9549Y-7619D01*
G01X9553Y-7616D01*
G01X9557Y-7613D01*
G01X9563Y-7609D01*
G01X9575Y-7602D01*
G01X9588Y-7594D01*
G01X9593Y-7590D01*
G01X9595Y-7586D01*
G01X9591Y-7583D01*
G01X9587Y-7582D01*
G01X9576Y-7580D01*
G01X9556Y-7577D01*
G01X9548Y-7575D01*
G01X9529Y-7568D01*
G01X9512Y-7563D01*
G01X9500Y-7560D01*
G01X9479Y-7550D01*
G01X9467Y-7545D01*
G01X9462Y-7542D01*
G01X9457Y-7540D01*
G01X9446Y-7532D01*
G01X9440Y-7528D01*
G01X9428Y-7522D01*
G01X9424Y-7518D01*
G01X9415Y-7511D01*
G01X9409Y-7507D01*
G01X9404Y-7502D01*
G01X9397Y-7492D01*
G01X9391Y-7485D01*
G01X9385Y-7477D01*
G01X9379Y-7469D01*
G01X9374Y-7464D01*
G01X9372Y-7461D01*
G01X9366Y-7452D01*
G01X9361Y-7444D01*
G01X9357Y-7436D01*
G01X9352Y-7423D01*
G01X9348Y-7415D01*
G01X9345Y-7410D01*
G01X9343Y-7406D01*
G01X9342Y-7401D01*
G01X9338Y-7383D01*
G01X9334Y-7368D01*
G01X9332Y-7358D01*
G01X9331Y-7353D01*
G01X9330Y-7347D01*
G01Y-7333D01*
G01X9329Y-7323D01*
G01X9328Y-7316D01*
G01X9327Y-7312D01*
G01X9326Y-7306D01*
G01X9327Y-7302D01*
G01X9328Y-7295D01*
G01X9329Y-7290D01*
G01X9330Y-7264D01*
G01X9331Y-7256D01*
G01X9334Y-7245D01*
G01X9337Y-7230D01*
G01X9341Y-7221D01*
G01X9346Y-7208D01*
G01X9350Y-7195D01*
G01X9353Y-7188D01*
G01X9359Y-7177D01*
G01X9366Y-7163D01*
G01X9369Y-7157D01*
G01X9371Y-7154D01*
G01X9379Y-7145D01*
G01X9389Y-7130D01*
G01X9397Y-7120D01*
G01X9402Y-7116D01*
G01X9407Y-7111D01*
G01X9414Y-7106D01*
G01X9421Y-7100D01*
G01X9429Y-7093D01*
G01X9442Y-7085D01*
G01X9450Y-7081D01*
G01X9467Y-7073D01*
G01X9474Y-7069D01*
G01X9480Y-7066D01*
G01X9484Y-7064D01*
G01X9495Y-7059D01*
G01X9515Y-7054D01*
G01X9536Y-7051D01*
G01X9548Y-7047D01*
G01X9559Y-7045D01*
G01X9565Y-7044D01*
G01X9578Y-7043D01*
G01X9593Y-7042D01*
G01X9600Y-7041D01*
G01X9603Y-7040D01*
G01X9605D01*
G01X9644Y-7039D01*
G01X9870Y-7038D01*
G01X10132D01*
G01X10267D01*
G01X11065D01*
G01Y-7157D01*
G01X10734D01*
G01Y-7721D01*
G01X11150D01*
G01X11162Y-7719D01*
G01X11173Y-7717D01*
G01X11203Y-7708D01*
G01X11217Y-7705D01*
G01X11242Y-7700D01*
G01X11270Y-7692D01*
G01X11286Y-7687D01*
G01X11288Y-7702D01*
G01X11289Y-7709D01*
G01X11290Y-7716D01*
G01X11293Y-7723D01*
G01X11298Y-7734D01*
G01X11301Y-7750D01*
G01X11305Y-7759D01*
G01X11312Y-7775D01*
G01X11318Y-7790D01*
G01X11323Y-7798D01*
G01X11339Y-7824D01*
G01X11344Y-7830D01*
G01X11351Y-7839D01*
G01X11356Y-7845D01*
G01X11361Y-7851D01*
G01X11370Y-7857D01*
G01X11377Y-7866D01*
G01X11382Y-7871D01*
G01X11391Y-7878D01*
G01X11398Y-7885D01*
G01X11407Y-7891D01*
G01X11419Y-7899D01*
G01X11426Y-7903D01*
G01X11443Y-7911D01*
G01X11451Y-7915D01*
G01X11456Y-7918D01*
G01X11461Y-7921D01*
G01X11472Y-7925D01*
G01X11500Y-7933D01*
G01X11510Y-7936D01*
G01X11516Y-7937D01*
G01X11527D01*
G01X11535Y-7939D01*
G01X11540Y-7940D01*
G01X11547Y-7941D01*
G01X11573Y-7942D01*
G01X11582D01*
G01X11614Y-7941D01*
G01X11625Y-7940D01*
G01X11631Y-7939D01*
G01X11641Y-7936D01*
G01X11655Y-7934D01*
G01X11662Y-7933D01*
G01X11669Y-7930D01*
G01X11680Y-7925D01*
G01X11691Y-7923D01*
G01X11696Y-7921D01*
G01X11702Y-7919D01*
G01X11706Y-7917D01*
G01X11715Y-7912D01*
G01X11730Y-7905D01*
G01X11735Y-7903D01*
G01X11739Y-7900D01*
G01X11759Y-7887D01*
G01X11770Y-7878D01*
G01X11781Y-7870D01*
G01X11785Y-7866D01*
G01X11789Y-7861D01*
G01X11793Y-7856D01*
G01X11798Y-7851D01*
G01X11807Y-7844D01*
G01X11812Y-7838D01*
G01X11828Y-7814D01*
G01X11835Y-7804D01*
G01X11843Y-7789D01*
G01X11846Y-7785D01*
G01X11851Y-7773D01*
G01X11854Y-7766D01*
G01X11860Y-7751D01*
G01X11864Y-7742D01*
G01X11867Y-7733D01*
G01X11871Y-7718D01*
G01X11876Y-7706D01*
G01X11879Y-7698D01*
G01X11881Y-7691D01*
G01X11884Y-7669D01*
G01X11887Y-7656D01*
G01X11889Y-7645D01*
G01X11890Y-7638D01*
G01X11894Y-7604D01*
G01X11896Y-7586D01*
G01X11897Y-7542D01*
G01Y-7534D01*
G01X11898Y-7531D01*
G01X11899Y-7528D01*
G01Y-7522D01*
G01X11897Y-7515D01*
G01Y-7509D01*
G01X11896Y-7469D01*
G01X11895Y-7459D01*
G01X11894Y-7456D01*
G01X11893Y-7449D01*
G01X11892Y-7434D01*
G01X11891Y-7425D01*
G01X11889Y-7418D01*
G01X11887Y-7409D01*
G01X11884Y-7392D01*
G01X11875Y-7365D01*
G01X11871Y-7353D01*
G01X11867Y-7337D01*
G01X11865Y-7330D01*
G01X11863Y-7326D01*
G01X11860Y-7321D01*
G01X11858Y-7317D01*
G01X11852Y-7299D01*
G01X11849Y-7293D01*
G01X11847Y-7290D01*
G01X11841Y-7283D01*
G01X11834Y-7272D01*
G01X11832Y-7266D01*
G01X11824Y-7257D01*
G01X11814Y-7243D01*
G01X11809Y-7236D01*
G01X11804Y-7231D01*
G01X11795Y-7224D01*
G01X11788Y-7215D01*
G01X11785Y-7212D01*
G01X11781Y-7209D01*
G01X11770Y-7202D01*
G01X11765Y-7198D01*
G01X11762Y-7195D01*
G01X11758Y-7190D01*
G01X11756Y-7188D01*
G01X11753Y-7186D01*
G01X11747Y-7183D01*
G01X11740Y-7180D01*
G01X11730Y-7174D01*
G01X11713Y-7166D01*
G01X11705Y-7162D01*
G01X11700Y-7159D01*
G01X11696Y-7157D01*
G01X11692Y-7156D01*
G01X11677Y-7153D01*
G01X11662Y-7149D01*
G01X11653Y-7147D01*
G01X11631Y-7142D01*
G01X11618Y-7140D01*
G01X11602Y-7138D01*
G01X11583Y-7136D01*
G01X11557D01*
G01X11538D01*
G01X11528Y-7137D01*
G01X11522Y-7139D01*
G01X11514Y-7140D01*
G01X11502D01*
G01X11496Y-7142D01*
G01X11474Y-7149D01*
G01X11464Y-7152D01*
G01X11455Y-7155D01*
G01X11440Y-7162D01*
G01X11427Y-7167D01*
G01X11421Y-7171D01*
G01X11418Y-7173D01*
G01X11411Y-7179D01*
G01X11397Y-7188D01*
G01X11391Y-7192D01*
G01X11388Y-7196D01*
G01X11385Y-7200D01*
G01X11380Y-7205D01*
G01X11371Y-7213D01*
G01X11366Y-7218D01*
G01X11360Y-7227D01*
G01X11355Y-7231D01*
G01X11353Y-7235D01*
G01X11347Y-7244D01*
G01X11332Y-7268D01*
G01X11325Y-7285D01*
G01X11320Y-7293D01*
G01X11317Y-7298D01*
G01X11314Y-7306D01*
G01X11311Y-7318D01*
G01X11307Y-7326D01*
G01X11300Y-7340D01*
G01X11299Y-7341D01*
G01X11296Y-7343D01*
G01X11293D01*
G01X11290Y-7344D01*
G01X11282Y-7343D01*
G01X11275Y-7342D01*
G01X11254Y-7335D01*
G01X11240Y-7331D01*
G01X11215Y-7326D01*
G01X11203Y-7323D01*
G01X11194Y-7321D01*
G01X11182Y-7319D01*
G01X11178Y-7317D01*
G01X11175Y-7316D01*
G01X11173Y-7315D01*
G01X11172Y-7313D01*
G01X11171Y-7312D01*
G01X11169Y-7309D01*
G01Y-7305D01*
G01Y-7301D01*
G01X11173Y-7292D01*
G01X11176Y-7283D01*
G01X11179Y-7273D01*
G01X11181Y-7266D01*
G01X11183Y-7262D01*
G01X11186Y-7257D01*
G01X11189Y-7250D01*
G01X11193Y-7238D01*
G01X11196Y-7231D01*
G01X11207Y-7214D01*
G01X11220Y-7193D01*
G01X11225Y-7185D01*
G01X11234Y-7172D01*
G01X11245Y-7158D01*
G01X11250Y-7152D01*
G01X11255Y-7147D01*
G01X11264Y-7139D01*
G01X11271Y-7130D01*
G01X11276Y-7125D01*
G01X11285Y-7118D01*
G01X11290Y-7113D01*
G01X11292Y-7109D01*
G01X11294Y-7107D01*
G01X11297Y-7105D01*
G01X11304Y-7103D01*
G01X11306Y-7101D01*
G01X11309Y-7099D01*
G01X11313Y-7095D01*
G01X11322Y-7089D01*
G01X11334Y-7081D01*
G01X11341Y-7076D01*
G01X11357Y-7068D01*
G01X11368Y-7062D01*
G01X11372Y-7059D01*
G01X11383Y-7055D01*
G01X11395Y-7051D01*
G01X11409Y-7044D01*
G01X11418Y-7041D01*
G01X11433Y-7038D01*
G01X11448Y-7034D01*
G01X11457Y-7032D01*
G01X11479Y-7028D01*
G01X11491Y-7026D01*
G01X11508Y-7023D01*
G01X11523Y-7022D01*
G01X11576Y-7021D01*
G01X11619Y-7022D01*
G01X11629Y-7023D01*
G01X11631D01*
G01X11635Y-7024D01*
G01X11642Y-7025D01*
G01X11654Y-7026D01*
G01X11665Y-7029D01*
G01X11675Y-7031D01*
G01X11689Y-7033D01*
G01X11695Y-7034D01*
G01X11703Y-7037D01*
G01X11714Y-7042D01*
G01X11730Y-7045D01*
G01X11739Y-7049D01*
G01X11752Y-7055D01*
G01X11765Y-7059D01*
G01X11772Y-7062D01*
G01X11783Y-7068D01*
G01X11800Y-7075D01*
G01X11808Y-7079D01*
G01X11844Y-7102D01*
G01X11855Y-7110D01*
G01X11874Y-7125D01*
G01X11881Y-7129D01*
G01X11886Y-7135D01*
G01X11893Y-7143D01*
G01X11901Y-7151D01*
G01X11907Y-7156D01*
G01X11914Y-7165D01*
G01X11920Y-7169D01*
G01X11923Y-7172D01*
G01X11927Y-7177D01*
G01X11929Y-7183D01*
G01X11931Y-7186D01*
G01X11932Y-7189D01*
G01X11936Y-7193D01*
G01X11943Y-7201D01*
G01X11957Y-7221D01*
G01X11959Y-7225D01*
G01X11962Y-7230D01*
G01X11968Y-7245D01*
G01X11971Y-7248D01*
G01X11973Y-7250D01*
G01X11975Y-7253D01*
G01X11979Y-7260D01*
G01X11981Y-7265D01*
G01X11990Y-7286D01*
G01X11996Y-7301D01*
G01X12002Y-7312D01*
G01X12007Y-7326D01*
G01X12011Y-7339D01*
G01X12015Y-7359D01*
G01X12019Y-7374D01*
G01X12021Y-7384D01*
G01X12026Y-7405D01*
G01X12030Y-7431D01*
G01X12035Y-7465D01*
G01Y-7477D01*
G01X12036Y-7532D01*
G01X12568D01*
G01Y-7527D01*
G01X12569Y-7522D01*
G01X12570Y-7511D01*
G01X12571Y-7456D01*
G01X12572Y-7445D01*
G01X12574Y-7440D01*
G01X12575Y-7432D01*
G01X12576Y-7417D01*
G01X12577Y-7411D01*
G01X12579Y-7406D01*
G01X12581Y-7395D01*
G01X12584Y-7375D01*
G01X12588Y-7359D01*
G01X12592Y-7341D01*
G01X12600Y-7314D01*
G01X12608Y-7293D01*
G01X12618Y-7269D01*
G01X12621Y-7262D01*
G01X12625Y-7254D01*
G01X12630Y-7245D01*
G01X12637Y-7230D01*
G01X12640Y-7225D01*
G01X12642Y-7222D01*
G01X12645Y-7218D01*
G01X12649Y-7212D01*
G01X12656Y-7200D01*
G01X12659Y-7196D01*
G01X12666Y-7188D01*
G01X12673Y-7179D01*
G01X12679Y-7171D01*
G01X12685Y-7163D01*
G01X12690Y-7157D01*
G01X12699Y-7151D01*
G01X12705Y-7145D01*
G01X12712Y-7136D01*
G01X12717Y-7131D01*
G01X12726Y-7125D01*
G01X12736Y-7117D01*
G01X12753Y-7104D01*
G01X12760Y-7099D01*
G01X12766Y-7096D01*
G01X12778Y-7089D01*
G01X12788Y-7083D01*
G01X12792Y-7081D01*
G01X12802Y-7076D01*
G01X12823Y-7068D01*
G01X12844Y-7060D01*
G01X12856Y-7057D01*
G01X12866Y-7054D01*
G01X12883Y-7051D01*
G01X12895Y-7047D01*
G01X12908Y-7045D01*
G01X12917Y-7044D01*
G01X12938Y-7042D01*
G01X12952D01*
G01X12959Y-7040D01*
G01X12961D01*
G01X12975Y-7039D01*
G01X13182Y-7038D01*
G01X13398D01*
G01X13619D01*
G01X13751D01*
G01Y-7424D01*
G01X13753Y-7796D01*
G01X13754Y-7806D01*
G01Y-7808D01*
G01X13755D01*
G01X13757Y-7806D01*
G01X13759Y-7804D01*
G01X13762Y-7800D01*
G01X13773Y-7783D01*
G01X13784Y-7767D01*
G01X13799Y-7745D01*
G01X13810Y-7729D01*
G01X13824Y-7706D01*
G01X13835Y-7691D01*
G01X13850Y-7668D01*
G01X13861Y-7653D01*
G01X13875Y-7630D01*
G01X13886Y-7614D01*
G01X13900Y-7592D01*
G01X13912Y-7576D01*
G01X13923Y-7559D01*
G01X13933Y-7545D01*
G01X13941Y-7535D01*
G01X13948Y-7524D01*
G01X13956Y-7511D01*
G01X13966Y-7496D01*
G01X13981Y-7473D01*
G01X13992Y-7457D01*
G01X14007Y-7435D01*
G01X14018Y-7419D01*
G01X14032Y-7397D01*
G01X14043Y-7381D01*
G01X14057Y-7359D01*
G01X14069Y-7343D01*
G01X14083Y-7321D01*
G01X14094Y-7305D01*
G01X14108Y-7282D01*
G01X14119Y-7266D01*
G01X14134Y-7244D01*
G01X14145Y-7228D01*
G01X14159Y-7206D01*
G01X14170Y-7190D01*
G01X14185Y-7168D01*
G01X14196Y-7152D01*
G01X14210Y-7130D01*
G01X14221Y-7114D01*
G01X14236Y-7092D01*
G01X14247Y-7076D01*
G01X14257Y-7061D01*
G01X14260Y-7056D01*
G01X14264Y-7051D01*
G01X14268Y-7046D01*
G01X14271Y-7044D01*
G01X14276Y-7043D01*
G01X14282Y-7041D01*
G01X14302Y-7039D01*
G01X14344Y-7038D01*
G01X14412D01*
G01Y-7715D01*
G01X14603D01*
G01Y-7530D01*
G01X14616Y-7528D01*
G01X14628Y-7527D01*
G01X14777Y-7526D01*
G01X14929Y-7528D01*
G01X14935D01*
G01X14936D01*
G01X14938Y-7529D01*
G01X14946Y-7530D01*
G01X14987D01*
G01X15032D01*
G01Y-7649D01*
G01X14735D01*
G01Y-7740D01*
G01X14736Y-7802D01*
G01X14737Y-7819D01*
G01X14739Y-7830D01*
G01Y-7833D01*
G01X14740Y-7834D01*
G01Y-7835D01*
G01X14741D01*
G01X14747Y-7840D01*
G01X14754Y-7847D01*
G01X14757Y-7849D01*
G01X14767Y-7855D01*
G01X14791Y-7869D01*
G01X14808Y-7877D01*
G01X14816Y-7881D01*
G01X14825Y-7887D01*
G01X14849Y-7897D01*
G01X14861Y-7902D01*
G01X14875Y-7908D01*
G01X14900Y-7916D01*
G01X14910Y-7919D01*
G01X14919Y-7921D01*
G01X14937Y-7925D01*
G01X14948Y-7928D01*
G01X14961Y-7930D01*
G01X14970Y-7931D01*
G01X14991Y-7933D01*
G01X15006Y-7934D01*
G01X15012Y-7935D01*
G01X15016Y-7936D01*
G01X15026Y-7937D01*
G01X15037D01*
G01X15047Y-7936D01*
G01X15051Y-7935D01*
G01X15055Y-7934D01*
G01X15060D01*
G01X15085Y-7933D01*
G01X15094Y-7932D01*
G01X15101Y-7930D01*
G01X15111Y-7928D01*
G01X15126Y-7926D01*
G01X15132Y-7924D01*
G01X15139Y-7922D01*
G01X15151Y-7917D01*
G01X15166Y-7913D01*
G01X15175Y-7910D01*
G01X15191Y-7902D01*
G01X15199Y-7899D01*
G01X15214Y-7893D01*
G01X15226Y-7887D01*
G01X15250Y-7872D01*
G01X15255Y-7868D01*
G01X15261Y-7864D01*
G01X15264Y-7861D01*
G01X15267Y-7856D01*
G01X15269Y-7854D01*
G01X15273Y-7852D01*
G01X15279Y-7849D01*
G01X15281Y-7848D01*
G01X15284Y-7845D01*
G01X15288Y-7839D01*
G01X15294Y-7834D01*
G01X15300Y-7829D01*
G01X15302Y-7826D01*
G01X15305Y-7823D01*
G01X15310Y-7815D01*
G01X15315Y-7808D01*
G01X15318Y-7806D01*
G01X15321Y-7804D01*
G01X15323Y-7801D01*
G01X15325Y-7798D01*
G01X15327Y-7792D01*
G01X15331Y-7786D01*
G01X15343Y-7766D01*
G01X15349Y-7755D01*
G01X15352Y-7749D01*
G01X15357Y-7734D01*
G01X15361Y-7725D01*
G01X15364Y-7720D01*
G01X15366Y-7716D01*
G01X15368Y-7710D01*
G01X15370Y-7698D01*
G01X15372Y-7693D01*
G01X15373Y-7688D01*
G01X15377Y-7678D01*
G01X15379Y-7672D01*
G01X15380Y-7664D01*
G01X15384Y-7639D01*
G01X15385Y-7631D01*
G01X15387Y-7627D01*
G01X15388Y-7619D01*
G01Y-7607D01*
G01X15390Y-7600D01*
G01Y-7598D01*
G01X15391Y-7587D01*
G01X15392Y-7532D01*
G01X15391Y-7477D01*
G01X15390Y-7466D01*
G01X15389Y-7461D01*
G01X15388Y-7454D01*
G01X15387Y-7442D01*
G01X15386Y-7435D01*
G01X15385Y-7431D01*
G01X15383Y-7422D01*
G01X15379Y-7405D01*
G01X15362Y-7352D01*
G01X15355Y-7331D01*
G01X15351Y-7321D01*
G01X15347Y-7313D01*
G01X15341Y-7305D01*
G01X15333Y-7290D01*
G01X15329Y-7284D01*
G01X15320Y-7271D01*
G01X15311Y-7256D01*
G01X15306Y-7250D01*
G01X15302Y-7247D01*
G01X15298Y-7244D01*
G01X15293Y-7238D01*
G01X15286Y-7229D01*
G01X15277Y-7223D01*
G01X15271Y-7217D01*
G01X15267Y-7211D01*
G01X15264Y-7209D01*
G01X15260Y-7206D01*
G01X15249Y-7199D01*
G01X15245Y-7196D01*
G01X15242Y-7193D01*
G01X15235Y-7189D01*
G01X15223Y-7183D01*
G01X15213Y-7176D01*
G01X15208Y-7174D01*
G01X15197Y-7169D01*
G01X15185Y-7165D01*
G01X15169Y-7158D01*
G01X15155Y-7153D01*
G01X15148Y-7151D01*
G01X15141Y-7149D01*
G01X15129Y-7147D01*
G01X15110Y-7144D01*
G01X15098Y-7141D01*
G01X15091Y-7140D01*
G01X15079Y-7139D01*
G01X15072Y-7138D01*
G01X15070Y-7137D01*
G01X15063Y-7136D01*
G01X15036D01*
G01X15027D01*
G01X14996D01*
G01X14985Y-7137D01*
G01X14979Y-7139D01*
G01X14972Y-7140D01*
G01X14960D01*
G01X14953Y-7142D01*
G01X14932Y-7149D01*
G01X14904Y-7157D01*
G01X14893Y-7161D01*
G01X14866Y-7174D01*
G01X14860Y-7178D01*
G01X14853Y-7182D01*
G01X14829Y-7199D01*
G01X14821Y-7205D01*
G01X14813Y-7212D01*
G01X14810Y-7214D01*
G01X14808Y-7217D01*
G01X14806Y-7220D01*
G01X14803Y-7226D01*
G01X14802Y-7228D01*
G01X14799Y-7231D01*
G01X14793Y-7235D01*
G01X14791Y-7238D01*
G01X14789Y-7241D01*
G01X14786Y-7247D01*
G01X14783Y-7253D01*
G01X14777Y-7264D01*
G01X14770Y-7281D01*
G01X14766Y-7289D01*
G01X14762Y-7294D01*
G01X14759Y-7301D01*
G01X14755Y-7314D01*
G01X14750Y-7327D01*
G01X14746Y-7337D01*
G01X14743Y-7352D01*
G01X14728Y-7350D01*
G01X14721Y-7349D01*
G01X14715Y-7347D01*
G01X14707Y-7345D01*
G01X14697Y-7341D01*
G01X14692Y-7339D01*
G01X14675Y-7336D01*
G01X14669Y-7335D01*
G01X14660Y-7332D01*
G01X14651Y-7328D01*
G01X14645Y-7326D01*
G01X14631Y-7324D01*
G01X14628Y-7323D01*
G01X14626Y-7322D01*
G01X14624Y-7321D01*
G01X14621Y-7318D01*
G01X14620Y-7316D01*
G01Y-7310D01*
G01X14621Y-7306D01*
G01X14622Y-7301D01*
G01X14626Y-7292D01*
G01X14629Y-7283D01*
G01X14633Y-7268D01*
G01X14640Y-7252D01*
G01X14646Y-7237D01*
G01X14649Y-7229D01*
G01X14653Y-7220D01*
G01X14658Y-7211D01*
G01X14665Y-7196D01*
G01X14668Y-7191D01*
G01X14671Y-7186D01*
G01X14683Y-7169D01*
G01X14693Y-7154D01*
G01X14698Y-7148D01*
G01X14701Y-7146D01*
G01X14706Y-7142D01*
G01X14711Y-7136D01*
G01X14718Y-7128D01*
G01X14727Y-7121D01*
G01X14733Y-7116D01*
G01X14737Y-7109D01*
G01X14739Y-7107D01*
G01X14742Y-7105D01*
G01X14748Y-7103D01*
G01X14751Y-7101D01*
G01X14758Y-7095D01*
G01X14765Y-7091D01*
G01X14775Y-7086D01*
G01X14781Y-7082D01*
G01X14790Y-7075D01*
G01X14796Y-7072D01*
G01X14801Y-7070D01*
G01X14810Y-7067D01*
G01X14817Y-7064D01*
G01X14825Y-7059D01*
G01X14834Y-7055D01*
G01X14854Y-7047D01*
G01X14857Y-7046D01*
G01X14885Y-7038D01*
G01X14897Y-7035D01*
G01X14909Y-7033D01*
G01X14931Y-7030D01*
G01X14944Y-7027D01*
G01X14952Y-7026D01*
G01X14967Y-7025D01*
G01X14973Y-7024D01*
G01X14977Y-7023D01*
G01X14987Y-7022D01*
G01X15040Y-7021D01*
G01X15094Y-7022D01*
G01X15104Y-7023D01*
G01X15109Y-7024D01*
G01X15118Y-7025D01*
G01X15132Y-7026D01*
G01X15138Y-7027D01*
G01X15143Y-7029D01*
G01X15154Y-7031D01*
G01X15173Y-7034D01*
G01X15182Y-7036D01*
G01X15227Y-7051D01*
G01X15247Y-7058D01*
G01X15271Y-7068D01*
G01X15279Y-7071D01*
G01X15287Y-7075D01*
G01X15295Y-7081D01*
G01X15310Y-7088D01*
G01X15316Y-7092D01*
G01X15329Y-7102D01*
G01X15346Y-7113D01*
G01X15353Y-7118D01*
G01X15361Y-7125D01*
G01X15368Y-7129D01*
G01X15373Y-7135D01*
G01X15380Y-7143D01*
G01X15389Y-7151D01*
G01X15394Y-7156D01*
G01X15401Y-7165D01*
G01X15407Y-7169D01*
G01X15412Y-7174D01*
G01X15414Y-7177D01*
G01X15417Y-7183D01*
G01X15418Y-7186D01*
G01X15420Y-7189D01*
G01X15424Y-7193D01*
G01X15431Y-7201D01*
G01X15445Y-7223D01*
G01X15449Y-7229D01*
G01X15456Y-7241D01*
G01X15462Y-7252D01*
G01X15464Y-7256D01*
G01X15472Y-7273D01*
G01X15476Y-7281D01*
G01X15479Y-7285D01*
G01X15482Y-7293D01*
G01X15486Y-7306D01*
G01X15493Y-7321D01*
G01X15498Y-7335D01*
G01X15507Y-7360D01*
G01X15510Y-7370D01*
G01X15512Y-7380D01*
G01X15515Y-7397D01*
G01X15518Y-7409D01*
G01X15520Y-7419D01*
G01X15521Y-7426D01*
G01X15527Y-7459D01*
G01X15528Y-7471D01*
G01X15529Y-7479D01*
G01X15530Y-7486D01*
G01X15531Y-7488D01*
G01Y-7498D01*
G01X15532Y-7549D01*
G01X15531Y-7601D01*
G01Y-7611D01*
G01X15529Y-7616D01*
G01X15528Y-7625D01*
G01Y-7639D01*
G01X15527Y-7645D01*
G01X15524Y-7651D01*
G01X15522Y-7663D01*
G01X15519Y-7685D01*
G01X15517Y-7694D01*
G01X15511Y-7715D01*
G01X15503Y-7742D01*
G01X15498Y-7754D01*
G01X15491Y-7770D01*
G01X15485Y-7785D01*
G01X15482Y-7793D01*
G01X15478Y-7802D01*
G01X15473Y-7811D01*
G01X15464Y-7827D01*
G01X15449Y-7851D01*
G01X15444Y-7858D01*
G01X15435Y-7872D01*
G01X15424Y-7885D01*
G01X15420Y-7892D01*
G01X15414Y-7897D01*
G01X15408Y-7902D01*
G01X15402Y-7908D01*
G01X15392Y-7920D01*
G01X15387Y-7924D01*
G01X15383Y-7927D01*
G01X15378Y-7932D01*
G01X15373Y-7939D01*
G01X15370Y-7942D01*
G01X15365Y-7945D01*
G01X15353Y-7953D01*
G01X15347Y-7958D01*
G01X15343Y-7961D01*
G01X15340Y-7963D01*
G01X15330Y-7970D01*
G01X15297Y-7990D01*
G01X15289Y-7995D01*
G01X15281Y-7999D01*
G01X15268Y-8005D01*
G01X15260Y-8009D01*
G01X15255Y-8012D01*
G01X15248Y-8015D01*
G01X15235Y-8019D01*
G01X15222Y-8024D01*
G01X15213Y-8027D01*
G01X15198Y-8031D01*
G01X15165Y-8041D01*
G01X15158Y-8043D01*
G01X15146Y-8045D01*
G01X15128Y-8048D01*
G01X15115Y-8051D01*
G01X15108Y-8052D01*
G01X15096Y-8053D01*
G01X15089Y-8054D01*
G01X15085Y-8055D01*
G01X15077Y-8056D01*
G01X15036Y-8057D01*
G01X15028D01*
G01X15026Y-8058D01*
G01X15025D01*
G01X15024Y-8059D01*
G01X15021D01*
G01X15012Y-8058D01*
G01X15006Y-8057D01*
G01X14994Y-8056D01*
G01X14958D01*
G01X14947Y-8055D01*
G01X14941Y-8053D01*
G01X14934Y-8052D01*
G01X14922Y-8051D01*
G01X14911Y-8049D01*
G01X14901Y-8047D01*
G01X14881Y-8044D01*
G01X14872Y-8042D01*
G01X14803Y-8018D01*
G01X14791Y-8014D01*
G01X14770Y-8005D01*
G01X14755Y-7998D01*
G01X14747Y-7994D01*
G01X14738Y-7988D01*
G01X14721Y-7981D01*
G01X14713Y-7977D01*
G01X14653Y-7940D01*
G01X14647Y-7934D01*
G01X14643Y-7931D01*
G01X14640Y-7928D01*
G01X14624Y-7918D01*
G01X14617Y-7913D01*
G01X14608Y-7903D01*
G01X14607Y-7900D01*
G01X14604Y-7875D01*
G01X14603Y-7715D01*
G01X14412D01*
G01Y-8039D01*
G01X14280D01*
G01Y-7653D01*
G01X14278Y-7282D01*
G01X14277Y-7271D01*
G01Y-7269D01*
G01X14276D01*
G01X14274Y-7271D01*
G01X14272Y-7274D01*
G01X14269Y-7277D01*
G01X14258Y-7294D01*
G01X14247Y-7310D01*
G01X14232Y-7332D01*
G01X14221Y-7348D01*
G01X14207Y-7371D01*
G01X14196Y-7386D01*
G01X14181Y-7409D01*
G01X14170Y-7425D01*
G01X14156Y-7447D01*
G01X14145Y-7463D01*
G01X14131Y-7485D01*
G01X14119Y-7501D01*
G01X14105Y-7523D01*
G01X14094Y-7539D01*
G01X14080Y-7562D01*
G01X14069Y-7577D01*
G01X14054Y-7600D01*
G01X14043Y-7615D01*
G01X14029Y-7638D01*
G01X14018Y-7654D01*
G01X14004Y-7676D01*
G01X13992Y-7692D01*
G01X13978Y-7714D01*
G01X13966Y-7730D01*
G01X13952Y-7753D01*
G01X13941Y-7768D01*
G01X13927Y-7791D01*
G01X13916Y-7806D01*
G01X13901Y-7829D01*
G01X13890Y-7845D01*
G01X13876Y-7867D01*
G01X13865Y-7883D01*
G01X13851Y-7905D01*
G01X13839Y-7921D01*
G01X13825Y-7944D01*
G01X13814Y-7959D01*
G01X13800Y-7982D01*
G01X13789Y-7997D01*
G01X13774Y-8020D01*
G01X13766Y-8030D01*
G01X13763Y-8034D01*
G01X13760Y-8036D01*
G01X13758Y-8037D01*
G01X13757D01*
G01X13754Y-8038D01*
G01X13743Y-8039D01*
G01X13685D01*
G01X13619D01*
G01Y-7038D01*
G01X13398D01*
G01Y-8039D01*
G01X13175D01*
G01X12952Y-8038D01*
G01X12947D01*
G01X12946Y-8037D01*
G01X12943Y-8036D01*
G01X12935Y-8035D01*
G01X12920D01*
G01X12914Y-8034D01*
G01X12909Y-8032D01*
G01X12898Y-8030D01*
G01X12878Y-8026D01*
G01X12870Y-8024D01*
G01X12825Y-8010D01*
G01X12805Y-8002D01*
G01X12795Y-7998D01*
G01X12787Y-7994D01*
G01X12751Y-7972D01*
G01X12739Y-7963D01*
G01X12734Y-7959D01*
G01X12723Y-7950D01*
G01X12717Y-7944D01*
G01X12709Y-7937D01*
G01X12706Y-7935D01*
G01X12704Y-7933D01*
G01X12702Y-7930D01*
G01X12699Y-7924D01*
G01X12695Y-7919D01*
G01X12689Y-7914D01*
G01X12685Y-7911D01*
G01X12682Y-7907D01*
G01X12676Y-7896D01*
G01X12671Y-7891D01*
G01X12668Y-7888D01*
G01X12663Y-7884D01*
G01X12661Y-7881D01*
G01X12659Y-7878D01*
G01X12657Y-7870D01*
G01X12655Y-7866D01*
G01X12654Y-7863D01*
G01X12649Y-7859D01*
G01X12647Y-7855D01*
G01X12641Y-7846D01*
G01X12637Y-7838D01*
G01X12632Y-7830D01*
G01X12624Y-7810D01*
G01X12617Y-7795D01*
G01X12613Y-7787D01*
G01X12606Y-7767D01*
G01X12596Y-7738D01*
G01X12593Y-7729D01*
G01X12591Y-7719D01*
G01X12588Y-7701D01*
G01X12585Y-7690D01*
G01X12583Y-7679D01*
G01X12582Y-7672D01*
G01X12576Y-7639D01*
G01X12575Y-7628D01*
G01Y-7620D01*
G01X12573Y-7613D01*
G01X12572Y-7608D01*
G01X12571Y-7600D01*
G01X12570Y-7546D01*
G01X12569Y-7537D01*
G01Y-7535D01*
G01X12568Y-7532D01*
G01X12036D01*
G01X12037Y-7545D01*
G01X12036Y-7600D01*
G01X12035Y-7611D01*
G01X12034Y-7616D01*
G01X12032Y-7624D01*
G01X12031Y-7636D01*
G01X12029Y-7646D01*
G01X12027Y-7658D01*
G01X12024Y-7680D01*
G01X12021Y-7689D01*
G01X12015Y-7710D01*
G01X12010Y-7730D01*
G01X12008Y-7741D01*
G01X12005Y-7751D01*
G01X11999Y-7764D01*
G01X11995Y-7776D01*
G01X11992Y-7785D01*
G01X11986Y-7797D01*
G01X11982Y-7810D01*
G01X11979Y-7818D01*
G01X11973Y-7828D01*
G01X11966Y-7843D01*
G01X11964Y-7848D01*
G01X11961Y-7853D01*
G01X11952Y-7866D01*
G01X11934Y-7893D01*
G01X11926Y-7905D01*
G01X11918Y-7915D01*
G01X11914Y-7919D01*
G01X11909Y-7924D01*
G01X11904Y-7927D01*
G01X11902Y-7929D01*
G01X11900Y-7932D01*
G01X11897Y-7939D01*
G01X11895Y-7941D01*
G01X11892Y-7944D01*
G01X11884Y-7948D01*
G01X11881Y-7951D01*
G01X11878Y-7954D01*
G01X11873Y-7960D01*
G01X11867Y-7965D01*
G01X11850Y-7978D01*
G01X11840Y-7984D01*
G01X11810Y-8003D01*
G01X11806Y-8006D01*
G01X11789Y-8013D01*
G01X11782Y-8017D01*
G01X11776Y-8020D01*
G01X11772Y-8022D01*
G01X11761Y-8026D01*
G01X11735Y-8035D01*
G01X11726Y-8038D01*
G01X11716Y-8040D01*
G01X11699Y-8044D01*
G01X11687Y-8047D01*
G01X11676Y-8049D01*
G01X11669Y-8050D01*
G01X11640Y-8054D01*
G01X11627Y-8055D01*
G01X11606Y-8056D01*
G01X11583D01*
G01X11575Y-8057D01*
G01X11573Y-8058D01*
G01X11572D01*
G01X11570Y-8059D01*
G01X11562D01*
G01X11543Y-8057D01*
G01X11505Y-8056D01*
G01X11498Y-8055D01*
G01X11492Y-8054D01*
G01X11487Y-8053D01*
G01X11476Y-8051D01*
G01X11460Y-8049D01*
G01X11453Y-8047D01*
G01X11445Y-8045D01*
G01X11438Y-8042D01*
G01X11433Y-8040D01*
G01X11427Y-8039D01*
G01X11415Y-8036D01*
G01X11408Y-8034D01*
G01X11404Y-8032D01*
G01X11395Y-8027D01*
G01X11383Y-8023D01*
G01X11376Y-8020D01*
G01X11365Y-8014D01*
G01X11350Y-8008D01*
G01X11345Y-8005D01*
G01X11341Y-8002D01*
G01X11327Y-7993D01*
G01X11310Y-7982D01*
G01X11304Y-7977D01*
G01X11295Y-7970D01*
G01X11289Y-7965D01*
G01X11284Y-7960D01*
G01X11277Y-7951D01*
G01X11267Y-7944D01*
G01X11262Y-7939D01*
G01X11255Y-7929D01*
G01X11250Y-7925D01*
G01X11247Y-7923D01*
G01X11244Y-7920D01*
G01X11242Y-7917D01*
G01X11240Y-7911D01*
G01X11238Y-7909D01*
G01X11235Y-7906D01*
G01X11229Y-7901D01*
G01X11227Y-7899D01*
G01X11225Y-7896D01*
G01X11223Y-7890D01*
G01X11218Y-7882D01*
G01X11213Y-7874D01*
G01X11210Y-7869D01*
G01X11207Y-7864D01*
G01X11200Y-7850D01*
G01X11198Y-7847D01*
G01X11194Y-7841D01*
G01X11192Y-7838D01*
G01X11190Y-7833D01*
G01X11185Y-7819D01*
G01X11181Y-7810D01*
G01X11178Y-7804D01*
G01X11175Y-7800D01*
G01X11171Y-7789D01*
G01X11162Y-7764D01*
G01X11154Y-7736D01*
G01X11150Y-7721D01*
G01X10734D01*
G01Y-8039D01*
G01X10598D01*
G01Y-7157D01*
G01X10267D01*
G01Y-7038D01*
G01X10132D01*
G01Y-8039D01*
G01X9996D01*
G01Y-7598D01*
G01X9886D01*
G01X9790Y-7600D01*
G01X9776Y-7601D01*
G01X9769Y-7602D01*
G01X9767D01*
G01X9762Y-7604D01*
G01X9753Y-7607D01*
G01X9742Y-7610D01*
G01X9736Y-7612D01*
G01X9732Y-7614D01*
G01X9713Y-7626D01*
G01X9706Y-7631D01*
G01X9693Y-7640D01*
G01X9688Y-7645D01*
G01X9683Y-7648D01*
G01X9679Y-7654D01*
G01X9675Y-7659D01*
G01X9670Y-7664D01*
G01X9664Y-7669D01*
G01X9661Y-7672D01*
G01X9658Y-7676D01*
G01X9651Y-7686D01*
G01X9646Y-7692D01*
G01X9643Y-7695D01*
G01X9639Y-7698D01*
G01X9636Y-7700D01*
G01X9634Y-7703D01*
G01X9632Y-7709D01*
G01X9631Y-7712D01*
G01X9629Y-7714D01*
G01X9622Y-7723D01*
G01X9612Y-7739D01*
G01X9607Y-7745D01*
G01X9603Y-7749D01*
G01X9601Y-7753D01*
G01X9587Y-7774D01*
G01X9576Y-7790D01*
G01X9562Y-7812D01*
G01X9550Y-7828D01*
G01X9544Y-7838D01*
G01X9531Y-7859D01*
G01X9523Y-7871D01*
G01X9514Y-7885D01*
G01X9510Y-7891D01*
G01X9505Y-7901D01*
G01X9491Y-7921D01*
G01X9484Y-7931D01*
G01X9472Y-7952D01*
G01X9464Y-7965D01*
G01X9455Y-7978D01*
G01X9451Y-7984D01*
G01X9445Y-7995D01*
G01X9441Y-8001D01*
G01X9432Y-8014D01*
G01X9422Y-8029D01*
G01X9419Y-8033D01*
G01X9416Y-8036D01*
G01X9414Y-8037D01*
G01X9412D01*
G01X9410Y-8038D01*
G01X9397Y-8039D01*
G01X9325D01*
G01X9245D01*
G01X9126D01*
G01X8498D01*
G01X7510D01*
G01Y-9287D01*
G01X7569D01*
G01X7582Y-9285D01*
G01X7593Y-9282D01*
G01X7622Y-9274D01*
G01X7636Y-9270D01*
G01X7661Y-9265D01*
G01X7690Y-9257D01*
G01X7705Y-9253D01*
G01X7709Y-9267D01*
G01X7714Y-9287D01*
G01X7717Y-9298D01*
G01X7720Y-9308D01*
G01X7725Y-9319D01*
G01X7730Y-9333D01*
G01X7733Y-9342D01*
G01X7738Y-9351D01*
G01X7743Y-9359D01*
G01X7751Y-9374D01*
G01X7755Y-9380D01*
G01X7764Y-9393D01*
G01X7774Y-9408D01*
G01X7778Y-9414D01*
G01X7782Y-9417D01*
G01X7787Y-9420D01*
G01X7792Y-9425D01*
G01X7799Y-9435D01*
G01X7804Y-9439D01*
G01X7817Y-9448D01*
G01X7829Y-9458D01*
G01X7838Y-9464D01*
G01X7849Y-9469D01*
G01X7859Y-9475D01*
G01X7863Y-9478D01*
G01X7872Y-9482D01*
G01X7894Y-9490D01*
G01X7899Y-9492D01*
G01X7905Y-9494D01*
G01X7911Y-9496D01*
G01X7928Y-9499D01*
G01X7940Y-9502D01*
G01X7953Y-9504D01*
G01X7961Y-9505D01*
G01X7977Y-9506D01*
G01X8007Y-9507D01*
G01X8032D01*
G01X8043Y-9506D01*
G01X8050Y-9504D01*
G01X8061Y-9502D01*
G01X8075Y-9500D01*
G01X8081Y-9498D01*
G01X8089Y-9496D01*
G01X8100Y-9491D01*
G01X8110Y-9488D01*
G01X8115Y-9487D01*
G01X8121Y-9485D01*
G01X8125Y-9483D01*
G01X8135Y-9478D01*
G01X8151Y-9470D01*
G01X8159Y-9466D01*
G01X8185Y-9450D01*
G01X8192Y-9445D01*
G01X8200Y-9437D01*
G01X8206Y-9433D01*
G01X8212Y-9427D01*
G01X8219Y-9419D01*
G01X8225Y-9414D01*
G01X8228Y-9411D01*
G01X8231Y-9408D01*
G01X8234Y-9404D01*
G01X8245Y-9387D01*
G01X8257Y-9371D01*
G01X8266Y-9356D01*
G01X8268Y-9351D01*
G01X8274Y-9334D01*
G01X8280Y-9323D01*
G01X8282Y-9319D01*
G01X8286Y-9308D01*
G01X8295Y-9282D01*
G01X8298Y-9273D01*
G01X8300Y-9262D01*
G01X8303Y-9242D01*
G01X8307Y-9226D01*
G01X8309Y-9217D01*
G01X8311Y-9204D01*
G01X8318Y-9153D01*
G01X8319Y-9143D01*
G01X8320Y-9103D01*
G01Y-9092D01*
G01Y-9052D01*
G01X8319Y-9041D01*
G01X8317Y-9035D01*
G01X8316Y-9027D01*
G01X8315Y-9012D01*
G01X8312Y-9001D01*
G01X8310Y-8989D01*
G01X8307Y-8967D01*
G01X8305Y-8958D01*
G01X8299Y-8937D01*
G01X8291Y-8909D01*
G01X8283Y-8888D01*
G01X8275Y-8871D01*
G01X8273Y-8867D01*
G01X8267Y-8855D01*
G01X8263Y-8847D01*
G01X8250Y-8826D01*
G01X8247Y-8821D01*
G01X8242Y-8815D01*
G01X8239Y-8813D01*
G01X8234Y-8809D01*
G01X8232Y-8806D01*
G01X8229Y-8803D01*
G01X8225Y-8795D01*
G01X8222Y-8791D01*
G01X8219Y-8788D01*
G01X8204Y-8777D01*
G01X8199Y-8773D01*
G01X8188Y-8765D01*
G01X8178Y-8756D01*
G01X8170Y-8750D01*
G01X8148Y-8737D01*
G01X8143Y-8734D01*
G01X8138Y-8732D01*
G01X8134Y-8730D01*
G01X8121Y-8726D01*
G01X8108Y-8720D01*
G01X8103Y-8719D01*
G01X8097Y-8717D01*
G01X8080Y-8714D01*
G01X8065Y-8710D01*
G01X8055Y-8708D01*
G01X8047Y-8706D01*
G01X8036D01*
G01X8028Y-8705D01*
G01X8021Y-8703D01*
G01X8016D01*
G01X8009Y-8702D01*
G01X7985Y-8701D01*
G01X7963Y-8702D01*
G01X7952Y-8703D01*
G01X7946Y-8704D01*
G01X7938Y-8705D01*
G01X7926Y-8706D01*
G01X7912Y-8710D01*
G01X7897Y-8713D01*
G01X7887Y-8716D01*
G01X7876Y-8721D01*
G01X7862Y-8726D01*
G01X7856Y-8729D01*
G01X7849Y-8732D01*
G01X7846Y-8734D01*
G01X7839Y-8740D01*
G01X7823Y-8750D01*
G01X7817Y-8755D01*
G01X7807Y-8762D01*
G01X7801Y-8767D01*
G01X7796Y-8772D01*
G01X7785Y-8787D01*
G01X7781Y-8792D01*
G01X7773Y-8803D01*
G01X7756Y-8831D01*
G01X7752Y-8838D01*
G01X7744Y-8855D01*
G01X7740Y-8863D01*
G01X7737Y-8868D01*
G01X7734Y-8875D01*
G01X7730Y-8888D01*
G01X7726Y-8896D01*
G01X7724Y-8900D01*
G01X7721Y-8903D01*
G01X7720Y-8904D01*
G01X7717Y-8906D01*
G01X7716Y-8907D01*
G01X7712Y-8908D01*
G01X7707Y-8907D01*
G01X7701D01*
G01X7683Y-8902D01*
G01X7672Y-8900D01*
G01X7652Y-8896D01*
G01X7643Y-8894D01*
G01X7622Y-8888D01*
G01X7599Y-8881D01*
G01X7595Y-8880D01*
G01X7593Y-8878D01*
G01X7591Y-8875D01*
G01Y-8871D01*
G01Y-8867D01*
G01X7592Y-8863D01*
G01X7593Y-8858D01*
G01X7598Y-8847D01*
G01X7603Y-8833D01*
G01X7607Y-8821D01*
G01X7617Y-8800D01*
G01X7622Y-8787D01*
G01X7626Y-8782D01*
G01X7628Y-8779D01*
G01X7631Y-8775D01*
G01X7635Y-8769D01*
G01X7639Y-8760D01*
G01X7642Y-8756D01*
G01X7650Y-8746D01*
G01X7660Y-8732D01*
G01X7667Y-8723D01*
G01X7673Y-8716D01*
G01X7679Y-8708D01*
G01X7684Y-8702D01*
G01X7693Y-8694D01*
G01X7698Y-8689D01*
G01X7703Y-8683D01*
G01X7705Y-8681D01*
G01X7708Y-8679D01*
G01X7714Y-8677D01*
G01X7717Y-8675D01*
G01X7720Y-8672D01*
G01X7724Y-8666D01*
G01X7727Y-8664D01*
G01X7729Y-8662D01*
G01X7735Y-8660D01*
G01X7738Y-8658D01*
G01X7741Y-8656D01*
G01X7749Y-8650D01*
G01X7758Y-8644D01*
G01X7766Y-8640D01*
G01X7774Y-8635D01*
G01X7787Y-8630D01*
G01X7794Y-8626D01*
G01X7800Y-8623D01*
G01X7804Y-8621D01*
G01X7815Y-8616D01*
G01X7827Y-8612D01*
G01X7838Y-8607D01*
G01X7844Y-8605D01*
G01X7850Y-8603D01*
G01X7872Y-8599D01*
G01X7885Y-8596D01*
G01X7895Y-8594D01*
G01X7902Y-8593D01*
G01X7932Y-8589D01*
G01X7939Y-8588D01*
G01X7964Y-8587D01*
G01X7997D01*
G01X8042D01*
G01X8053Y-8588D01*
G01X8054Y-8589D01*
G01X8058Y-8590D01*
G01X8066Y-8591D01*
G01X8078D01*
G01X8085Y-8593D01*
G01X8088Y-8594D01*
G01X8098Y-8596D01*
G01X8115Y-8599D01*
G01X8127Y-8603D01*
G01X8643D01*
G01X8770D01*
G01Y-8992D01*
G01X8773Y-9365D01*
G01Y-9376D01*
G01X8774Y-9377D01*
G01Y-9378D01*
G01X8776Y-9376D01*
G01X8779Y-9374D01*
G01X8781Y-9370D01*
G01X8792Y-9353D01*
G01X8804Y-9337D01*
G01X8818Y-9315D01*
G01X8829Y-9299D01*
G01X8843Y-9276D01*
G01X8854Y-9261D01*
G01X8869Y-9238D01*
G01X8880Y-9222D01*
G01X8895Y-9200D01*
G01X8905Y-9184D01*
G01X8920Y-9162D01*
G01X8931Y-9146D01*
G01X8945Y-9124D01*
G01X8957Y-9108D01*
G01X8971Y-9086D01*
G01X8982Y-9070D01*
G01X8996Y-9047D01*
G01X9007Y-9032D01*
G01X9022Y-9009D01*
G01X9033Y-8993D01*
G01X9047Y-8971D01*
G01X9058Y-8955D01*
G01X9072Y-8933D01*
G01X9084Y-8917D01*
G01X9098Y-8895D01*
G01X9109Y-8879D01*
G01X9124Y-8856D01*
G01X9134Y-8841D01*
G01X9149Y-8818D01*
G01X9181Y-8773D01*
G01X9195Y-8750D01*
G01X9206Y-8735D01*
G01X9221Y-8712D01*
G01X9232Y-8696D01*
G01X9247Y-8674D01*
G01X9258Y-8658D01*
G01X9272Y-8635D01*
G01X9277Y-8629D01*
G01X9289Y-8612D01*
G01X9292Y-8610D01*
G01X9296Y-8609D01*
G01X9303Y-8607D01*
G01X9311Y-8606D01*
G01X9333Y-8604D01*
G01X9363Y-8603D01*
G01X9432D01*
G01X9550D01*
G01X9629D01*
G01X9672Y-8605D01*
G01X9689Y-8606D01*
G01X9697Y-8607D01*
G01X9705Y-8609D01*
G01X9708Y-8610D01*
G01X9710D01*
G01X9711Y-8612D01*
G01X9715Y-8618D01*
G01X9719Y-8625D01*
G01X9729Y-8638D01*
G01X9743Y-8660D01*
G01X9754Y-8676D01*
G01X9768Y-8698D01*
G01X9780Y-8714D01*
G01X9794Y-8737D01*
G01X9805Y-8753D01*
G01X9832Y-8797D01*
G01X9840Y-8809D01*
G01X9852Y-8824D01*
G01X9866Y-8847D01*
G01X9877Y-8863D01*
G01X9891Y-8885D01*
G01X9902Y-8901D01*
G01X9909Y-8911D01*
G01X9922Y-8932D01*
G01X9929Y-8945D01*
G01X9939Y-8958D01*
G01X9943Y-8964D01*
G01X9948Y-8975D01*
G01X9952Y-8981D01*
G01X9960Y-8992D01*
G01X9964Y-8998D01*
G01X9971Y-9010D01*
G01X9985Y-9034D01*
G01X9998Y-9056D01*
G01X10003Y-9062D01*
G01X10004Y-9063D01*
G01X10006Y-9064D01*
G01X10008D01*
G01X10009D01*
G01X10011D01*
G01X10014Y-9062D01*
G01X10016Y-9060D01*
G01X10018Y-9057D01*
G01X10020Y-9050D01*
G01X10022Y-9046D01*
G01X10023Y-9043D01*
G01X10027Y-9038D01*
G01X10032Y-9031D01*
G01X10038Y-9016D01*
G01X10040Y-9013D01*
G01X10043Y-9011D01*
G01X10045Y-9008D01*
G01X10049Y-9001D01*
G01X10055Y-8987D01*
G01X10057Y-8983D01*
G01X10061Y-8978D01*
G01X10064Y-8975D01*
G01X10070Y-8966D01*
G01X10083Y-8945D01*
G01X10104Y-8911D01*
G01X10112Y-8899D01*
G01X10123Y-8883D01*
G01X10151Y-8839D01*
G01X10158Y-8826D01*
G01X10170Y-8811D01*
G01X10184Y-8788D01*
G01X10195Y-8773D01*
G01X10223Y-8729D01*
G01X10231Y-8716D01*
G01X10242Y-8701D01*
G01X10256Y-8678D01*
G01X10267Y-8662D01*
G01X10295Y-8618D01*
G01X10298Y-8614D01*
G01X10300Y-8612D01*
G01X10304Y-8609D01*
G01X10307Y-8607D01*
G01X10309D01*
G01X10312Y-8606D01*
G01X10315Y-8605D01*
G01X10338Y-8604D01*
G01X10397Y-8603D01*
G01X10471D01*
G01X10465Y-8614D01*
G01X10457Y-8627D01*
G01X10445Y-8642D01*
G01X10431Y-8665D01*
G01X10420Y-8681D01*
G01X10406Y-8703D01*
G01X10395Y-8719D01*
G01X10380Y-8741D01*
G01X10369Y-8757D01*
G01X10355Y-8779D01*
G01X10344Y-8795D01*
G01X10329Y-8817D01*
G01X10318Y-8833D01*
G01X10304Y-8855D01*
G01X10272Y-8901D01*
G01X10257Y-8924D01*
G01X10246Y-8939D01*
G01X10232Y-8962D01*
G01X10220Y-8977D01*
G01X10206Y-9000D01*
G01X10195Y-9015D01*
G01X10181Y-9038D01*
G01X10170Y-9054D01*
G01X10155Y-9076D01*
G01X10144Y-9092D01*
G01X10130Y-9115D01*
G01X10119Y-9130D01*
G01X10105Y-9153D01*
G01X10095Y-9166D01*
G01X10091Y-9172D01*
G01X10089Y-9177D01*
G01X10088Y-9178D01*
G01Y-9182D01*
G01X10087Y-9201D01*
G01X10086Y-9318D01*
G01X10544D01*
G01X10545Y-9313D01*
G01X10547Y-9292D01*
G01X10548Y-9278D01*
G01X10549Y-9271D01*
G01X10552Y-9260D01*
G01X10555Y-9246D01*
G01X10558Y-9236D01*
G01X10564Y-9223D01*
G01X10567Y-9213D01*
G01X10568Y-9208D01*
G01X10570Y-9204D01*
G01X10580Y-9191D01*
G01X10583Y-9185D01*
G01X10588Y-9177D01*
G01X10590Y-9173D01*
G01X10593Y-9170D01*
G01X10599Y-9165D01*
G01X10601Y-9163D01*
G01X10603Y-9160D01*
G01X10606Y-9154D01*
G01X10608Y-9152D01*
G01X10610Y-9149D01*
G01X10616Y-9145D01*
G01X10621Y-9139D01*
G01X10626Y-9133D01*
G01X10629Y-9130D01*
G01X10632Y-9128D01*
G01X10644Y-9121D01*
G01X10648Y-9118D01*
G01X10652Y-9115D01*
G01X10655Y-9112D01*
G01X10664Y-9106D01*
G01X10688Y-9092D01*
G01X10705Y-9084D01*
G01X10713Y-9080D01*
G01X10718Y-9076D01*
G01X10723Y-9074D01*
G01X10734Y-9070D01*
G01X10746Y-9066D01*
G01X10759Y-9060D01*
G01X10765Y-9058D01*
G01X10770Y-9057D01*
G01X10782Y-9054D01*
G01X10788Y-9053D01*
G01X10793Y-9051D01*
G01X10802Y-9047D01*
G01X10807Y-9045D01*
G01X10813Y-9044D01*
G01X10830Y-9040D01*
G01X10859Y-9032D01*
G01X10873Y-9028D01*
G01X10898Y-9024D01*
G01X10909Y-9021D01*
G01X10919Y-9019D01*
G01X10936Y-9015D01*
G01X10965Y-9007D01*
G01X10979Y-9003D01*
G01X11004Y-8998D01*
G01X11082Y-8973D01*
G01X11091Y-8969D01*
G01X11099Y-8965D01*
G01X11108Y-8960D01*
G01X11123Y-8953D01*
G01X11127Y-8951D01*
G01X11130Y-8948D01*
G01X11133Y-8945D01*
G01X11137Y-8939D01*
G01X11143Y-8935D01*
G01X11147Y-8932D01*
G01X11150Y-8929D01*
G01X11153Y-8925D01*
G01X11161Y-8912D01*
G01X11164Y-8904D01*
G01X11167Y-8899D01*
G01X11169Y-8893D01*
G01X11170Y-8887D01*
G01X11172Y-8880D01*
G01X11173Y-8873D01*
G01X11174Y-8862D01*
G01X11175Y-8849D01*
G01Y-8833D01*
G01X11173Y-8823D01*
G01X11172Y-8818D01*
G01X11166Y-8804D01*
G01X11160Y-8791D01*
G01X11157Y-8786D01*
G01X11155Y-8783D01*
G01X11148Y-8774D01*
G01X11143Y-8768D01*
G01X11138Y-8763D01*
G01X11129Y-8756D01*
G01X11122Y-8750D01*
G01X11119Y-8747D01*
G01X11109Y-8742D01*
G01X11093Y-8731D01*
G01X11089Y-8729D01*
G01X11085Y-8727D01*
G01X11080Y-8726D01*
G01X11070Y-8723D01*
G01X11061Y-8720D01*
G01X11052Y-8716D01*
G01X11048Y-8715D01*
G01X11044Y-8714D01*
G01X11035D01*
G01X11028Y-8713D01*
G01X11021Y-8711D01*
G01X11008Y-8709D01*
G01X10999Y-8708D01*
G01X10985Y-8707D01*
G01X10938Y-8706D01*
G01X10903D01*
G01X10891Y-8707D01*
G01X10885Y-8709D01*
G01X10878Y-8710D01*
G01X10866D01*
G01X10859Y-8712D01*
G01X10840Y-8718D01*
G01X10819Y-8725D01*
G01X10809Y-8730D01*
G01X10802Y-8734D01*
G01X10783Y-8746D01*
G01X10778Y-8749D01*
G01X10772Y-8754D01*
G01X10769Y-8757D01*
G01X10766Y-8761D01*
G01X10760Y-8767D01*
G01X10751Y-8774D01*
G01X10749Y-8778D01*
G01X10743Y-8788D01*
G01X10739Y-8794D01*
G01X10733Y-8803D01*
G01X10730Y-8808D01*
G01X10725Y-8818D01*
G01X10718Y-8838D01*
G01X10714Y-8851D01*
G01X10712Y-8862D01*
G01X10710Y-8876D01*
G01X10707Y-8884D01*
G01X10704Y-8890D01*
G01X10702Y-8893D01*
G01X10697Y-8895D01*
G01X10692Y-8896D01*
G01X10675D01*
G01X10667Y-8895D01*
G01X10664Y-8894D01*
G01X10660Y-8893D01*
G01X10654D01*
G01X10637Y-8892D01*
G01X10623D01*
G01X10616Y-8891D01*
G01X10610Y-8890D01*
G01X10605Y-8889D01*
G01X10600Y-8888D01*
G01X10588D01*
G01X10573D01*
G01X10576Y-8872D01*
G01X10577Y-8866D01*
G01Y-8848D01*
G01X10578Y-8838D01*
G01X10586Y-8814D01*
G01X10594Y-8786D01*
G01X10598Y-8774D01*
G01X10602Y-8765D01*
G01X10609Y-8753D01*
G01X10613Y-8746D01*
G01X10621Y-8731D01*
G01X10626Y-8723D01*
G01X10628Y-8719D01*
G01X10631Y-8716D01*
G01X10634Y-8714D01*
G01X10637Y-8712D01*
G01X10640Y-8709D01*
G01X10642Y-8706D01*
G01X10644Y-8700D01*
G01X10648Y-8695D01*
G01X10654Y-8690D01*
G01X10659Y-8685D01*
G01X10666Y-8676D01*
G01X10673Y-8672D01*
G01X10696Y-8654D01*
G01X10727Y-8635D01*
G01X10731Y-8633D01*
G01X10755Y-8623D01*
G01X10768Y-8617D01*
G01X10781Y-8613D01*
G01X10789Y-8610D01*
G01X10798Y-8606D01*
G01X10804Y-8604D01*
G01X10811Y-8602D01*
G01X10833Y-8599D01*
G01X10846Y-8596D01*
G01X10856Y-8594D01*
G01X10864Y-8593D01*
G01X10893Y-8589D01*
G01X10900Y-8588D01*
G01X10927Y-8587D01*
G01X10961D01*
G01X11007D01*
G01X11018Y-8588D01*
G01X11020Y-8589D01*
G01X11024Y-8590D01*
G01X11031Y-8591D01*
G01X11043D01*
G01X11050Y-8593D01*
G01X11054Y-8594D01*
G01X11063Y-8596D01*
G01X11080Y-8599D01*
G01X11093Y-8603D01*
G01X11468D01*
G01X12147D01*
G01Y-9287D01*
G01X12703D01*
G01X12715Y-9285D01*
G01X12726Y-9282D01*
G01X12755Y-9274D01*
G01X12770Y-9270D01*
G01X12794Y-9265D01*
G01X12823Y-9257D01*
G01X12838Y-9253D01*
G01X12842Y-9267D01*
G01X12848Y-9287D01*
G01X12850Y-9298D01*
G01X12853Y-9308D01*
G01X12858Y-9319D01*
G01X12864Y-9333D01*
G01X12867Y-9342D01*
G01X12871Y-9351D01*
G01X12876Y-9359D01*
G01X12884Y-9374D01*
G01X12888Y-9380D01*
G01X12898Y-9393D01*
G01X12907Y-9408D01*
G01X12912Y-9414D01*
G01X12915Y-9417D01*
G01X12920Y-9420D01*
G01X12925Y-9425D01*
G01X12932Y-9435D01*
G01X12938Y-9439D01*
G01X12950Y-9448D01*
G01X12963Y-9458D01*
G01X12972Y-9464D01*
G01X12982Y-9469D01*
G01X12992Y-9475D01*
G01X12996Y-9478D01*
G01X13006Y-9482D01*
G01X13027Y-9490D01*
G01X13032Y-9492D01*
G01X13038Y-9494D01*
G01X13044Y-9496D01*
G01X13062Y-9499D01*
G01X13073Y-9502D01*
G01X13086Y-9504D01*
G01X13095Y-9505D01*
G01X13110Y-9506D01*
G01X13140Y-9507D01*
G01X13165D01*
G01X13177Y-9506D01*
G01X13184Y-9504D01*
G01X13194Y-9502D01*
G01X13208Y-9500D01*
G01X13214Y-9498D01*
G01X13222Y-9496D01*
G01X13233Y-9491D01*
G01X13244Y-9488D01*
G01X13249Y-9487D01*
G01X13255Y-9485D01*
G01X13259Y-9483D01*
G01X13268Y-9478D01*
G01X13285Y-9470D01*
G01X13293Y-9466D01*
G01X13318Y-9450D01*
G01X13325Y-9445D01*
G01X13333Y-9437D01*
G01X13340Y-9433D01*
G01X13345Y-9427D01*
G01X13352Y-9419D01*
G01X13358Y-9414D01*
G01X13361Y-9411D01*
G01X13364Y-9408D01*
G01X13368Y-9404D01*
G01X13379Y-9387D01*
G01X13390Y-9371D01*
G01X13399Y-9356D01*
G01X13402Y-9351D01*
G01X13407Y-9334D01*
G01X13413Y-9323D01*
G01X13415Y-9319D01*
G01X13419Y-9308D01*
G01X13428Y-9282D01*
G01X13431Y-9273D01*
G01X13433Y-9262D01*
G01X13437Y-9242D01*
G01X13441Y-9226D01*
G01X13443Y-9217D01*
G01X13445Y-9204D01*
G01X13451Y-9153D01*
G01X13452Y-9143D01*
G01X13453Y-9103D01*
G01Y-9092D01*
G01Y-9052D01*
G01X13452Y-9041D01*
G01X13450Y-9035D01*
G01X13449Y-9027D01*
G01Y-9012D01*
G01X13446Y-9001D01*
G01X13444Y-8989D01*
G01X13441Y-8967D01*
G01X13439Y-8958D01*
G01X13432Y-8937D01*
G01X13424Y-8909D01*
G01X13416Y-8888D01*
G01X13409Y-8871D01*
G01X13407Y-8867D01*
G01X13401Y-8855D01*
G01X13396Y-8847D01*
G01X13383Y-8826D01*
G01X13380Y-8821D01*
G01X13376Y-8815D01*
G01X13372Y-8813D01*
G01X13368Y-8809D01*
G01X13365Y-8806D01*
G01X13362Y-8803D01*
G01X13358Y-8795D01*
G01X13355Y-8791D01*
G01X13352Y-8788D01*
G01X13338Y-8777D01*
G01X13332Y-8773D01*
G01X13322Y-8765D01*
G01X13312Y-8756D01*
G01X13303Y-8750D01*
G01X13282Y-8737D01*
G01X13277Y-8734D01*
G01X13272Y-8732D01*
G01X13267Y-8730D01*
G01X13254Y-8726D01*
G01X13241Y-8720D01*
G01X13236Y-8719D01*
G01X13230Y-8717D01*
G01X13213Y-8714D01*
G01X13198Y-8710D01*
G01X13188Y-8708D01*
G01X13181Y-8706D01*
G01X13169D01*
G01X13161Y-8705D01*
G01X13154Y-8703D01*
G01X13150D01*
G01X13142Y-8702D01*
G01X13118Y-8701D01*
G01X13097Y-8702D01*
G01X13086Y-8703D01*
G01X13079Y-8704D01*
G01X13071Y-8705D01*
G01X13059Y-8706D01*
G01X13045Y-8710D01*
G01X13030Y-8713D01*
G01X13021Y-8716D01*
G01X13009Y-8721D01*
G01X12995Y-8726D01*
G01X12990Y-8729D01*
G01X12982Y-8732D01*
G01X12979Y-8734D01*
G01X12972Y-8740D01*
G01X12957Y-8750D01*
G01X12949Y-8755D01*
G01X12941Y-8762D01*
G01X12935Y-8767D01*
G01X12930Y-8772D01*
G01X12918Y-8787D01*
G01X12914Y-8792D01*
G01X12907Y-8803D01*
G01X12889Y-8831D01*
G01X12885Y-8838D01*
G01X12877Y-8855D01*
G01X12873Y-8863D01*
G01X12870Y-8868D01*
G01X12867Y-8875D01*
G01X12863Y-8888D01*
G01X12860Y-8896D01*
G01X12857Y-8900D01*
G01X12854Y-8903D01*
G01X12853Y-8904D01*
G01X12850Y-8906D01*
G01X12849Y-8907D01*
G01X12845Y-8908D01*
G01X12840Y-8907D01*
G01X12835D01*
G01X12816Y-8902D01*
G01X12805Y-8900D01*
G01X12785Y-8896D01*
G01X12777Y-8894D01*
G01X12755Y-8888D01*
G01X12732Y-8881D01*
G01X12728Y-8880D01*
G01X12726Y-8878D01*
G01X12724Y-8875D01*
G01Y-8871D01*
G01Y-8867D01*
G01X12725Y-8863D01*
G01X12726Y-8858D01*
G01X12731Y-8847D01*
G01X12737Y-8833D01*
G01X12741Y-8821D01*
G01X12750Y-8800D01*
G01X12755Y-8787D01*
G01X12758Y-8782D01*
G01X12761Y-8779D01*
G01X12764Y-8775D01*
G01X12768Y-8769D01*
G01X12773Y-8760D01*
G01X12776Y-8756D01*
G01X12783Y-8746D01*
G01X12793Y-8732D01*
G01X12800Y-8723D01*
G01X12806Y-8716D01*
G01X12813Y-8708D01*
G01X12817Y-8702D01*
G01X12826Y-8694D01*
G01X12832Y-8689D01*
G01X12836Y-8683D01*
G01X12839Y-8681D01*
G01X12842Y-8679D01*
G01X12848Y-8677D01*
G01X12850Y-8675D01*
G01X12853Y-8672D01*
G01X12857Y-8666D01*
G01X12860Y-8664D01*
G01X12863Y-8662D01*
G01X12869Y-8660D01*
G01X12872Y-8658D01*
G01X12874Y-8656D01*
G01X12882Y-8650D01*
G01X12891Y-8644D01*
G01X12899Y-8640D01*
G01X12907Y-8635D01*
G01X12920Y-8630D01*
G01X12928Y-8626D01*
G01X12933Y-8623D01*
G01X12937Y-8621D01*
G01X12948Y-8616D01*
G01X12960Y-8612D01*
G01X12972Y-8607D01*
G01X12977Y-8605D01*
G01X12983Y-8603D01*
G01X13006Y-8599D01*
G01X13018Y-8596D01*
G01X13029Y-8594D01*
G01X13035Y-8593D01*
G01X13065Y-8589D01*
G01X13072Y-8588D01*
G01X13098Y-8587D01*
G01X13131D01*
G01X13175D01*
G01X13186Y-8588D01*
G01X13188Y-8589D01*
G01X13192Y-8590D01*
G01X13199Y-8591D01*
G01X13211D01*
G01X13218Y-8593D01*
G01X13222Y-8594D01*
G01X13231Y-8596D01*
G01X13248Y-8599D01*
G01X13300Y-8616D01*
G01X13309Y-8619D01*
G01X13318Y-8624D01*
G01X13323Y-8627D01*
G01X13330Y-8630D01*
G01X13343Y-8634D01*
G01X13349Y-8638D01*
G01X13356Y-8642D01*
G01X13372Y-8650D01*
G01X13392Y-8663D01*
G01X13424Y-8686D01*
G01X13430Y-8692D01*
G01X13435Y-8698D01*
G01X13441Y-8703D01*
G01X13449Y-8708D01*
G01X13452Y-8710D01*
G01X13455Y-8713D01*
G01X13467Y-8728D01*
G01X13470Y-8733D01*
G01X13479Y-8744D01*
G01X13485Y-8750D01*
G01X13491Y-8758D01*
G01X13509Y-8782D01*
G01X13515Y-8792D01*
G01X13528Y-8814D01*
G01X13532Y-8821D01*
G01X13536Y-8830D01*
G01X13538Y-8835D01*
G01X13547Y-8856D01*
G01X13553Y-8871D01*
G01X13557Y-8879D01*
G01X13561Y-8889D01*
G01X13564Y-8904D01*
G01X13569Y-8915D01*
G01X13572Y-8924D01*
G01X13573Y-8931D01*
G01X13576Y-8953D01*
G01X13579Y-8966D01*
G01X13582Y-8976D01*
G01X13583Y-8983D01*
G01X13587Y-9013D01*
G01X13588Y-9027D01*
G01X13590Y-9043D01*
G01X13591Y-9052D01*
G01Y-9056D01*
G01X13592Y-9060D01*
G01X13593Y-9069D01*
G01X13594Y-9095D01*
G01X13734D01*
G01X13735Y-9092D01*
G01X13736Y-9087D01*
G01X13737Y-9076D01*
G01X13738Y-9022D01*
G01X13739Y-9011D01*
G01X13741Y-9005D01*
G01X13742Y-8997D01*
G01Y-8982D01*
G01X13743Y-8976D01*
G01X13745Y-8971D01*
G01X13747Y-8961D01*
G01X13751Y-8941D01*
G01X13755Y-8925D01*
G01X13759Y-8906D01*
G01X13767Y-8879D01*
G01X13775Y-8859D01*
G01X13784Y-8835D01*
G01X13792Y-8819D01*
G01X13797Y-8810D01*
G01X13803Y-8796D01*
G01X13806Y-8790D01*
G01X13808Y-8787D01*
G01X13812Y-8784D01*
G01X13816Y-8777D01*
G01X13823Y-8766D01*
G01X13826Y-8761D01*
G01X13833Y-8753D01*
G01X13839Y-8744D01*
G01X13846Y-8737D01*
G01X13852Y-8729D01*
G01X13857Y-8723D01*
G01X13866Y-8716D01*
G01X13871Y-8711D01*
G01X13878Y-8702D01*
G01X13884Y-8697D01*
G01X13892Y-8690D01*
G01X13902Y-8682D01*
G01X13920Y-8670D01*
G01X13926Y-8665D01*
G01X13933Y-8661D01*
G01X13945Y-8654D01*
G01X13955Y-8648D01*
G01X13959Y-8646D01*
G01X13969Y-8642D01*
G01X13990Y-8633D01*
G01X14010Y-8626D01*
G01X14023Y-8622D01*
G01X14032Y-8620D01*
G01X14050Y-8616D01*
G01X14062Y-8613D01*
G01X14075Y-8611D01*
G01X14083Y-8610D01*
G01X14105Y-8608D01*
G01X14119Y-8607D01*
G01X14126Y-8606D01*
G01X14127D01*
G01X14142Y-8605D01*
G01X14348Y-8603D01*
G01X14565D01*
G01Y-9605D01*
G01X14671D01*
G01X14673Y-9594D01*
G01X14674Y-9589D01*
G01X14677Y-9582D01*
G01X14678Y-9579D01*
G01X14682Y-9574D01*
G01X14684Y-9569D01*
G01X14688Y-9558D01*
G01X14692Y-9546D01*
G01X14699Y-9530D01*
G01X14705Y-9516D01*
G01X14709Y-9504D01*
G01X14719Y-9483D01*
G01X14722Y-9475D01*
G01X14756Y-9390D01*
G01X14762Y-9376D01*
G01X14768Y-9364D01*
G01X14773Y-9350D01*
G01X14777Y-9339D01*
G01X14784Y-9322D01*
G01X14790Y-9308D01*
G01X14793Y-9299D01*
G01X14797Y-9290D01*
G01X14800Y-9285D01*
G01X14804Y-9278D01*
G01X14807Y-9265D01*
G01X14814Y-9250D01*
G01X14819Y-9236D01*
G01X14823Y-9224D01*
G01X14833Y-9203D01*
G01X14837Y-9195D01*
G01X14870Y-9110D01*
G01X14877Y-9096D01*
G01X14882Y-9085D01*
G01X14887Y-9070D01*
G01X14892Y-9059D01*
G01X14899Y-9042D01*
G01X14904Y-9028D01*
G01X14907Y-9019D01*
G01X14912Y-9010D01*
G01X14915Y-9005D01*
G01X14918Y-8998D01*
G01X14922Y-8986D01*
G01X14929Y-8970D01*
G01X14934Y-8956D01*
G01X14938Y-8944D01*
G01X14948Y-8923D01*
G01X14951Y-8915D01*
G01X14985Y-8831D01*
G01X14991Y-8816D01*
G01X14997Y-8805D01*
G01X15002Y-8790D01*
G01X15006Y-8779D01*
G01X15013Y-8762D01*
G01X15019Y-8748D01*
G01X15022Y-8739D01*
G01X15026Y-8730D01*
G01X15029Y-8725D01*
G01X15032Y-8718D01*
G01X15036Y-8706D01*
G01X15043Y-8690D01*
G01X15048Y-8676D01*
G01X15053Y-8664D01*
G01X15062Y-8643D01*
G01X15065Y-8635D01*
G01X15078Y-8603D01*
G01X15227D01*
G01X15229Y-8614D01*
G01X15230Y-8619D01*
G01X15232Y-8626D01*
G01X15234Y-8629D01*
G01X15237Y-8634D01*
G01X15239Y-8639D01*
G01X15241Y-8643D01*
G01X15243Y-8653D01*
G01X15245Y-8660D01*
G01X15247Y-8663D01*
G01X15253Y-8676D01*
G01X15257Y-8688D01*
G01X15263Y-8701D01*
G01X15266Y-8710D01*
G01X15269Y-8722D01*
G01X15277Y-8738D01*
G01X15282Y-8752D01*
G01X15289Y-8773D01*
G01X15298Y-8796D01*
G01X15303Y-8810D01*
G01X15311Y-8827D01*
G01X15316Y-8841D01*
G01X15323Y-8862D01*
G01X15333Y-8886D01*
G01X15340Y-8906D01*
G01X15346Y-8920D01*
G01X15353Y-8937D01*
G01X15358Y-8951D01*
G01X15365Y-8972D01*
G01X15375Y-8996D01*
G01X15383Y-9016D01*
G01X15388Y-9031D01*
G01X15395Y-9047D01*
G01X15401Y-9062D01*
G01X15408Y-9083D01*
G01X15418Y-9106D01*
G01X15425Y-9127D01*
G01X15431Y-9141D01*
G01X15438Y-9158D01*
G01X15443Y-9172D01*
G01X15450Y-9193D01*
G01X15460Y-9217D01*
G01X15468Y-9237D01*
G01X15473Y-9252D01*
G01X15480Y-9268D01*
G01X15485Y-9282D01*
G01X15493Y-9303D01*
G01X15502Y-9326D01*
G01X15507Y-9341D01*
G01X15514Y-9357D01*
G01X15519Y-9372D01*
G01X15527Y-9392D01*
G01X15536Y-9416D01*
G01X15544Y-9436D01*
G01X15549Y-9451D01*
G01X15556Y-9468D01*
G01X15562Y-9482D01*
G01X15569Y-9503D01*
G01X15579Y-9527D01*
G01X15586Y-9546D01*
G01X15592Y-9561D01*
G01X15597Y-9573D01*
G01X15598Y-9578D01*
G01X15600Y-9583D01*
G01Y-9592D01*
G01Y-9605D01*
G01X15464D01*
G01X15461Y-9589D01*
G01X15458Y-9579D01*
G01X15452Y-9567D01*
G01X15448Y-9554D01*
G01X15445Y-9545D01*
G01X15441Y-9537D01*
G01X15438Y-9527D01*
G01X15436Y-9517D01*
G01X15433Y-9510D01*
G01X15432Y-9507D01*
G01X15428Y-9502D01*
G01X15426Y-9498D01*
G01X15425Y-9493D01*
G01X15423Y-9483D01*
G01X15420Y-9473D01*
G01X15414Y-9462D01*
G01X15409Y-9448D01*
G01X15401Y-9422D01*
G01X15393Y-9402D01*
G01X15385Y-9379D01*
G01X15376Y-9355D01*
G01X15368Y-9332D01*
G01X15363Y-9320D01*
G01X15359Y-9312D01*
G01X15358Y-9310D01*
G01X15357Y-9309D01*
G01X15354D01*
G01X15343Y-9307D01*
G01X15289Y-9305D01*
G01X15146Y-9304D01*
G01X14938D01*
G01X14936Y-9314D01*
G01X14935Y-9319D01*
G01X14933Y-9326D01*
G01X14931Y-9329D01*
G01X14928Y-9334D01*
G01X14925Y-9342D01*
G01X14920Y-9354D01*
G01X14915Y-9367D01*
G01X14912Y-9376D01*
G01X14908Y-9388D01*
G01X14901Y-9404D01*
G01X14896Y-9418D01*
G01X14888Y-9439D01*
G01X14879Y-9463D01*
G01X14871Y-9483D01*
G01X14866Y-9498D01*
G01X14858Y-9514D01*
G01X14853Y-9529D01*
G01X14846Y-9549D01*
G01X14823Y-9605D01*
G01X14671D01*
G01X14565D01*
G01X14342D01*
G01X14119Y-9603D01*
G01X14114D01*
G01X14113D01*
G01X14110Y-9602D01*
G01X14101Y-9601D01*
G01X14086Y-9600D01*
G01X14081Y-9599D01*
G01X14075Y-9597D01*
G01X14065Y-9595D01*
G01X14045Y-9592D01*
G01X14037Y-9590D01*
G01X13992Y-9575D01*
G01X13972Y-9568D01*
G01X13961Y-9564D01*
G01X13954Y-9559D01*
G01X13918Y-9537D01*
G01X13906Y-9528D01*
G01X13901Y-9524D01*
G01X13890Y-9515D01*
G01X13884Y-9509D01*
G01X13876Y-9503D01*
G01X13872Y-9501D01*
G01X13868Y-9496D01*
G01X13866Y-9489D01*
G01X13864Y-9486D01*
G01X13861Y-9484D01*
G01X13855Y-9479D01*
G01X13852Y-9476D01*
G01X13849Y-9472D01*
G01X13842Y-9462D01*
G01X13838Y-9456D01*
G01X13835Y-9453D01*
G01X13830Y-9450D01*
G01X13828Y-9447D01*
G01X13826Y-9443D01*
G01X13823Y-9436D01*
G01X13822Y-9432D01*
G01X13820Y-9429D01*
G01X13816Y-9424D01*
G01X13814Y-9421D01*
G01X13807Y-9412D01*
G01X13803Y-9404D01*
G01X13799Y-9396D01*
G01X13791Y-9376D01*
G01X13783Y-9360D01*
G01X13780Y-9352D01*
G01X13772Y-9332D01*
G01X13763Y-9304D01*
G01X13760Y-9294D01*
G01X13758Y-9285D01*
G01X13755Y-9267D01*
G01X13752Y-9255D01*
G01X13749Y-9245D01*
G01X13743Y-9205D01*
G01X13742Y-9193D01*
G01X13741Y-9185D01*
G01X13740Y-9179D01*
G01X13739Y-9173D01*
G01X13738Y-9165D01*
G01X13737Y-9111D01*
G01X13736Y-9102D01*
G01X13735Y-9098D01*
G01X13734Y-9095D01*
G01X13594D01*
G01Y-9096D01*
G01X13593Y-9123D01*
G01X13592Y-9134D01*
G01X13591Y-9136D01*
G01Y-9140D01*
G01X13590Y-9146D01*
G01X13589Y-9164D01*
G01Y-9178D01*
G01X13588Y-9184D01*
G01X13587Y-9190D01*
G01X13586Y-9194D01*
G01X13585Y-9202D01*
G01X13584Y-9214D01*
G01X13582Y-9225D01*
G01X13579Y-9235D01*
G01X13576Y-9255D01*
G01X13574Y-9263D01*
G01X13568Y-9285D01*
G01X13561Y-9312D01*
G01X13557Y-9321D01*
G01X13553Y-9329D01*
G01X13550Y-9339D01*
G01X13548Y-9349D01*
G01X13545Y-9355D01*
G01X13543Y-9359D01*
G01X13540Y-9364D01*
G01X13537Y-9372D01*
G01X13534Y-9384D01*
G01X13530Y-9390D01*
G01X13526Y-9398D01*
G01X13519Y-9413D01*
G01X13516Y-9418D01*
G01X13514Y-9422D01*
G01X13504Y-9436D01*
G01X13493Y-9454D01*
G01X13483Y-9467D01*
G01X13466Y-9488D01*
G01X13462Y-9493D01*
G01X13458Y-9497D01*
G01X13453Y-9502D01*
G01X13448Y-9505D01*
G01X13443Y-9511D01*
G01X13436Y-9519D01*
G01X13430Y-9524D01*
G01X13418Y-9533D01*
G01X13400Y-9547D01*
G01X13383Y-9558D01*
G01X13366Y-9569D01*
G01X13358Y-9573D01*
G01X13350Y-9577D01*
G01X13330Y-9585D01*
G01X13318Y-9592D01*
G01X13297Y-9597D01*
G01X13275Y-9605D01*
G01X13268Y-9607D01*
G01X13261Y-9608D01*
G01X13250Y-9610D01*
G01X13231Y-9613D01*
G01X13219Y-9616D01*
G01X13212Y-9617D01*
G01X13199Y-9618D01*
G01X13192Y-9619D01*
G01X13188Y-9621D01*
G01X13180D01*
G01X13136Y-9622D01*
G01X13127Y-9623D01*
G01X13126Y-9624D01*
G01X13125D01*
G01X13123Y-9625D01*
G01X13120D01*
G01X13112Y-9624D01*
G01X13106Y-9623D01*
G01X13094Y-9622D01*
G01X13061D01*
G01X13051Y-9621D01*
G01X13044Y-9618D01*
G01X13033Y-9616D01*
G01X13010Y-9613D01*
G01X13002Y-9611D01*
G01X12980Y-9605D01*
G01X12970Y-9602D01*
G01X12962Y-9599D01*
G01X12948Y-9593D01*
G01X12936Y-9588D01*
G01X12929Y-9585D01*
G01X12918Y-9579D01*
G01X12902Y-9571D01*
G01X12878Y-9556D01*
G01X12872Y-9551D01*
G01X12865Y-9546D01*
G01X12856Y-9539D01*
G01X12850Y-9535D01*
G01X12845Y-9530D01*
G01X12840Y-9523D01*
G01X12838Y-9521D01*
G01X12835Y-9519D01*
G01X12829Y-9516D01*
G01X12826Y-9515D01*
G01X12823Y-9512D01*
G01X12817Y-9504D01*
G01X12811Y-9497D01*
G01X12804Y-9488D01*
G01X12800Y-9482D01*
G01X12793Y-9478D01*
G01X12788Y-9473D01*
G01X12786Y-9470D01*
G01X12784Y-9464D01*
G01X12780Y-9456D01*
G01X12770Y-9443D01*
G01X12764Y-9433D01*
G01X12755Y-9418D01*
G01X12749Y-9406D01*
G01X12743Y-9396D01*
G01X12740Y-9388D01*
G01X12736Y-9376D01*
G01X12730Y-9366D01*
G01X12727Y-9358D01*
G01X12723Y-9346D01*
G01X12717Y-9333D01*
G01X12716Y-9328D01*
G01X12714Y-9322D01*
G01X12712Y-9310D01*
G01X12710Y-9305D01*
G01X12709Y-9299D01*
G01X12707Y-9295D01*
G01X12703Y-9287D01*
G01X12147D01*
G01Y-9605D01*
G01X12011D01*
G01Y-9151D01*
G01X11544D01*
G01Y-9032D01*
G01X12011D01*
G01Y-8722D01*
G01X11468D01*
G01Y-8603D01*
G01X11093D01*
G01X11107Y-8608D01*
G01X11128Y-8615D01*
G01X11152Y-8625D01*
G01X11159Y-8628D01*
G01X11167Y-8632D01*
G01X11186Y-8644D01*
G01X11194Y-8649D01*
G01X11207Y-8659D01*
G01X11212Y-8663D01*
G01X11216Y-8666D01*
G01X11221Y-8672D01*
G01X11224Y-8677D01*
G01X11229Y-8682D01*
G01X11238Y-8689D01*
G01X11243Y-8695D01*
G01X11250Y-8703D01*
G01X11254Y-8708D01*
G01X11256Y-8711D01*
G01X11262Y-8720D01*
G01X11277Y-8745D01*
G01X11281Y-8754D01*
G01X11290Y-8775D01*
G01X11294Y-8787D01*
G01X11298Y-8801D01*
G01X11300Y-8808D01*
G01X11301Y-8815D01*
G01X11302Y-8821D01*
G01Y-8832D01*
G01X11304Y-8840D01*
G01X11305Y-8843D01*
G01X11306Y-8847D01*
G01Y-8853D01*
G01X11307Y-8871D01*
G01Y-8885D01*
G01X11306Y-8892D01*
G01X11305Y-8898D01*
G01X11304Y-8902D01*
G01X11301Y-8913D01*
G01X11299Y-8927D01*
G01X11297Y-8935D01*
G01X11295Y-8939D01*
G01X11290Y-8948D01*
G01X11286Y-8960D01*
G01X11283Y-8967D01*
G01X11277Y-8977D01*
G01X11270Y-8990D01*
G01X11267Y-8995D01*
G01X11260Y-9004D01*
G01X11256Y-9009D01*
G01X11252Y-9013D01*
G01X11247Y-9018D01*
G01X11242Y-9022D01*
G01X11237Y-9027D01*
G01X11230Y-9036D01*
G01X11224Y-9040D01*
G01X11216Y-9047D01*
G01X11211Y-9051D01*
G01X11207Y-9054D01*
G01X11198Y-9060D01*
G01X11165Y-9081D01*
G01X11159Y-9084D01*
G01X11154Y-9087D01*
G01X11148Y-9089D01*
G01X11130Y-9096D01*
G01X11116Y-9102D01*
G01X11107Y-9105D01*
G01X11092Y-9109D01*
G01X11069Y-9117D01*
G01X11041Y-9125D01*
G01X11022Y-9131D01*
G01X11006Y-9134D01*
G01X10978Y-9142D01*
G01X10956Y-9148D01*
G01X10936Y-9151D01*
G01X10927Y-9153D01*
G01X10906Y-9159D01*
G01X10876Y-9168D01*
G01X10856Y-9173D01*
G01X10841Y-9177D01*
G01X10815Y-9185D01*
G01X10794Y-9192D01*
G01X10770Y-9202D01*
G01X10762Y-9205D01*
G01X10755Y-9209D01*
G01X10736Y-9221D01*
G01X10731Y-9224D01*
G01X10725Y-9229D01*
G01X10722Y-9232D01*
G01X10719Y-9236D01*
G01X10714Y-9242D01*
G01X10708Y-9247D01*
G01X10704Y-9250D01*
G01X10701Y-9254D01*
G01X10698Y-9259D01*
G01X10693Y-9267D01*
G01X10689Y-9275D01*
G01X10687Y-9280D01*
G01X10683Y-9292D01*
G01X10679Y-9306D01*
G01X10677Y-9313D01*
G01X10676Y-9321D01*
G01X10675Y-9329D01*
G01Y-9338D01*
G01Y-9349D01*
G01X10676Y-9357D01*
G01X10677Y-9361D01*
G01X10683Y-9380D01*
G01X10685Y-9386D01*
G01X10688Y-9392D01*
G01X10691Y-9398D01*
G01X10694Y-9403D01*
G01X10704Y-9420D01*
G01X10709Y-9426D01*
G01X10718Y-9433D01*
G01X10723Y-9439D01*
G01X10728Y-9445D01*
G01X10732Y-9448D01*
G01X10736Y-9451D01*
G01X10740Y-9454D01*
G01X10761Y-9467D01*
G01X10772Y-9472D01*
G01X10776Y-9474D01*
G01X10789Y-9478D01*
G01X10802Y-9484D01*
G01X10807Y-9485D01*
G01X10813Y-9487D01*
G01X10830Y-9490D01*
G01X10845Y-9495D01*
G01X10855Y-9497D01*
G01X10863Y-9498D01*
G01X10874Y-9499D01*
G01X10882D01*
G01X10889Y-9501D01*
G01X10894Y-9502D01*
G01X10902Y-9503D01*
G01X10927D01*
G01X10952D01*
G01X10962Y-9502D01*
G01X10965Y-9501D01*
G01X10973Y-9499D01*
G01X10987D01*
G01X10996Y-9498D01*
G01X11003Y-9496D01*
G01X11012Y-9494D01*
G01X11024Y-9491D01*
G01X11030Y-9490D01*
G01X11035Y-9488D01*
G01X11044Y-9484D01*
G01X11054Y-9481D01*
G01X11064Y-9478D01*
G01X11070Y-9476D01*
G01X11074Y-9474D01*
G01X11083Y-9469D01*
G01X11098Y-9463D01*
G01X11102Y-9460D01*
G01X11107Y-9457D01*
G01X11121Y-9448D01*
G01X11135Y-9438D01*
G01X11141Y-9434D01*
G01X11145Y-9431D01*
G01X11148Y-9425D01*
G01X11153Y-9420D01*
G01X11159Y-9416D01*
G01X11162Y-9412D01*
G01X11166Y-9408D01*
G01X11177Y-9391D01*
G01X11185Y-9380D01*
G01X11187Y-9375D01*
G01X11190Y-9369D01*
G01X11196Y-9351D01*
G01X11202Y-9337D01*
G01X11204Y-9332D01*
G01X11206Y-9327D01*
G01X11209Y-9310D01*
G01X11212Y-9298D01*
G01X11215Y-9288D01*
G01X11216Y-9280D01*
G01X11217Y-9277D01*
G01X11218Y-9275D01*
G01X11221Y-9272D01*
G01X11223D01*
G01X11226D01*
G01X11234Y-9273D01*
G01X11240Y-9274D01*
G01X11254D01*
G01X11263D01*
G01X11271Y-9275D01*
G01X11275Y-9276D01*
G01X11279Y-9277D01*
G01X11284Y-9278D01*
G01X11300D01*
G01X11313Y-9279D01*
G01X11322D01*
G01X11326Y-9280D01*
G01X11339Y-9285D01*
G01X11341Y-9286D01*
G01X11343Y-9289D01*
G01X11345Y-9292D01*
G01Y-9297D01*
G01X11344Y-9307D01*
G01X11343Y-9313D01*
G01X11342Y-9318D01*
G01X11341Y-9326D01*
G01X11340Y-9341D01*
G01X11339Y-9347D01*
G01X11337Y-9355D01*
G01X11332Y-9373D01*
G01X11330Y-9381D01*
G01X11328Y-9386D01*
G01X11311Y-9428D01*
G01X11309Y-9434D01*
G01X11304Y-9443D01*
G01X11296Y-9454D01*
G01X11292Y-9460D01*
G01X11286Y-9472D01*
G01X11282Y-9476D01*
G01X11275Y-9485D01*
G01X11268Y-9494D01*
G01X11264Y-9499D01*
G01X11258Y-9504D01*
G01X11245Y-9515D01*
G01X11241Y-9519D01*
G01X11236Y-9524D01*
G01X11232Y-9530D01*
G01X11229Y-9533D01*
G01X11225Y-9536D01*
G01X11213Y-9543D01*
G01X11206Y-9548D01*
G01X11202Y-9552D01*
G01X11199Y-9554D01*
G01X11190Y-9560D01*
G01X11182Y-9565D01*
G01X11174Y-9569D01*
G01X11161Y-9574D01*
G01X11154Y-9578D01*
G01X11148Y-9581D01*
G01X11144Y-9583D01*
G01X11133Y-9588D01*
G01X11112Y-9595D01*
G01X11104Y-9598D01*
G01X11098Y-9600D01*
G01X11092Y-9602D01*
G01X11075Y-9605D01*
G01X11060Y-9609D01*
G01X11050Y-9611D01*
G01X11025Y-9615D01*
G01X10991Y-9619D01*
G01X10973Y-9621D01*
G01X10948Y-9622D01*
G01X10934D01*
G01X10926Y-9623D01*
G01X10925D01*
G01X10924Y-9624D01*
G01X10923D01*
G01X10921Y-9625D01*
G01X10917D01*
G01X10912D01*
G01X10894Y-9623D01*
G01X10860Y-9622D01*
G01X10850Y-9621D01*
G01X10843Y-9618D01*
G01X10836Y-9617D01*
G01X10823D01*
G01X10817Y-9615D01*
G01X10813Y-9614D01*
G01X10804Y-9612D01*
G01X10786Y-9609D01*
G01X10779Y-9607D01*
G01X10761Y-9601D01*
G01X10741Y-9593D01*
G01X10729Y-9589D01*
G01X10721Y-9584D01*
G01X10712Y-9579D01*
G01X10697Y-9573D01*
G01X10692Y-9570D01*
G01X10687Y-9568D01*
G01X10668Y-9554D01*
G01X10656Y-9545D01*
G01X10646Y-9537D01*
G01X10642Y-9533D01*
G01X10638Y-9528D01*
G01X10634Y-9523D01*
G01X10629Y-9518D01*
G01X10620Y-9511D01*
G01X10615Y-9505D01*
G01X10609Y-9497D01*
G01X10600Y-9487D01*
G01X10590Y-9471D01*
G01X10586Y-9464D01*
G01X10577Y-9448D01*
G01X10571Y-9438D01*
G01X10567Y-9431D01*
G01X10564Y-9418D01*
G01X10559Y-9408D01*
G01X10557Y-9403D01*
G01X10556Y-9396D01*
G01X10552Y-9374D01*
G01X10549Y-9361D01*
G01X10548Y-9352D01*
G01X10547Y-9335D01*
G01X10546Y-9328D01*
G01X10545Y-9323D01*
G01X10544Y-9318D01*
G01X10086D01*
G01X10085Y-9395D01*
G01Y-9605D01*
G01X9949D01*
G01Y-9393D01*
G01X9947Y-9204D01*
G01X9945Y-9184D01*
G01X9944Y-9175D01*
G01Y-9173D01*
G01X9943Y-9172D01*
G01X9936Y-9163D01*
G01X9925Y-9146D01*
G01X9921Y-9139D01*
G01X9917Y-9135D01*
G01X9915Y-9132D01*
G01X9901Y-9111D01*
G01X9868Y-9065D01*
G01X9857Y-9047D01*
G01X9847Y-9034D01*
G01X9839Y-9024D01*
G01X9832Y-9013D01*
G01X9825Y-9001D01*
G01X9792Y-8955D01*
G01X9781Y-8937D01*
G01X9771Y-8924D01*
G01X9763Y-8913D01*
G01X9756Y-8903D01*
G01X9748Y-8890D01*
G01X9716Y-8845D01*
G01X9704Y-8827D01*
G01X9695Y-8814D01*
G01X9687Y-8803D01*
G01X9680Y-8792D01*
G01X9672Y-8780D01*
G01X9639Y-8735D01*
G01X9628Y-8717D01*
G01X9618Y-8703D01*
G01X9610Y-8693D01*
G01X9603Y-8682D01*
G01X9596Y-8670D01*
G01X9563Y-8624D01*
G01X9556Y-8614D01*
G01X9550Y-8603D01*
G01X9432D01*
G01Y-9605D01*
G01X9305D01*
G01Y-9219D01*
G01X9300Y-8858D01*
G01X9299Y-8842D01*
G01Y-8837D01*
G01X9298Y-8836D01*
G01Y-8835D01*
G01X9295Y-8836D01*
G01X9291Y-8840D01*
G01X9288Y-8847D01*
G01X9284Y-8854D01*
G01X9275Y-8867D01*
G01X9260Y-8889D01*
G01X9249Y-8905D01*
G01X9235Y-8928D01*
G01X9224Y-8943D01*
G01X9210Y-8966D01*
G01X9198Y-8981D01*
G01X9184Y-9004D01*
G01X9173Y-9020D01*
G01X9158Y-9042D01*
G01X9148Y-9058D01*
G01X9133Y-9080D01*
G01X9122Y-9096D01*
G01X9107Y-9119D01*
G01X9096Y-9134D01*
G01X9086Y-9152D01*
G01X9081Y-9158D01*
G01X9077Y-9162D01*
G01X9074Y-9165D01*
G01X9061Y-9187D01*
G01X9050Y-9202D01*
G01X9035Y-9225D01*
G01X9024Y-9241D01*
G01X9010Y-9263D01*
G01X8999Y-9279D01*
G01X8984Y-9301D01*
G01X8973Y-9317D01*
G01X8959Y-9340D01*
G01X8948Y-9355D01*
G01X8934Y-9378D01*
G01X8923Y-9393D01*
G01X8908Y-9416D01*
G01X8897Y-9432D01*
G01X8883Y-9454D01*
G01X8872Y-9470D01*
G01X8857Y-9492D01*
G01X8846Y-9508D01*
G01X8832Y-9530D01*
G01X8820Y-9546D01*
G01X8806Y-9568D01*
G01X8795Y-9584D01*
G01X8789Y-9594D01*
G01X8782Y-9605D01*
G01X8643D01*
G01Y-8603D01*
G01X8127D01*
G01X8167Y-8616D01*
G01X8176Y-8619D01*
G01X8185Y-8624D01*
G01X8189Y-8627D01*
G01X8197Y-8630D01*
G01X8209Y-8634D01*
G01X8216Y-8638D01*
G01X8223Y-8642D01*
G01X8239Y-8650D01*
G01X8259Y-8663D01*
G01X8291Y-8686D01*
G01X8297Y-8692D01*
G01X8301Y-8698D01*
G01X8307Y-8703D01*
G01X8315Y-8708D01*
G01X8319Y-8710D01*
G01X8322Y-8713D01*
G01X8333Y-8728D01*
G01X8337Y-8733D01*
G01X8346Y-8744D01*
G01X8352Y-8750D01*
G01X8358Y-8758D01*
G01X8375Y-8782D01*
G01X8381Y-8792D01*
G01X8394Y-8814D01*
G01X8399Y-8821D01*
G01X8403Y-8830D01*
G01X8405Y-8835D01*
G01X8413Y-8856D01*
G01X8420Y-8871D01*
G01X8424Y-8879D01*
G01X8427Y-8889D01*
G01X8431Y-8904D01*
G01X8436Y-8915D01*
G01X8438Y-8924D01*
G01X8440Y-8931D01*
G01X8443Y-8953D01*
G01X8446Y-8966D01*
G01X8449Y-8976D01*
G01X8450Y-8983D01*
G01X8454Y-9013D01*
G01X8455Y-9027D01*
G01X8456Y-9043D01*
G01X8457Y-9052D01*
G01X8458Y-9056D01*
G01X8459Y-9060D01*
G01X8460Y-9069D01*
G01Y-9096D01*
G01Y-9123D01*
G01X8458Y-9134D01*
G01Y-9136D01*
G01X8457Y-9140D01*
G01X8456Y-9146D01*
G01Y-9164D01*
G01Y-9178D01*
G01X8455Y-9184D01*
G01X8454Y-9190D01*
G01X8453Y-9194D01*
G01X8452Y-9202D01*
G01X8451Y-9214D01*
G01X8449Y-9225D01*
G01X8446Y-9235D01*
G01X8443Y-9255D01*
G01X8441Y-9263D01*
G01X8434Y-9285D01*
G01X8427Y-9312D01*
G01X8424Y-9321D01*
G01X8420Y-9329D01*
G01X8417Y-9339D01*
G01X8415Y-9349D01*
G01X8412Y-9355D01*
G01X8410Y-9359D01*
G01X8407Y-9364D01*
G01X8404Y-9372D01*
G01X8400Y-9384D01*
G01X8396Y-9390D01*
G01X8392Y-9398D01*
G01X8386Y-9413D01*
G01X8383Y-9418D01*
G01X8380Y-9422D01*
G01X8371Y-9436D01*
G01X8360Y-9454D01*
G01X8349Y-9467D01*
G01X8333Y-9488D01*
G01X8329Y-9493D01*
G01X8325Y-9497D01*
G01X8320Y-9502D01*
G01X8315Y-9505D01*
G01X8309Y-9511D01*
G01X8303Y-9519D01*
G01X8297Y-9524D01*
G01X8285Y-9533D01*
G01X8266Y-9547D01*
G01X8250Y-9558D01*
G01X8233Y-9569D01*
G01X8225Y-9573D01*
G01X8217Y-9577D01*
G01X8197Y-9585D01*
G01X8184Y-9592D01*
G01X8164Y-9597D01*
G01X8142Y-9605D01*
G01X8135Y-9607D01*
G01X8128Y-9608D01*
G01X8116Y-9610D01*
G01X8098Y-9613D01*
G01X8085Y-9616D01*
G01X8078Y-9617D01*
G01X8066Y-9618D01*
G01X8059Y-9619D01*
G01X8054Y-9621D01*
G01X8047D01*
G01X8003Y-9622D01*
G01X7994Y-9623D01*
G01X7992Y-9624D01*
G01X7991D01*
G01X7990Y-9625D01*
G01X7987D01*
G01X7979Y-9624D01*
G01X7973Y-9623D01*
G01X7960Y-9622D01*
G01X7927D01*
G01X7918Y-9621D01*
G01X7911Y-9618D01*
G01X7899Y-9616D01*
G01X7877Y-9613D01*
G01X7868Y-9611D01*
G01X7847Y-9605D01*
G01X7837Y-9602D01*
G01X7828Y-9599D01*
G01X7815Y-9593D01*
G01X7802Y-9588D01*
G01X7795Y-9585D01*
G01X7785Y-9579D01*
G01X7769Y-9571D01*
G01X7745Y-9556D01*
G01X7738Y-9551D01*
G01X7731Y-9546D01*
G01X7723Y-9539D01*
G01X7717Y-9535D01*
G01X7711Y-9530D01*
G01X7707Y-9523D01*
G01X7704Y-9521D01*
G01X7702Y-9519D01*
G01X7696Y-9516D01*
G01X7693Y-9515D01*
G01X7690Y-9512D01*
G01X7684Y-9504D01*
G01X7677Y-9497D01*
G01X7671Y-9488D01*
G01X7666Y-9482D01*
G01X7660Y-9478D01*
G01X7655Y-9473D01*
G01X7653Y-9470D01*
G01X7650Y-9464D01*
G01X7646Y-9456D01*
G01X7637Y-9443D01*
G01X7631Y-9433D01*
G01X7622Y-9418D01*
G01X7616Y-9406D01*
G01X7609Y-9396D01*
G01X7606Y-9388D01*
G01X7603Y-9376D01*
G01X7597Y-9366D01*
G01X7594Y-9358D01*
G01X7590Y-9346D01*
G01X7584Y-9333D01*
G01X7582Y-9328D01*
G01X7581Y-9322D01*
G01X7578Y-9310D01*
G01X7577Y-9305D01*
G01X7575Y-9299D01*
G01X7573Y-9295D01*
G01X7569Y-9287D01*
G01X7510D01*
G01Y-11170D01*
G01X8452D01*
G01X8458Y-11160D01*
G01X8462Y-11153D01*
G01X8467Y-11146D01*
G01X8471Y-11142D01*
G01X8473Y-11139D01*
G01X8484Y-11123D01*
G01X8489Y-11116D01*
G01X8496Y-11107D01*
G01X8507Y-11093D01*
G01X8521Y-11074D01*
G01X8545Y-11041D01*
G01X8554Y-11029D01*
G01X8568Y-11010D01*
G01X8579Y-10995D01*
G01X8583Y-10990D01*
G01X8591Y-10979D01*
G01X8602Y-10962D01*
G01X8608Y-10955D01*
G01X8615Y-10946D01*
G01X8626Y-10931D01*
G01X8630Y-10926D01*
G01X8638Y-10916D01*
G01X8649Y-10898D01*
G01X8654Y-10892D01*
G01X8661Y-10883D01*
G01X8673Y-10868D01*
G01X8687Y-10849D01*
G01X8710Y-10816D01*
G01X8719Y-10804D01*
G01X8734Y-10785D01*
G01X8745Y-10770D01*
G01X8748Y-10765D01*
G01X8756Y-10754D01*
G01X8768Y-10737D01*
G01X8773Y-10730D01*
G01X8780Y-10721D01*
G01X8791Y-10707D01*
G01X8806Y-10688D01*
G01X8829Y-10655D01*
G01X8838Y-10643D01*
G01X8852Y-10624D01*
G01X8876Y-10591D01*
G01X8879Y-10585D01*
G01X8882Y-10579D01*
G01X8883Y-10575D01*
G01Y-10572D01*
G01X8882Y-10569D01*
G01X8880Y-10566D01*
G01X8875Y-10560D01*
G01X8869Y-10555D01*
G01X8861Y-10549D01*
G01X8851Y-10540D01*
G01X8845Y-10536D01*
G01X8840Y-10530D01*
G01X8833Y-10522D01*
G01X8824Y-10515D01*
G01X8819Y-10510D01*
G01X8812Y-10500D01*
G01X8803Y-10493D01*
G01X8798Y-10488D01*
G01X8790Y-10479D01*
G01X8781Y-10472D01*
G01X8776Y-10467D01*
G01X8769Y-10458D01*
G01X8760Y-10451D01*
G01X8755Y-10445D01*
G01X8750Y-10440D01*
G01X8748Y-10437D01*
G01X8745Y-10435D01*
G01X8739Y-10433D01*
G01X8737Y-10432D01*
G01X8735Y-10430D01*
G01X8733Y-10426D01*
G01X8730Y-10424D01*
G01X8725Y-10419D01*
G01X8719Y-10415D01*
G01X8712Y-10406D01*
G01X8707Y-10400D01*
G01X8698Y-10393D01*
G01X8691Y-10385D01*
G01X8686Y-10379D01*
G01X8677Y-10372D01*
G01X8670Y-10363D01*
G01X8664Y-10358D01*
G01X8656Y-10351D01*
G01X8649Y-10342D01*
G01X8644Y-10337D01*
G01X8634Y-10330D01*
G01X8627Y-10321D01*
G01X8622Y-10315D01*
G01X8613Y-10309D01*
G01X8606Y-10303D01*
G01X8598Y-10296D01*
G01X8592Y-10292D01*
G01X8585Y-10282D01*
G01X8580Y-10277D01*
G01X8571Y-10270D01*
G01X8564Y-10262D01*
G01X8559Y-10256D01*
G01X8550Y-10249D01*
G01X8543Y-10240D01*
G01X8537Y-10235D01*
G01X8528Y-10228D01*
G01X8521Y-10219D01*
G01X8516Y-10214D01*
G01X8507Y-10207D01*
G01X8502Y-10201D01*
G01X8500Y-10198D01*
G01X8498Y-10196D01*
G01X8495Y-10194D01*
G01X8489Y-10191D01*
G01X8485Y-10188D01*
G01X8482Y-10184D01*
G01X8480Y-10182D01*
G01X8475Y-10177D01*
G01X8472Y-10176D01*
G01Y-10174D01*
G01Y-10172D01*
G01X8475Y-10171D01*
G01X8478D01*
G01X8491Y-10170D01*
G01X8568Y-10169D01*
G01X8627Y-10170D01*
G01X8644Y-10171D01*
G01X8653Y-10173D01*
G01X8656Y-10174D01*
G01X8658D01*
G01X8659Y-10175D01*
G01X8662Y-10178D01*
G01X8667Y-10184D01*
G01X8676Y-10191D01*
G01X8683Y-10200D01*
G01X8688Y-10205D01*
G01X8697Y-10212D01*
G01X8704Y-10221D01*
G01X8710Y-10226D01*
G01X8718Y-10233D01*
G01X8725Y-10242D01*
G01X8730Y-10247D01*
G01X8740Y-10254D01*
G01X8747Y-10263D01*
G01X8752Y-10269D01*
G01X8760Y-10276D01*
G01X8768Y-10284D01*
G01X8773Y-10290D01*
G01X8782Y-10297D01*
G01X8789Y-10306D01*
G01X8794Y-10311D01*
G01X8803Y-10318D01*
G01X8810Y-10327D01*
G01X8815Y-10332D01*
G01X8824Y-10339D01*
G01X8832Y-10348D01*
G01X8837Y-10354D01*
G01X8846Y-10361D01*
G01X8852Y-10369D01*
G01X8858Y-10375D01*
G01X8867Y-10381D01*
G01X8874Y-10391D01*
G01X8879Y-10396D01*
G01X8888Y-10403D01*
G01X8895Y-10412D01*
G01X8900Y-10417D01*
G01X8909Y-10424D01*
G01X8916Y-10433D01*
G01X8921Y-10438D01*
G01X8931Y-10445D01*
G01X8937Y-10454D01*
G01X8943Y-10460D01*
G01X8951Y-10466D01*
G01X8959Y-10475D01*
G01X8964Y-10481D01*
G01X8973Y-10488D01*
G01X8980Y-10497D01*
G01X8985Y-10502D01*
G01X8994Y-10509D01*
G01X9001Y-10518D01*
G01X9006Y-10523D01*
G01X9015Y-10530D01*
G01X9022Y-10539D01*
G01X9028Y-10545D01*
G01X9036Y-10551D01*
G01X9043Y-10560D01*
G01X9049Y-10565D01*
G01X9058Y-10572D01*
G01X9065Y-10582D01*
G01X9070Y-10587D01*
G01X9079Y-10594D01*
G01X9086Y-10602D01*
G01X9091Y-10608D01*
G01X9100Y-10615D01*
G01X9107Y-10624D01*
G01X9113Y-10629D01*
G01X9121Y-10636D01*
G01X9126Y-10642D01*
G01X9128Y-10645D01*
G01X9131Y-10648D01*
G01X9135Y-10650D01*
G01X9139Y-10653D01*
G01X9148Y-10657D01*
G01Y-10169D01*
G01X9283D01*
G01Y-11170D01*
G01X9432D01*
G01Y-11052D01*
G01X9924D01*
G01Y-10169D01*
G01X10059D01*
G01Y-10852D01*
G01X10216D01*
G01X10229Y-10850D01*
G01X10240Y-10848D01*
G01X10269Y-10839D01*
G01X10284Y-10836D01*
G01X10308Y-10831D01*
G01X10337Y-10822D01*
G01X10352Y-10818D01*
G01X10354Y-10833D01*
G01X10356Y-10840D01*
G01X10357Y-10846D01*
G01X10360Y-10854D01*
G01X10364Y-10865D01*
G01X10368Y-10880D01*
G01X10371Y-10890D01*
G01X10378Y-10906D01*
G01X10385Y-10921D01*
G01X10389Y-10929D01*
G01X10405Y-10955D01*
G01X10410Y-10961D01*
G01X10418Y-10970D01*
G01X10422Y-10976D01*
G01X10428Y-10981D01*
G01X10436Y-10989D01*
G01X10443Y-10997D01*
G01X10449Y-11003D01*
G01X10458Y-11009D01*
G01X10465Y-11015D01*
G01X10473Y-11022D01*
G01X10486Y-11030D01*
G01X10493Y-11034D01*
G01X10510Y-11042D01*
G01X10518Y-11046D01*
G01X10523Y-11050D01*
G01X10528Y-11052D01*
G01X10539Y-11056D01*
G01X10566Y-11064D01*
G01X10577Y-11067D01*
G01X10583Y-11068D01*
G01X10594D01*
G01X10607Y-11071D01*
G01X10614Y-11072D01*
G01X10640Y-11073D01*
G01X10649D01*
G01X10681Y-11072D01*
G01X10691Y-11071D01*
G01X10697Y-11069D01*
G01X10708Y-11067D01*
G01X10722Y-11065D01*
G01X10728Y-11064D01*
G01X10736Y-11061D01*
G01X10747Y-11056D01*
G01X10757Y-11054D01*
G01X10762Y-11053D01*
G01X10769Y-11050D01*
G01X10773Y-11048D01*
G01X10782Y-11043D01*
G01X10797Y-11036D01*
G01X10801Y-11034D01*
G01X10806Y-11031D01*
G01X10825Y-11018D01*
G01X10837Y-11009D01*
G01X10847Y-11001D01*
G01X10851Y-10997D01*
G01X10856Y-10992D01*
G01X10859Y-10987D01*
G01X10865Y-10981D01*
G01X10873Y-10974D01*
G01X10878Y-10969D01*
G01X10895Y-10945D01*
G01X10902Y-10935D01*
G01X10910Y-10920D01*
G01X10912Y-10916D01*
G01X10917Y-10904D01*
G01X10920Y-10897D01*
G01X10927Y-10882D01*
G01X10931Y-10873D01*
G01X10934Y-10864D01*
G01X10938Y-10848D01*
G01X10943Y-10837D01*
G01X10945Y-10829D01*
G01X10947Y-10822D01*
G01X10950Y-10800D01*
G01X10953Y-10787D01*
G01X10956Y-10776D01*
G01X10957Y-10769D01*
G01X10961Y-10736D01*
G01X10963Y-10717D01*
G01X10964Y-10673D01*
G01Y-10664D01*
G01X10965Y-10662D01*
G01X10966Y-10659D01*
G01Y-10654D01*
G01X10964Y-10646D01*
G01Y-10640D01*
G01X10963Y-10600D01*
G01X10962Y-10590D01*
G01X10961Y-10587D01*
G01X10960Y-10580D01*
G01X10959Y-10565D01*
G01X10958Y-10556D01*
G01X10956Y-10550D01*
G01X10953Y-10540D01*
G01X10950Y-10523D01*
G01X10942Y-10496D01*
G01X10938Y-10484D01*
G01X10934Y-10467D01*
G01X10932Y-10461D01*
G01X10930Y-10457D01*
G01X10927Y-10452D01*
G01X10925Y-10448D01*
G01X10918Y-10430D01*
G01X10915Y-10424D01*
G01X10913Y-10421D01*
G01X10908Y-10414D01*
G01X10901Y-10402D01*
G01X10898Y-10398D01*
G01X10891Y-10388D01*
G01X10881Y-10374D01*
G01X10876Y-10367D01*
G01X10871Y-10362D01*
G01X10862Y-10355D01*
G01X10857Y-10349D01*
G01X10854Y-10346D01*
G01X10851Y-10343D01*
G01X10847Y-10340D01*
G01X10837Y-10333D01*
G01X10832Y-10329D01*
G01X10829Y-10326D01*
G01X10825Y-10321D01*
G01X10822Y-10318D01*
G01X10820Y-10317D01*
G01X10813Y-10314D01*
G01X10807Y-10311D01*
G01X10797Y-10305D01*
G01X10780Y-10297D01*
G01X10772Y-10293D01*
G01X10767Y-10290D01*
G01X10762Y-10289D01*
G01X10758Y-10287D01*
G01X10744Y-10283D01*
G01X10728Y-10279D01*
G01X10719Y-10277D01*
G01X10698Y-10273D01*
G01X10685Y-10271D01*
G01X10668Y-10269D01*
G01X10650Y-10267D01*
G01X10624D01*
G01X10605D01*
G01X10595Y-10268D01*
G01X10589Y-10270D01*
G01X10581Y-10271D01*
G01X10569D01*
G01X10562Y-10273D01*
G01X10541Y-10279D01*
G01X10531Y-10282D01*
G01X10522Y-10285D01*
G01X10506Y-10293D01*
G01X10494Y-10298D01*
G01X10488Y-10302D01*
G01X10485Y-10304D01*
G01X10478Y-10309D01*
G01X10464Y-10318D01*
G01X10458Y-10324D01*
G01X10455Y-10327D01*
G01X10452Y-10331D01*
G01X10447Y-10336D01*
G01X10437Y-10343D01*
G01X10433Y-10349D01*
G01X10426Y-10358D01*
G01X10422Y-10363D01*
G01X10420Y-10366D01*
G01X10413Y-10375D01*
G01X10399Y-10399D01*
G01X10392Y-10416D01*
G01X10387Y-10424D01*
G01X10384Y-10429D01*
G01X10381Y-10436D01*
G01X10377Y-10449D01*
G01X10373Y-10458D01*
G01X10367Y-10470D01*
G01X10366Y-10472D01*
G01X10363Y-10473D01*
G01X10360Y-10474D01*
G01X10357D01*
G01X10348D01*
G01X10341Y-10472D01*
G01X10321Y-10466D01*
G01X10306Y-10462D01*
G01X10281Y-10458D01*
G01X10270Y-10454D01*
G01X10261Y-10452D01*
G01X10249Y-10450D01*
G01X10244Y-10448D01*
G01X10242Y-10447D01*
G01X10239Y-10444D01*
G01X10238Y-10442D01*
G01X10236Y-10439D01*
G01Y-10436D01*
G01Y-10432D01*
G01X10240Y-10424D01*
G01X10243Y-10414D01*
G01X10245Y-10404D01*
G01X10247Y-10397D01*
G01X10249Y-10393D01*
G01X10252Y-10389D01*
G01X10256Y-10381D01*
G01X10260Y-10369D01*
G01X10263Y-10362D01*
G01X10274Y-10345D01*
G01X10286Y-10324D01*
G01X10292Y-10316D01*
G01X10301Y-10303D01*
G01X10311Y-10289D01*
G01X10316Y-10282D01*
G01X10322Y-10277D01*
G01X10330Y-10270D01*
G01X10337Y-10262D01*
G01X10343Y-10256D01*
G01X10352Y-10249D01*
G01X10357Y-10243D01*
G01X10359Y-10240D01*
G01X10361Y-10238D01*
G01X10364Y-10236D01*
G01X10370Y-10234D01*
G01X10373Y-10232D01*
G01X10375Y-10231D01*
G01X10380Y-10227D01*
G01X10388Y-10220D01*
G01X10401Y-10211D01*
G01X10408Y-10207D01*
G01X10424Y-10199D01*
G01X10434Y-10193D01*
G01X10438Y-10190D01*
G01X10450Y-10186D01*
G01X10461Y-10182D01*
G01X10475Y-10176D01*
G01X10485Y-10172D01*
G01X10499Y-10169D01*
G01X10515Y-10165D01*
G01X10524Y-10163D01*
G01X10545Y-10158D01*
G01X10558Y-10156D01*
G01X10575Y-10154D01*
G01X10590Y-10153D01*
G01X10643Y-10152D01*
G01X10686Y-10153D01*
G01X10695Y-10154D01*
G01X10697D01*
G01X10701Y-10155D01*
G01X10709Y-10156D01*
G01X10721Y-10157D01*
G01X10732Y-10159D01*
G01X10742Y-10162D01*
G01X10756Y-10164D01*
G01X10762Y-10165D01*
G01X10770Y-10168D01*
G01X10781Y-10173D01*
G01X10797Y-10177D01*
G01X10806Y-10180D01*
G01X10819Y-10185D01*
G01X10832Y-10189D01*
G01X10839Y-10193D01*
G01X10849Y-10199D01*
G01X10867Y-10206D01*
G01X10874Y-10210D01*
G01X10910Y-10233D01*
G01X10922Y-10241D01*
G01X10940Y-10256D01*
G01X10947Y-10261D01*
G01X10952Y-10266D01*
G01X10960Y-10275D01*
G01X10968Y-10281D01*
G01X10973Y-10287D01*
G01X10980Y-10296D01*
G01X10987Y-10301D01*
G01X10990Y-10303D01*
G01X10992Y-10305D01*
G01X10994Y-10308D01*
G01X10996Y-10314D01*
G01X10999Y-10320D01*
G01X11003Y-10324D01*
G01X11010Y-10332D01*
G01X11024Y-10352D01*
G01X11026Y-10356D01*
G01X11029Y-10361D01*
G01X11035Y-10375D01*
G01X11037Y-10378D01*
G01X11041Y-10384D01*
G01X11046Y-10391D01*
G01X11048Y-10396D01*
G01X11057Y-10417D01*
G01X11063Y-10432D01*
G01X11068Y-10443D01*
G01X11073Y-10458D01*
G01X11077Y-10470D01*
G01X11082Y-10490D01*
G01X11086Y-10505D01*
G01X11088Y-10515D01*
G01X11093Y-10536D01*
G01X11097Y-10561D01*
G01X11101Y-10595D01*
G01X11102Y-10608D01*
G01X11103Y-10676D01*
G01X11102Y-10731D01*
G01X11101Y-10742D01*
G01X11100Y-10747D01*
G01X11099Y-10755D01*
G01X11098Y-10767D01*
G01X11096Y-10777D01*
G01X11094Y-10789D01*
G01X11090Y-10811D01*
G01X11088Y-10820D01*
G01X11082Y-10841D01*
G01X11076Y-10862D01*
G01X11074Y-10872D01*
G01X11071Y-10882D01*
G01X11070Y-10884D01*
G01X11244D01*
G01X11245Y-10878D01*
G01X11247Y-10858D01*
G01X11248Y-10844D01*
G01X11249Y-10836D01*
G01X11252Y-10825D01*
G01X11255Y-10811D01*
G01X11258Y-10801D01*
G01X11264Y-10788D01*
G01X11267Y-10778D01*
G01X11268Y-10774D01*
G01X11270Y-10769D01*
G01X11279Y-10756D01*
G01X11283Y-10750D01*
G01X11288Y-10742D01*
G01X11290Y-10739D01*
G01X11293Y-10736D01*
G01X11296Y-10733D01*
G01X11299Y-10731D01*
G01X11301Y-10728D01*
G01X11303Y-10726D01*
G01X11308Y-10717D01*
G01X11310Y-10714D01*
G01X11316Y-10710D01*
G01X11321Y-10705D01*
G01X11326Y-10698D01*
G01X11329Y-10695D01*
G01X11332Y-10693D01*
G01X11344Y-10687D01*
G01X11348Y-10683D01*
G01X11352Y-10680D01*
G01X11355Y-10678D01*
G01X11364Y-10672D01*
G01X11388Y-10657D01*
G01X11405Y-10650D01*
G01X11413Y-10645D01*
G01X11418Y-10642D01*
G01X11423Y-10640D01*
G01X11434Y-10635D01*
G01X11446Y-10631D01*
G01X11459Y-10625D01*
G01X11465Y-10623D01*
G01X11470Y-10622D01*
G01X11482Y-10620D01*
G01X11488Y-10618D01*
G01X11493Y-10617D01*
G01X11502Y-10613D01*
G01X11507Y-10611D01*
G01X11513Y-10609D01*
G01X11530Y-10606D01*
G01X11559Y-10597D01*
G01X11573Y-10594D01*
G01X11598Y-10589D01*
G01X11609Y-10586D01*
G01X11619Y-10584D01*
G01X11636Y-10581D01*
G01X11665Y-10572D01*
G01X11679Y-10568D01*
G01X11704Y-10563D01*
G01X11782Y-10538D01*
G01X11791Y-10535D01*
G01X11799Y-10531D01*
G01X11808Y-10525D01*
G01X11823Y-10519D01*
G01X11827Y-10517D01*
G01X11830Y-10514D01*
G01X11833Y-10511D01*
G01X11837Y-10505D01*
G01X11847Y-10497D01*
G01X11850Y-10494D01*
G01X11853Y-10490D01*
G01X11856Y-10485D01*
G01X11861Y-10477D01*
G01X11864Y-10469D01*
G01X11867Y-10464D01*
G01X11869Y-10458D01*
G01X11870Y-10452D01*
G01X11872Y-10445D01*
G01X11873Y-10438D01*
G01X11875Y-10427D01*
G01Y-10415D01*
G01Y-10399D01*
G01X11873Y-10389D01*
G01X11872Y-10384D01*
G01X11866Y-10370D01*
G01X11860Y-10357D01*
G01X11857Y-10352D01*
G01X11855Y-10348D01*
G01X11848Y-10340D01*
G01X11843Y-10334D01*
G01X11838Y-10328D01*
G01X11829Y-10322D01*
G01X11822Y-10315D01*
G01X11819Y-10313D01*
G01X11809Y-10307D01*
G01X11792Y-10296D01*
G01X11789Y-10294D01*
G01X11785Y-10293D01*
G01X11781Y-10291D01*
G01X11770Y-10289D01*
G01X11761Y-10285D01*
G01X11752Y-10282D01*
G01X11748Y-10280D01*
G01X11743Y-10279D01*
G01X11735D01*
G01X11728Y-10278D01*
G01X11721Y-10276D01*
G01X11708Y-10274D01*
G01X11699Y-10273D01*
G01X11685Y-10272D01*
G01X11638Y-10271D01*
G01X11603D01*
G01X11591Y-10272D01*
G01X11585Y-10274D01*
G01X11578Y-10275D01*
G01X11566Y-10276D01*
G01X11559Y-10277D01*
G01X11540Y-10283D01*
G01X11519Y-10291D01*
G01X11509Y-10295D01*
G01X11502Y-10300D01*
G01X11483Y-10311D01*
G01X11478Y-10314D01*
G01X11472Y-10319D01*
G01X11469Y-10322D01*
G01X11466Y-10327D01*
G01X11460Y-10332D01*
G01X11454Y-10337D01*
G01X11451Y-10340D01*
G01X11449Y-10343D01*
G01X11443Y-10354D01*
G01X11439Y-10360D01*
G01X11433Y-10369D01*
G01X11428Y-10378D01*
G01X11425Y-10384D01*
G01X11418Y-10403D01*
G01X11414Y-10417D01*
G01X11412Y-10427D01*
G01X11410Y-10441D01*
G01X11407Y-10450D01*
G01X11405Y-10454D01*
G01X11404Y-10455D01*
G01X11402Y-10458D01*
G01X11397Y-10460D01*
G01X11392Y-10461D01*
G01X11385Y-10462D01*
G01X11375Y-10461D01*
G01X11368D01*
G01X11364Y-10460D01*
G01X11360Y-10459D01*
G01X11354Y-10458D01*
G01X11337D01*
G01X11323Y-10457D01*
G01X11316D01*
G01X11310Y-10456D01*
G01X11300Y-10454D01*
G01X11288Y-10453D01*
G01X11273D01*
G01X11276Y-10437D01*
G01X11277Y-10432D01*
G01Y-10413D01*
G01X11278Y-10404D01*
G01X11286Y-10379D01*
G01X11294Y-10352D01*
G01X11298Y-10340D01*
G01X11302Y-10330D01*
G01X11309Y-10319D01*
G01X11313Y-10311D01*
G01X11321Y-10297D01*
G01X11326Y-10288D01*
G01X11328Y-10284D01*
G01X11334Y-10279D01*
G01X11337Y-10277D01*
G01X11340Y-10275D01*
G01X11342Y-10272D01*
G01X11344Y-10266D01*
G01X11348Y-10261D01*
G01X11354Y-10256D01*
G01X11359Y-10250D01*
G01X11367Y-10242D01*
G01X11373Y-10237D01*
G01X11396Y-10220D01*
G01X11427Y-10201D01*
G01X11431Y-10199D01*
G01X11455Y-10188D01*
G01X11468Y-10182D01*
G01X11481Y-10178D01*
G01X11489Y-10175D01*
G01X11498Y-10171D01*
G01X11504Y-10170D01*
G01X11511Y-10168D01*
G01X11533Y-10165D01*
G01X11546Y-10162D01*
G01X11556Y-10159D01*
G01X11564Y-10158D01*
G01X11593Y-10154D01*
G01X11600Y-10153D01*
G01X11627Y-10152D01*
G01X11661D01*
G01X11707Y-10153D01*
G01X11718Y-10154D01*
G01X11720D01*
G01X11724Y-10155D01*
G01X11731Y-10156D01*
G01X11743Y-10157D01*
G01X11750Y-10158D01*
G01X11754Y-10159D01*
G01X11763Y-10162D01*
G01X11780Y-10165D01*
G01X11807Y-10173D01*
G01X11828Y-10181D01*
G01X11852Y-10190D01*
G01X11859Y-10194D01*
G01X11867Y-10198D01*
G01X11886Y-10209D01*
G01X11894Y-10214D01*
G01X11907Y-10224D01*
G01X11912Y-10228D01*
G01X11916Y-10232D01*
G01X11921Y-10237D01*
G01X11924Y-10242D01*
G01X11929Y-10247D01*
G01X11939Y-10254D01*
G01X11943Y-10260D01*
G01X11949Y-10269D01*
G01X11954Y-10273D01*
G01X11956Y-10277D01*
G01X11962Y-10285D01*
G01X11977Y-10310D01*
G01X11981Y-10320D01*
G01X11990Y-10341D01*
G01X11994Y-10353D01*
G01X11998Y-10366D01*
G01X12000Y-10373D01*
G01X12002Y-10380D01*
G01Y-10386D01*
G01X12003Y-10397D01*
G01X12004Y-10405D01*
G01X12005Y-10409D01*
G01X12006Y-10413D01*
G01Y-10419D01*
G01X12007Y-10436D01*
G01Y-10450D01*
G01X12006Y-10457D01*
G01X12005Y-10463D01*
G01X12004Y-10467D01*
G01X12002Y-10478D01*
G01X11999Y-10492D01*
G01X11997Y-10500D01*
G01X11995Y-10504D01*
G01X11990Y-10513D01*
G01X11986Y-10525D01*
G01X11983Y-10533D01*
G01X11977Y-10543D01*
G01X11971Y-10555D01*
G01X11967Y-10560D01*
G01X11960Y-10570D01*
G01X11956Y-10575D01*
G01X11952Y-10579D01*
G01X11947Y-10584D01*
G01X11942Y-10587D01*
G01X11937Y-10592D01*
G01X11930Y-10601D01*
G01X11916Y-10612D01*
G01X11911Y-10617D01*
G01X11908Y-10619D01*
G01X11898Y-10625D01*
G01X11864Y-10646D01*
G01X11859Y-10649D01*
G01X11854Y-10652D01*
G01X11848Y-10655D01*
G01X11830Y-10661D01*
G01X11826Y-10663D01*
G01X12568D01*
G01Y-10658D01*
G01X12569Y-10653D01*
G01X12570Y-10642D01*
G01X12571Y-10587D01*
G01X12572Y-10576D01*
G01X12574Y-10571D01*
G01X12575Y-10562D01*
G01X12576Y-10548D01*
G01X12577Y-10542D01*
G01X12579Y-10536D01*
G01X12581Y-10526D01*
G01X12584Y-10506D01*
G01X12588Y-10490D01*
G01X12592Y-10471D01*
G01X12600Y-10445D01*
G01X12608Y-10424D01*
G01X12618Y-10400D01*
G01X12621Y-10393D01*
G01X12625Y-10385D01*
G01X12630Y-10376D01*
G01X12637Y-10361D01*
G01X12640Y-10356D01*
G01X12642Y-10353D01*
G01X12645Y-10349D01*
G01X12649Y-10343D01*
G01X12656Y-10331D01*
G01X12659Y-10327D01*
G01X12666Y-10318D01*
G01X12673Y-10309D01*
G01X12679Y-10303D01*
G01X12685Y-10294D01*
G01X12690Y-10289D01*
G01X12699Y-10281D01*
G01X12705Y-10276D01*
G01X12712Y-10267D01*
G01X12717Y-10263D01*
G01X12726Y-10256D01*
G01X12736Y-10247D01*
G01X12753Y-10235D01*
G01X12760Y-10230D01*
G01X12766Y-10227D01*
G01X12778Y-10220D01*
G01X12788Y-10213D01*
G01X12792Y-10211D01*
G01X12802Y-10207D01*
G01X12823Y-10199D01*
G01X12844Y-10191D01*
G01X12856Y-10187D01*
G01X12866Y-10185D01*
G01X12883Y-10182D01*
G01X12895Y-10179D01*
G01X12908Y-10176D01*
G01X12917Y-10175D01*
G01X12938Y-10174D01*
G01X12952Y-10173D01*
G01X12959Y-10171D01*
G01X12961D01*
G01X12975Y-10170D01*
G01X13182Y-10169D01*
G01X13398D01*
G01X13619D01*
G01X13751D01*
G01Y-10555D01*
G01X13753Y-10927D01*
G01X13754Y-10937D01*
G01Y-10939D01*
G01X13755D01*
G01X13759Y-10935D01*
G01X13762Y-10931D01*
G01X13773Y-10914D01*
G01X13784Y-10898D01*
G01X13799Y-10876D01*
G01X13810Y-10860D01*
G01X13824Y-10838D01*
G01X13835Y-10822D01*
G01X13850Y-10800D01*
G01X13861Y-10784D01*
G01X13875Y-10761D01*
G01X13886Y-10745D01*
G01X13900Y-10723D01*
G01X13912Y-10707D01*
G01X13923Y-10689D01*
G01X13933Y-10676D01*
G01X13941Y-10665D01*
G01X13956Y-10643D01*
G01X13966Y-10627D01*
G01X13981Y-10604D01*
G01X13992Y-10589D01*
G01X14007Y-10566D01*
G01X14018Y-10550D01*
G01X14032Y-10528D01*
G01X14043Y-10512D01*
G01X14057Y-10490D01*
G01X14069Y-10474D01*
G01X14083Y-10452D01*
G01X14094Y-10436D01*
G01X14108Y-10413D01*
G01X14119Y-10398D01*
G01X14134Y-10375D01*
G01X14145Y-10360D01*
G01X14159Y-10337D01*
G01X14170Y-10321D01*
G01X14185Y-10299D01*
G01X14196Y-10283D01*
G01X14210Y-10261D01*
G01X14221Y-10245D01*
G01X14236Y-10222D01*
G01X14247Y-10207D01*
G01X14257Y-10191D01*
G01X14260Y-10186D01*
G01X14264Y-10182D01*
G01X14268Y-10177D01*
G01X14271Y-10176D01*
G01X14276Y-10174D01*
G01X14282Y-10172D01*
G01X14302Y-10170D01*
G01X14344Y-10169D01*
G01X14412D01*
G01Y-10846D01*
G01X14603D01*
G01Y-10661D01*
G01X14616Y-10659D01*
G01X14628Y-10658D01*
G01X14777Y-10657D01*
G01X14929Y-10658D01*
G01X14935Y-10659D01*
G01X14936D01*
G01X14938D01*
G01X14946Y-10660D01*
G01X14987Y-10661D01*
G01X15032D01*
G01Y-10780D01*
G01X14735D01*
G01Y-10871D01*
G01X14736Y-10933D01*
G01X14737Y-10950D01*
G01X14739Y-10961D01*
G01Y-10964D01*
G01X14740Y-10965D01*
G01Y-10966D01*
G01X14741D01*
G01Y-10967D01*
G01X14747Y-10971D01*
G01X14754Y-10977D01*
G01X14757Y-10980D01*
G01X14767Y-10985D01*
G01X14791Y-11001D01*
G01X14808Y-11008D01*
G01X14816Y-11012D01*
G01X14825Y-11018D01*
G01X14849Y-11028D01*
G01X14861Y-11033D01*
G01X14875Y-11039D01*
G01X14900Y-11047D01*
G01X14910Y-11050D01*
G01X14919Y-11053D01*
G01X14937Y-11056D01*
G01X14948Y-11059D01*
G01X14961Y-11061D01*
G01X14970Y-11062D01*
G01X14991Y-11064D01*
G01X15006Y-11065D01*
G01X15012Y-11066D01*
G01X15016Y-11067D01*
G01X15026Y-11068D01*
G01X15037D01*
G01X15047Y-11067D01*
G01X15051Y-11066D01*
G01X15055Y-11065D01*
G01X15060D01*
G01X15085Y-11064D01*
G01X15094Y-11063D01*
G01X15101Y-11061D01*
G01X15111Y-11059D01*
G01X15126Y-11057D01*
G01X15132Y-11055D01*
G01X15139Y-11053D01*
G01X15151Y-11048D01*
G01X15166Y-11044D01*
G01X15175Y-11041D01*
G01X15191Y-11033D01*
G01X15199Y-11030D01*
G01X15214Y-11024D01*
G01X15226Y-11018D01*
G01X15250Y-11003D01*
G01X15255Y-11000D01*
G01X15261Y-10995D01*
G01X15264Y-10992D01*
G01X15267Y-10987D01*
G01X15269Y-10984D01*
G01X15279Y-10980D01*
G01X15281Y-10978D01*
G01X15284Y-10976D01*
G01X15288Y-10970D01*
G01X15294Y-10965D01*
G01X15300Y-10960D01*
G01X15302Y-10957D01*
G01X15305Y-10953D01*
G01X15310Y-10946D01*
G01X15312Y-10942D01*
G01X15315Y-10939D01*
G01X15318Y-10937D01*
G01X15321Y-10935D01*
G01X15323Y-10932D01*
G01X15325Y-10929D01*
G01X15327Y-10923D01*
G01X15331Y-10917D01*
G01X15343Y-10897D01*
G01X15349Y-10885D01*
G01X15352Y-10879D01*
G01X15357Y-10865D01*
G01X15361Y-10856D01*
G01X15364Y-10850D01*
G01X15366Y-10846D01*
G01X15368Y-10841D01*
G01X15370Y-10829D01*
G01X15372Y-10823D01*
G01X15373Y-10818D01*
G01X15377Y-10809D01*
G01X15379Y-10803D01*
G01X15380Y-10795D01*
G01X15384Y-10771D01*
G01X15385Y-10761D01*
G01X15387Y-10757D01*
G01X15388Y-10750D01*
G01Y-10738D01*
G01X15390Y-10731D01*
G01Y-10728D01*
G01X15391Y-10719D01*
G01X15392Y-10663D01*
G01X15391Y-10608D01*
G01X15390Y-10597D01*
G01X15389Y-10592D01*
G01X15388Y-10585D01*
G01X15387Y-10572D01*
G01X15386Y-10566D01*
G01X15385Y-10562D01*
G01X15383Y-10553D01*
G01X15379Y-10535D01*
G01X15362Y-10483D01*
G01X15355Y-10462D01*
G01X15351Y-10452D01*
G01X15347Y-10444D01*
G01X15341Y-10436D01*
G01X15333Y-10422D01*
G01X15329Y-10415D01*
G01X15320Y-10402D01*
G01X15311Y-10387D01*
G01X15306Y-10381D01*
G01X15302Y-10378D01*
G01X15298Y-10375D01*
G01X15293Y-10369D01*
G01X15286Y-10361D01*
G01X15277Y-10354D01*
G01X15271Y-10348D01*
G01X15267Y-10342D01*
G01X15264Y-10339D01*
G01X15260Y-10337D01*
G01X15249Y-10330D01*
G01X15245Y-10327D01*
G01X15242Y-10324D01*
G01X15235Y-10320D01*
G01X15223Y-10313D01*
G01X15213Y-10307D01*
G01X15208Y-10305D01*
G01X15197Y-10301D01*
G01X15185Y-10296D01*
G01X15169Y-10289D01*
G01X15155Y-10283D01*
G01X15148Y-10281D01*
G01X15141Y-10280D01*
G01X15129Y-10278D01*
G01X15110Y-10275D01*
G01X15098Y-10272D01*
G01X15091Y-10271D01*
G01X15079Y-10270D01*
G01X15072Y-10269D01*
G01X15070Y-10268D01*
G01X15063Y-10267D01*
G01X15036D01*
G01X15027D01*
G01X14996D01*
G01X14985Y-10268D01*
G01X14979Y-10270D01*
G01X14972Y-10271D01*
G01X14960D01*
G01X14953Y-10273D01*
G01X14932Y-10279D01*
G01X14904Y-10288D01*
G01X14893Y-10292D01*
G01X14866Y-10305D01*
G01X14860Y-10308D01*
G01X14853Y-10312D01*
G01X14829Y-10330D01*
G01X14821Y-10337D01*
G01X14813Y-10343D01*
G01X14810Y-10345D01*
G01X14808Y-10348D01*
G01X14806Y-10350D01*
G01X14803Y-10357D01*
G01X14802Y-10360D01*
G01X14799Y-10362D01*
G01X14793Y-10366D01*
G01X14791Y-10369D01*
G01X14789Y-10372D01*
G01X14786Y-10378D01*
G01X14783Y-10385D01*
G01X14777Y-10395D01*
G01X14770Y-10412D01*
G01X14766Y-10420D01*
G01X14762Y-10425D01*
G01X14759Y-10432D01*
G01X14755Y-10445D01*
G01X14750Y-10458D01*
G01X14746Y-10467D01*
G01X14743Y-10483D01*
G01X14728Y-10481D01*
G01X14721Y-10480D01*
G01X14715Y-10478D01*
G01X14707Y-10475D01*
G01X14697Y-10471D01*
G01X14692Y-10470D01*
G01X14675Y-10467D01*
G01X14669Y-10465D01*
G01X14660Y-10463D01*
G01X14651Y-10459D01*
G01X14645Y-10457D01*
G01X14631Y-10455D01*
G01X14628Y-10454D01*
G01X14626Y-10453D01*
G01X14624Y-10452D01*
G01X14621Y-10449D01*
G01X14620Y-10447D01*
G01Y-10440D01*
G01X14622Y-10432D01*
G01X14626Y-10424D01*
G01X14629Y-10414D01*
G01X14633Y-10399D01*
G01X14640Y-10383D01*
G01X14646Y-10368D01*
G01X14649Y-10360D01*
G01X14653Y-10351D01*
G01X14658Y-10342D01*
G01X14665Y-10327D01*
G01X14668Y-10322D01*
G01X14671Y-10316D01*
G01X14683Y-10301D01*
G01X14693Y-10285D01*
G01X14698Y-10279D01*
G01X14701Y-10276D01*
G01X14706Y-10273D01*
G01X14711Y-10268D01*
G01X14718Y-10259D01*
G01X14727Y-10251D01*
G01X14733Y-10246D01*
G01X14737Y-10240D01*
G01X14739Y-10238D01*
G01X14742Y-10236D01*
G01X14748Y-10234D01*
G01X14753Y-10231D01*
G01X14758Y-10227D01*
G01X14765Y-10222D01*
G01X14775Y-10216D01*
G01X14781Y-10212D01*
G01X14790Y-10206D01*
G01X14796Y-10203D01*
G01X14801Y-10202D01*
G01X14810Y-10198D01*
G01X14817Y-10195D01*
G01X14825Y-10190D01*
G01X14834Y-10186D01*
G01X14854Y-10179D01*
G01X14857Y-10177D01*
G01X14885Y-10169D01*
G01X14897Y-10166D01*
G01X14909Y-10164D01*
G01X14931Y-10161D01*
G01X14944Y-10157D01*
G01X14952Y-10156D01*
G01X14967D01*
G01X14973Y-10155D01*
G01X14977Y-10154D01*
G01X14987Y-10153D01*
G01X15040Y-10152D01*
G01X15094Y-10153D01*
G01X15104Y-10154D01*
G01X15109Y-10155D01*
G01X15118Y-10156D01*
G01X15132Y-10157D01*
G01X15138Y-10158D01*
G01X15143Y-10159D01*
G01X15154Y-10162D01*
G01X15173Y-10165D01*
G01X15182Y-10167D01*
G01X15227Y-10182D01*
G01X15247Y-10189D01*
G01X15271Y-10199D01*
G01X15279Y-10202D01*
G01X15287Y-10206D01*
G01X15295Y-10211D01*
G01X15310Y-10219D01*
G01X15316Y-10223D01*
G01X15329Y-10233D01*
G01X15346Y-10243D01*
G01X15353Y-10248D01*
G01X15361Y-10256D01*
G01X15368Y-10261D01*
G01X15373Y-10266D01*
G01X15380Y-10275D01*
G01X15389Y-10281D01*
G01X15394Y-10287D01*
G01X15401Y-10296D01*
G01X15407Y-10301D01*
G01X15410Y-10303D01*
G01X15412Y-10305D01*
G01X15414Y-10308D01*
G01X15417Y-10314D01*
G01X15420Y-10320D01*
G01X15424Y-10324D01*
G01X15431Y-10332D01*
G01X15445Y-10354D01*
G01X15449Y-10360D01*
G01X15456Y-10372D01*
G01X15462Y-10383D01*
G01X15464Y-10387D01*
G01X15472Y-10403D01*
G01X15476Y-10411D01*
G01X15479Y-10416D01*
G01X15482Y-10424D01*
G01X15486Y-10436D01*
G01X15493Y-10452D01*
G01X15498Y-10466D01*
G01X15507Y-10491D01*
G01X15510Y-10501D01*
G01X15512Y-10511D01*
G01X15515Y-10528D01*
G01X15518Y-10539D01*
G01X15520Y-10550D01*
G01X15521Y-10557D01*
G01X15527Y-10590D01*
G01X15528Y-10602D01*
G01X15529Y-10610D01*
G01X15530Y-10617D01*
G01X15531Y-10619D01*
G01Y-10628D01*
G01X15532Y-10680D01*
G01X15531Y-10732D01*
G01Y-10742D01*
G01X15529Y-10747D01*
G01X15528Y-10756D01*
G01Y-10771D01*
G01X15527Y-10776D01*
G01X15524Y-10782D01*
G01X15522Y-10793D01*
G01X15519Y-10815D01*
G01X15517Y-10824D01*
G01X15511Y-10846D01*
G01X15503Y-10873D01*
G01X15498Y-10885D01*
G01X15491Y-10902D01*
G01X15485Y-10916D01*
G01X15482Y-10925D01*
G01X15478Y-10933D01*
G01X15473Y-10942D01*
G01X15464Y-10958D01*
G01X15449Y-10981D01*
G01X15444Y-10990D01*
G01X15435Y-11003D01*
G01X15424Y-11016D01*
G01X15420Y-11023D01*
G01X15414Y-11028D01*
G01X15408Y-11033D01*
G01X15402Y-11039D01*
G01X15392Y-11051D01*
G01X15387Y-11055D01*
G01X15383Y-11058D01*
G01X15378Y-11063D01*
G01X15373Y-11069D01*
G01X15370Y-11073D01*
G01X15365Y-11076D01*
G01X15353Y-11084D01*
G01X15347Y-11089D01*
G01X15343Y-11092D01*
G01X15340Y-11094D01*
G01X15330Y-11100D01*
G01X15297Y-11122D01*
G01X15281Y-11130D01*
G01X15268Y-11135D01*
G01X15260Y-11139D01*
G01X15255Y-11142D01*
G01X15248Y-11146D01*
G01X15235Y-11150D01*
G01X15222Y-11155D01*
G01X15213Y-11158D01*
G01X15198Y-11162D01*
G01X15171Y-11170D01*
G01X15165Y-11172D01*
G01X15158Y-11174D01*
G01X15146Y-11176D01*
G01X15128Y-11179D01*
G01X15115Y-11182D01*
G01X15108Y-11183D01*
G01X15096Y-11184D01*
G01X15089Y-11185D01*
G01X15085Y-11186D01*
G01X15077Y-11187D01*
G01X15036Y-11188D01*
G01X15028D01*
G01X15026Y-11189D01*
G01X15025D01*
G01X15024Y-11190D01*
G01X15021D01*
G01X15012Y-11189D01*
G01X15006Y-11188D01*
G01X14994D01*
G01X14958Y-11187D01*
G01X14947Y-11186D01*
G01X14941Y-11184D01*
G01X14934Y-11183D01*
G01X14922D01*
G01X14911Y-11180D01*
G01X14901Y-11178D01*
G01X14881Y-11174D01*
G01X14872Y-11172D01*
G01X14803Y-11149D01*
G01X14791Y-11145D01*
G01X14770Y-11135D01*
G01X14755Y-11129D01*
G01X14747Y-11125D01*
G01X14738Y-11119D01*
G01X14721Y-11112D01*
G01X14713Y-11107D01*
G01X14653Y-11070D01*
G01X14647Y-11065D01*
G01X14643Y-11062D01*
G01X14640Y-11059D01*
G01X14624Y-11049D01*
G01X14617Y-11044D01*
G01X14608Y-11034D01*
G01X14607Y-11031D01*
G01X14604Y-11006D01*
G01X14603Y-10846D01*
G01X14412D01*
G01Y-11170D01*
G01X14280D01*
G01Y-10784D01*
G01X14278Y-10412D01*
G01X14277Y-10402D01*
G01Y-10400D01*
G01X14276D01*
G01X14274Y-10402D01*
G01X14272Y-10404D01*
G01X14269Y-10408D01*
G01X14258Y-10425D01*
G01X14247Y-10441D01*
G01X14232Y-10464D01*
G01X14221Y-10479D01*
G01X14207Y-10502D01*
G01X14196Y-10518D01*
G01X14181Y-10540D01*
G01X14170Y-10556D01*
G01X14156Y-10578D01*
G01X14145Y-10594D01*
G01X14131Y-10616D01*
G01X14119Y-10632D01*
G01X14105Y-10654D01*
G01X14094Y-10670D01*
G01X14080Y-10693D01*
G01X14069Y-10708D01*
G01X14054Y-10731D01*
G01X14043Y-10747D01*
G01X14029Y-10769D01*
G01X14018Y-10785D01*
G01X14004Y-10807D01*
G01X13992Y-10823D01*
G01X13978Y-10845D01*
G01X13966Y-10861D01*
G01X13952Y-10883D01*
G01X13941Y-10899D01*
G01X13927Y-10922D01*
G01X13916Y-10937D01*
G01X13901Y-10960D01*
G01X13890Y-10976D01*
G01X13876Y-10998D01*
G01X13865Y-11014D01*
G01X13851Y-11036D01*
G01X13839Y-11052D01*
G01X13825Y-11074D01*
G01X13814Y-11090D01*
G01X13800Y-11112D01*
G01X13789Y-11128D01*
G01X13774Y-11151D01*
G01X13766Y-11161D01*
G01X13763Y-11164D01*
G01X13760Y-11167D01*
G01X13757Y-11168D01*
G01X13754D01*
G01X13743Y-11169D01*
G01X13685Y-11170D01*
G01X13619D01*
G01Y-10169D01*
G01X13398D01*
G01Y-11170D01*
G01X13175D01*
G01X12952Y-11169D01*
G01X12947Y-11168D01*
G01X12946D01*
G01X12943Y-11167D01*
G01X12935Y-11166D01*
G01X12920Y-11165D01*
G01X12914Y-11164D01*
G01X12909Y-11163D01*
G01X12898Y-11161D01*
G01X12878Y-11158D01*
G01X12870Y-11155D01*
G01X12825Y-11140D01*
G01X12805Y-11133D01*
G01X12795Y-11129D01*
G01X12787Y-11125D01*
G01X12751Y-11102D01*
G01X12739Y-11094D01*
G01X12734Y-11090D01*
G01X12723Y-11080D01*
G01X12717Y-11075D01*
G01X12709Y-11068D01*
G01X12706Y-11066D01*
G01X12704Y-11064D01*
G01X12702Y-11061D01*
G01X12699Y-11055D01*
G01X12695Y-11050D01*
G01X12689Y-11045D01*
G01X12685Y-11041D01*
G01X12682Y-11037D01*
G01X12676Y-11028D01*
G01X12671Y-11022D01*
G01X12668Y-11019D01*
G01X12663Y-11015D01*
G01X12661Y-11012D01*
G01X12659Y-11009D01*
G01X12657Y-11001D01*
G01X12655Y-10997D01*
G01X12654Y-10995D01*
G01X12649Y-10990D01*
G01X12647Y-10986D01*
G01X12641Y-10977D01*
G01X12637Y-10969D01*
G01X12632Y-10961D01*
G01X12624Y-10941D01*
G01X12617Y-10926D01*
G01X12613Y-10918D01*
G01X12606Y-10898D01*
G01X12596Y-10869D01*
G01X12593Y-10860D01*
G01X12591Y-10850D01*
G01X12588Y-10833D01*
G01X12585Y-10821D01*
G01X12583Y-10810D01*
G01X12582Y-10803D01*
G01X12576Y-10770D01*
G01X12575Y-10759D01*
G01Y-10751D01*
G01X12573Y-10744D01*
G01X12572Y-10739D01*
G01X12571Y-10730D01*
G01X12570Y-10677D01*
G01X12569Y-10668D01*
G01Y-10666D01*
G01X12568Y-10663D01*
G01X11826D01*
G01X11816Y-10667D01*
G01X11807Y-10671D01*
G01X11792Y-10675D01*
G01X11769Y-10682D01*
G01X11741Y-10691D01*
G01X11722Y-10696D01*
G01X11706Y-10699D01*
G01X11678Y-10708D01*
G01X11667Y-10711D01*
G01X11656Y-10713D01*
G01X11635Y-10716D01*
G01X11627Y-10718D01*
G01X11606Y-10725D01*
G01X11576Y-10733D01*
G01X11556Y-10739D01*
G01X11541Y-10742D01*
G01X11514Y-10750D01*
G01X11494Y-10758D01*
G01X11470Y-10767D01*
G01X11463Y-10771D01*
G01X11455Y-10775D01*
G01X11436Y-10786D01*
G01X11431Y-10789D01*
G01X11425Y-10794D01*
G01X11422Y-10798D01*
G01X11419Y-10802D01*
G01X11414Y-10807D01*
G01X11408Y-10812D01*
G01X11404Y-10815D01*
G01X11401Y-10819D01*
G01X11398Y-10824D01*
G01X11393Y-10833D01*
G01X11389Y-10840D01*
G01X11387Y-10846D01*
G01X11383Y-10857D01*
G01X11379Y-10871D01*
G01X11376Y-10886D01*
G01X11375Y-10895D01*
G01Y-10914D01*
G01X11376Y-10923D01*
G01X11377Y-10926D01*
G01X11383Y-10945D01*
G01X11385Y-10951D01*
G01X11388Y-10958D01*
G01X11390Y-10963D01*
G01X11393Y-10969D01*
G01X11404Y-10985D01*
G01X11409Y-10992D01*
G01X11418Y-10999D01*
G01X11423Y-11004D01*
G01X11428Y-11010D01*
G01X11432Y-11013D01*
G01X11436Y-11016D01*
G01X11440Y-11020D01*
G01X11461Y-11032D01*
G01X11467Y-11035D01*
G01X11472Y-11038D01*
G01X11476Y-11039D01*
G01X11489Y-11043D01*
G01X11502Y-11049D01*
G01X11507Y-11051D01*
G01X11513Y-11053D01*
G01X11530Y-11056D01*
G01X11545Y-11060D01*
G01X11555Y-11062D01*
G01X11563Y-11063D01*
G01X11574Y-11064D01*
G01X11582Y-11065D01*
G01X11589Y-11066D01*
G01X11594Y-11067D01*
G01X11602Y-11068D01*
G01X11627D01*
G01X11653D01*
G01X11662Y-11067D01*
G01X11665Y-11066D01*
G01X11673Y-11065D01*
G01X11687Y-11064D01*
G01X11696Y-11063D01*
G01X11703Y-11061D01*
G01X11712Y-11059D01*
G01X11724Y-11057D01*
G01X11730Y-11055D01*
G01X11735Y-11054D01*
G01X11744Y-11050D01*
G01X11754Y-11046D01*
G01X11764Y-11044D01*
G01X11770Y-11041D01*
G01X11774Y-11040D01*
G01X11783Y-11034D01*
G01X11798Y-11028D01*
G01X11802Y-11026D01*
G01X11821Y-11013D01*
G01X11835Y-11004D01*
G01X11841Y-10999D01*
G01X11845Y-10996D01*
G01X11848Y-10991D01*
G01X11853Y-10986D01*
G01X11859Y-10981D01*
G01X11862Y-10978D01*
G01X11866Y-10974D01*
G01X11877Y-10957D01*
G01X11885Y-10945D01*
G01X11887Y-10940D01*
G01X11890Y-10935D01*
G01X11896Y-10917D01*
G01X11902Y-10903D01*
G01X11904Y-10898D01*
G01X11906Y-10892D01*
G01X11909Y-10875D01*
G01X11912Y-10864D01*
G01X11915Y-10854D01*
G01X11916Y-10845D01*
G01X11917Y-10842D01*
G01X11918Y-10840D01*
G01X11920Y-10839D01*
G01X11921Y-10838D01*
G01X11923Y-10837D01*
G01X11926D01*
G01X11934Y-10838D01*
G01X11940Y-10839D01*
G01X11954D01*
G01X11963Y-10840D01*
G01X11971Y-10841D01*
G01X11975D01*
G01X11979Y-10842D01*
G01X11984Y-10843D01*
G01X12000Y-10844D01*
G01X12013D01*
G01X12022Y-10845D01*
G01X12026Y-10846D01*
G01X12039Y-10850D01*
G01X12041Y-10851D01*
G01X12043Y-10854D01*
G01X12045Y-10858D01*
G01Y-10863D01*
G01X12044Y-10872D01*
G01X12043Y-10878D01*
G01X12042Y-10883D01*
G01X12041Y-10892D01*
G01X12040Y-10906D01*
G01X12039Y-10912D01*
G01X12037Y-10921D01*
G01X12032Y-10938D01*
G01X12030Y-10946D01*
G01X12028Y-10952D01*
G01X12011Y-10994D01*
G01X12006Y-11004D01*
G01X12004Y-11009D01*
G01X11996Y-11020D01*
G01X11992Y-11026D01*
G01X11985Y-11038D01*
G01X11982Y-11042D01*
G01X11975Y-11051D01*
G01X11968Y-11059D01*
G01X11964Y-11064D01*
G01X11958Y-11069D01*
G01X11945Y-11081D01*
G01X11941Y-11085D01*
G01X11936Y-11090D01*
G01X11932Y-11095D01*
G01X11929Y-11098D01*
G01X11925Y-11101D01*
G01X11913Y-11109D01*
G01X11906Y-11114D01*
G01X11902Y-11118D01*
G01X11899Y-11120D01*
G01X11890Y-11126D01*
G01X11882Y-11130D01*
G01X11874Y-11134D01*
G01X11861Y-11139D01*
G01X11854Y-11143D01*
G01X11848Y-11147D01*
G01X11844Y-11149D01*
G01X11833Y-11153D01*
G01X11812Y-11161D01*
G01X11804Y-11164D01*
G01X11798Y-11165D01*
G01X11792Y-11167D01*
G01X11775Y-11170D01*
G01X11760Y-11174D01*
G01X11750Y-11177D01*
G01X11725Y-11181D01*
G01X11691Y-11185D01*
G01X11673Y-11187D01*
G01X11648D01*
G01X11634Y-11188D01*
G01X11626D01*
G01X11624Y-11189D01*
G01X11623D01*
G01X11621Y-11190D01*
G01X11612D01*
G01X11594Y-11188D01*
G01X11576Y-11187D01*
G01X11560D01*
G01X11550Y-11186D01*
G01X11543Y-11184D01*
G01X11536Y-11183D01*
G01X11523D01*
G01X11517Y-11181D01*
G01X11513Y-11180D01*
G01X11504Y-11178D01*
G01X11486Y-11174D01*
G01X11479Y-11172D01*
G01X11461Y-11166D01*
G01X11441Y-11159D01*
G01X11429Y-11154D01*
G01X11421Y-11150D01*
G01X11412Y-11145D01*
G01X11397Y-11138D01*
G01X11392Y-11136D01*
G01X11387Y-11133D01*
G01X11368Y-11119D01*
G01X11356Y-11110D01*
G01X11346Y-11102D01*
G01X11342Y-11099D01*
G01X11338Y-11093D01*
G01X11334Y-11089D01*
G01X11329Y-11084D01*
G01X11320Y-11076D01*
G01X11315Y-11070D01*
G01X11309Y-11062D01*
G01X11300Y-11053D01*
G01X11290Y-11037D01*
G01X11286Y-11030D01*
G01X11277Y-11014D01*
G01X11271Y-11004D01*
G01X11267Y-10996D01*
G01X11264Y-10983D01*
G01X11259Y-10973D01*
G01X11257Y-10968D01*
G01X11256Y-10962D01*
G01X11252Y-10939D01*
G01X11249Y-10927D01*
G01X11248Y-10917D01*
G01X11247Y-10900D01*
G01X11246Y-10894D01*
G01X11245Y-10888D01*
G01X11244Y-10884D01*
G01X11070D01*
G01X11065Y-10895D01*
G01X11062Y-10907D01*
G01X11058Y-10916D01*
G01X11053Y-10929D01*
G01X11049Y-10941D01*
G01X11045Y-10948D01*
G01X11039Y-10959D01*
G01X11033Y-10974D01*
G01X11030Y-10979D01*
G01X11028Y-10983D01*
G01X11018Y-10997D01*
G01X11001Y-11024D01*
G01X10993Y-11036D01*
G01X10984Y-11046D01*
G01X10980Y-11050D01*
G01X10975Y-11055D01*
G01X10971Y-11058D01*
G01X10968Y-11061D01*
G01X10967Y-11063D01*
G01X10964Y-11069D01*
G01X10962Y-11072D01*
G01X10959Y-11075D01*
G01X10950Y-11079D01*
G01X10947Y-11082D01*
G01X10944Y-11085D01*
G01X10940Y-11091D01*
G01X10934Y-11096D01*
G01X10916Y-11109D01*
G01X10907Y-11115D01*
G01X10877Y-11134D01*
G01X10873Y-11136D01*
G01X10856Y-11143D01*
G01X10848Y-11148D01*
G01X10843Y-11151D01*
G01X10839Y-11153D01*
G01X10828Y-11158D01*
G01X10802Y-11166D01*
G01X10792Y-11169D01*
G01X10783Y-11171D01*
G01X10765Y-11174D01*
G01X10753Y-11178D01*
G01X10743Y-11180D01*
G01X10736Y-11181D01*
G01X10707Y-11185D01*
G01X10694Y-11186D01*
G01X10672Y-11187D01*
G01X10650Y-11188D01*
G01X10642D01*
G01X10640Y-11189D01*
G01X10639D01*
G01X10637Y-11190D01*
G01X10628D01*
G01X10610Y-11188D01*
G01X10591Y-11187D01*
G01X10571D01*
G01X10565Y-11186D01*
G01X10559Y-11185D01*
G01X10554Y-11184D01*
G01X10543Y-11182D01*
G01X10527Y-11180D01*
G01X10520Y-11178D01*
G01X10512Y-11175D01*
G01X10504Y-11172D01*
G01X10499Y-11171D01*
G01X10494Y-11169D01*
G01X10482Y-11167D01*
G01X10474Y-11165D01*
G01X10470Y-11163D01*
G01X10462Y-11158D01*
G01X10450Y-11154D01*
G01X10442Y-11151D01*
G01X10432Y-11145D01*
G01X10417Y-11138D01*
G01X10412Y-11136D01*
G01X10407Y-11133D01*
G01X10394Y-11124D01*
G01X10377Y-11112D01*
G01X10370Y-11108D01*
G01X10362Y-11100D01*
G01X10356Y-11096D01*
G01X10350Y-11091D01*
G01X10343Y-11082D01*
G01X10334Y-11075D01*
G01X10329Y-11069D01*
G01X10322Y-11061D01*
G01X10316Y-11056D01*
G01X10313Y-11054D01*
G01X10311Y-11051D01*
G01X10309Y-11048D01*
G01X10306Y-11042D01*
G01X10302Y-11037D01*
G01X10296Y-11032D01*
G01X10294Y-11030D01*
G01X10292Y-11027D01*
G01X10290Y-11021D01*
G01X10285Y-11013D01*
G01X10279Y-11005D01*
G01X10276Y-11000D01*
G01X10274Y-10995D01*
G01X10267Y-10981D01*
G01X10265Y-10977D01*
G01X10263Y-10975D01*
G01X10261Y-10972D01*
G01X10259Y-10969D01*
G01X10257Y-10964D01*
G01X10251Y-10949D01*
G01X10247Y-10941D01*
G01X10244Y-10935D01*
G01X10242Y-10931D01*
G01X10238Y-10920D01*
G01X10229Y-10895D01*
G01X10220Y-10867D01*
G01X10216Y-10852D01*
G01X10059D01*
G01Y-11170D01*
G01X9432D01*
G01X9283D01*
G01X9148D01*
G01Y-10996D01*
G01X9145Y-10851D01*
G01X9143Y-10831D01*
G01X9142Y-10822D01*
G01Y-10819D01*
G01X9141D01*
G01Y-10818D01*
G01X9138Y-10816D01*
G01X9133Y-10811D01*
G01X9126Y-10802D01*
G01X9120Y-10797D01*
G01X9108Y-10788D01*
G01X9098Y-10780D01*
G01X9094Y-10776D01*
G01X9089Y-10771D01*
G01X9086Y-10766D01*
G01X9081Y-10761D01*
G01X9071Y-10754D01*
G01X9064Y-10745D01*
G01X9059Y-10740D01*
G01X9050Y-10733D01*
G01X9043Y-10724D01*
G01X9038Y-10719D01*
G01X9029Y-10712D01*
G01X9022Y-10703D01*
G01X9016Y-10697D01*
G01X9008Y-10690D01*
G01X9003Y-10684D01*
G01X9001Y-10681D01*
G01X8998Y-10679D01*
G01X8994Y-10676D01*
G01X8991Y-10674D01*
G01X8987Y-10673D01*
G01X8983Y-10672D01*
G01X8980Y-10674D01*
G01X8977Y-10676D01*
G01X8939Y-10729D01*
G01X8929Y-10747D01*
G01X8924Y-10753D01*
G01X8920Y-10757D01*
G01X8917Y-10760D01*
G01X8907Y-10777D01*
G01X8897Y-10790D01*
G01X8889Y-10801D01*
G01X8877Y-10820D01*
G01X8867Y-10833D01*
G01X8860Y-10844D01*
G01X8848Y-10861D01*
G01X8843Y-10868D01*
G01X8840Y-10872D01*
G01X8837Y-10875D01*
G01X8826Y-10892D01*
G01X8816Y-10905D01*
G01X8808Y-10916D01*
G01X8797Y-10934D01*
G01X8787Y-10947D01*
G01X8779Y-10958D01*
G01X8768Y-10976D01*
G01X8762Y-10982D01*
G01X8759Y-10986D01*
G01X8756Y-10990D01*
G01X8746Y-11006D01*
G01X8736Y-11020D01*
G01X8728Y-11030D01*
G01X8716Y-11049D01*
G01X8706Y-11062D01*
G01X8698Y-11073D01*
G01X8687Y-11090D01*
G01X8682Y-11097D01*
G01X8678Y-11101D01*
G01X8676Y-11104D01*
G01X8665Y-11121D01*
G01X8655Y-11134D01*
G01X8647Y-11145D01*
G01X8639Y-11158D01*
G01X8635Y-11162D01*
G01X8631Y-11165D01*
G01X8626Y-11167D01*
G01X8623Y-11168D01*
G01X8620D01*
G01X8595Y-11170D01*
G01X8532D01*
G01X8452D01*
G01X7510D01*
G01Y-12736D01*
G01X7802D01*
G01X7804Y-12723D01*
G01X7806Y-12717D01*
G01X7808Y-12710D01*
G01X7810Y-12706D01*
G01X7815Y-12697D01*
G01X7819Y-12685D01*
G01X7822Y-12676D01*
G01X7829Y-12660D01*
G01X7832Y-12653D01*
G01X7866Y-12568D01*
G01X7872Y-12553D01*
G01X7878Y-12542D01*
G01X7883Y-12528D01*
G01X7887Y-12516D01*
G01X7895Y-12500D01*
G01X7900Y-12486D01*
G01X7903Y-12477D01*
G01X7908Y-12468D01*
G01X7911Y-12463D01*
G01X7914Y-12456D01*
G01X7918Y-12443D01*
G01X7924Y-12428D01*
G01X7930Y-12413D01*
G01X7934Y-12402D01*
G01X7944Y-12380D01*
G01X7947Y-12373D01*
G01X7981Y-12288D01*
G01X7987Y-12273D01*
G01X7992Y-12262D01*
G01X7997Y-12248D01*
G01X8002Y-12236D01*
G01X8009Y-12219D01*
G01X8015Y-12205D01*
G01X8018Y-12197D01*
G01X8022Y-12188D01*
G01X8025Y-12183D01*
G01X8028Y-12176D01*
G01X8032Y-12163D01*
G01X8039Y-12147D01*
G01X8044Y-12133D01*
G01X8049Y-12121D01*
G01X8058Y-12101D01*
G01X8061Y-12093D01*
G01X8095Y-12008D01*
G01X8102Y-11993D01*
G01X8107Y-11982D01*
G01X8112Y-11968D01*
G01X8116Y-11956D01*
G01X8124Y-11940D01*
G01X8129Y-11925D01*
G01X8132Y-11917D01*
G01X8137Y-11908D01*
G01X8140Y-11903D01*
G01X8143Y-11895D01*
G01X8147Y-11883D01*
G01X8153Y-11867D01*
G01X8159Y-11853D01*
G01X8163Y-11841D01*
G01X8173Y-11821D01*
G01X8201Y-11750D01*
G01X8204Y-11744D01*
G01X8206Y-11741D01*
G01X8207Y-11739D01*
G01X8210Y-11737D01*
G01X8212D01*
G01X8214Y-11736D01*
G01X8225Y-11735D01*
G01X8286Y-11734D01*
G01X8354D01*
G01X8659D01*
G01X9457D01*
G01Y-11853D01*
G01X9126D01*
G01Y-12736D01*
G01X9381D01*
G01X9385Y-12723D01*
G01X9389Y-12711D01*
G01X9396Y-12695D01*
G01X9402Y-12681D01*
G01X9406Y-12669D01*
G01X9416Y-12648D01*
G01X9419Y-12640D01*
G01X9453Y-12555D01*
G01X9459Y-12540D01*
G01X9465Y-12529D01*
G01X9470Y-12515D01*
G01X9474Y-12503D01*
G01X9481Y-12487D01*
G01X9487Y-12472D01*
G01X9490Y-12464D01*
G01X9494Y-12455D01*
G01X9497Y-12450D01*
G01X9500Y-12443D01*
G01X9504Y-12430D01*
G01X9511Y-12415D01*
G01X9516Y-12401D01*
G01X9520Y-12389D01*
G01X9530Y-12368D01*
G01X9533Y-12360D01*
G01X9567Y-12275D01*
G01X9574Y-12261D01*
G01X9579Y-12249D01*
G01X9584Y-12235D01*
G01X9589Y-12223D01*
G01X9596Y-12207D01*
G01X9601Y-12193D01*
G01X9604Y-12184D01*
G01X9609Y-12175D01*
G01X9612Y-12170D01*
G01X9615Y-12163D01*
G01X9619Y-12150D01*
G01X9626Y-12135D01*
G01X9631Y-12120D01*
G01X9635Y-12109D01*
G01X9645Y-12088D01*
G01X9648Y-12080D01*
G01X9682Y-11995D01*
G01X9688Y-11981D01*
G01X9694Y-11969D01*
G01X9699Y-11955D01*
G01X9703Y-11944D01*
G01X9710Y-11927D01*
G01X9716Y-11913D01*
G01X9719Y-11904D01*
G01X9723Y-11895D01*
G01X9726Y-11890D01*
G01X9729Y-11883D01*
G01X9733Y-11870D01*
G01X9740Y-11855D01*
G01X9745Y-11840D01*
G01X9750Y-11829D01*
G01X9759Y-11808D01*
G01X9762Y-11800D01*
G01X9780Y-11758D01*
G01X9783Y-11751D01*
G01X9787Y-11742D01*
G01X9788Y-11741D01*
G01X9790Y-11739D01*
G01X9794Y-11738D01*
G01X9801Y-11737D01*
G01X9820Y-11735D01*
G01X9864Y-11734D01*
G01X9902Y-11735D01*
G01X9918Y-11736D01*
G01X9925Y-11737D01*
G01X9932Y-11739D01*
G01X9935Y-11740D01*
G01X9936Y-11741D01*
G01X9937D01*
G01X9938Y-11742D01*
G01X9939D01*
G01Y-11743D01*
G01X9941Y-11752D01*
G01X9948Y-11767D01*
G01X9953Y-11781D01*
G01X9961Y-11802D01*
G01X9971Y-11826D01*
G01X9978Y-11846D01*
G01X9983Y-11861D01*
G01X9990Y-11877D01*
G01X9996Y-11891D01*
G01X10003Y-11912D01*
G01X10013Y-11936D01*
G01X10020Y-11956D01*
G01X10025Y-11971D01*
G01X10033Y-11987D01*
G01X10038Y-12002D01*
G01X10046Y-12022D01*
G01X10054Y-12045D01*
G01X10059Y-12060D01*
G01X10067Y-12077D01*
G01X10072Y-12091D01*
G01X10080Y-12112D01*
G01X10089Y-12136D01*
G01X10097Y-12155D01*
G01X10102Y-12170D01*
G01X10109Y-12187D01*
G01X10115Y-12201D01*
G01X10122Y-12222D01*
G01X10123Y-12225D01*
G01X10390D01*
G01X10391Y-12173D01*
G01X10392Y-12163D01*
G01X10393Y-12161D01*
G01Y-12157D01*
G01X10395Y-12148D01*
G01Y-12131D01*
G01X10396Y-12124D01*
G01X10398Y-12119D01*
G01X10399Y-12112D01*
G01Y-12100D01*
G01X10404Y-12079D01*
G01X10407Y-12059D01*
G01X10409Y-12051D01*
G01X10424Y-12006D01*
G01X10432Y-11985D01*
G01X10441Y-11961D01*
G01X10444Y-11954D01*
G01X10449Y-11946D01*
G01X10454Y-11937D01*
G01X10462Y-11922D01*
G01X10478Y-11898D01*
G01X10482Y-11891D01*
G01X10487Y-11884D01*
G01X10494Y-11876D01*
G01X10501Y-11866D01*
G01X10514Y-11853D01*
G01X10521Y-11847D01*
G01X10527Y-11842D01*
G01X10532Y-11837D01*
G01X10539Y-11828D01*
G01X10545Y-11824D01*
G01X10554Y-11817D01*
G01X10563Y-11809D01*
G01X10581Y-11796D01*
G01X10586Y-11793D01*
G01X10590Y-11790D01*
G01X10595Y-11788D01*
G01X10610Y-11781D01*
G01X10613Y-11779D01*
G01X10618Y-11775D01*
G01X10620Y-11773D01*
G01X10624Y-11772D01*
G01X10637Y-11768D01*
G01X10650Y-11762D01*
G01X10658Y-11759D01*
G01X10668Y-11756D01*
G01X10688Y-11751D01*
G01X10715Y-11745D01*
G01X10740Y-11741D01*
G01X10754Y-11739D01*
G01X10771Y-11738D01*
G01X10779Y-11737D01*
G01X10783D01*
G01X10784Y-11736D01*
G01X10799D01*
G01X11005Y-11734D01*
G01X11222D01*
G01Y-12447D01*
G01X11400D01*
G01X11401Y-12420D01*
G01X11402Y-12409D01*
G01X11403Y-12403D01*
G01X11405Y-12394D01*
G01X11408Y-12381D01*
G01X11411Y-12371D01*
G01X11416Y-12360D01*
G01X11421Y-12345D01*
G01X11423Y-12339D01*
G01X11426Y-12333D01*
G01X11428Y-12330D01*
G01X11434Y-12323D01*
G01X11441Y-12311D01*
G01X11444Y-12307D01*
G01X11451Y-12297D01*
G01X11460Y-12286D01*
G01X11465Y-12282D01*
G01X11475Y-12273D01*
G01X11479Y-12270D01*
G01X11484Y-12264D01*
G01X11487Y-12260D01*
G01X11491Y-12257D01*
G01X11495Y-12253D01*
G01X11512Y-12242D01*
G01X11523Y-12234D01*
G01X11528Y-12232D01*
G01X11533Y-12229D01*
G01X11547Y-12222D01*
G01X11550Y-12220D01*
G01X11553Y-12218D01*
G01X11555Y-12216D01*
G01X11563Y-12212D01*
G01X11568Y-12210D01*
G01X11589Y-12201D01*
G01X11609Y-12194D01*
G01X11638Y-12184D01*
G01X11650Y-12180D01*
G01X11670Y-12176D01*
G01X11699Y-12167D01*
G01X11713Y-12164D01*
G01X11738Y-12159D01*
G01X11767Y-12150D01*
G01X11778Y-12147D01*
G01X11789Y-12145D01*
G01X11809Y-12142D01*
G01X11818Y-12140D01*
G01X11839Y-12133D01*
G01X11898Y-12116D01*
G01X11916Y-12111D01*
G01X11924Y-12108D01*
G01X11945Y-12100D01*
G01X11960Y-12093D01*
G01X11971Y-12087D01*
G01X11977Y-12083D01*
G01X11996Y-12070D01*
G01X11999Y-12068D01*
G01X12002Y-12065D01*
G01X12003Y-12062D01*
G01X12006Y-12056D01*
G01X12007Y-12053D01*
G01X12013Y-12046D01*
G01X12017Y-12039D01*
G01X12019Y-12034D01*
G01X12022Y-12025D01*
G01X12024Y-12018D01*
G01X12026Y-12012D01*
G01X12030Y-11987D01*
G01Y-11980D01*
G01Y-11972D01*
G01X12029Y-11964D01*
G01X12028Y-11957D01*
G01X12023Y-11941D01*
G01X12019Y-11932D01*
G01X12017Y-11926D01*
G01X12014Y-11921D01*
G01X12011Y-11916D01*
G01X12003Y-11905D01*
G01X11999Y-11901D01*
G01X11993Y-11897D01*
G01X11989Y-11893D01*
G01X11984Y-11888D01*
G01X11976Y-11879D01*
G01X11973Y-11877D01*
G01X11960Y-11870D01*
G01X11950Y-11864D01*
G01X11946Y-11862D01*
G01X11936Y-11858D01*
G01X11925Y-11853D01*
G01X11911Y-11849D01*
G01X11900Y-11846D01*
G01X11889Y-11844D01*
G01X11882Y-11842D01*
G01X11852Y-11838D01*
G01X11842Y-11837D01*
G01X11813Y-11836D01*
G01X11792D01*
G01X11755Y-11837D01*
G01X11744Y-11838D01*
G01X11738Y-11839D01*
G01X11727Y-11841D01*
G01X11707Y-11845D01*
G01X11699Y-11847D01*
G01X11682Y-11853D01*
G01X11661Y-11862D01*
G01X11652Y-11866D01*
G01X11648Y-11868D01*
G01X11644Y-11872D01*
G01X11635Y-11879D01*
G01X11630Y-11884D01*
G01X11623Y-11892D01*
G01X11617Y-11898D01*
G01X11608Y-11904D01*
G01X11604Y-11911D01*
G01X11595Y-11923D01*
G01X11584Y-11940D01*
G01X11582Y-11946D01*
G01X11579Y-11951D01*
G01X11577Y-11956D01*
G01X11575Y-11966D01*
G01X11573Y-11973D01*
G01X11571Y-11977D01*
G01X11568Y-11982D01*
G01X11567Y-11985D01*
G01X11566Y-11989D01*
G01X11565Y-11997D01*
G01X11564Y-12005D01*
G01Y-12008D01*
G01X11559Y-12021D01*
G01X11557Y-12024D01*
G01X11553Y-12025D01*
G01X11547Y-12027D01*
G01X11540D01*
G01X11529D01*
G01X11520Y-12026D01*
G01X11517Y-12025D01*
G01X11513Y-12024D01*
G01X11507Y-12023D01*
G01X11489D01*
G01X11475D01*
G01X11469Y-12022D01*
G01X11463Y-12021D01*
G01X11458Y-12020D01*
G01X11448Y-12019D01*
G01X11429D01*
G01X11430Y-12000D01*
G01X11431Y-11990D01*
G01X11433Y-11984D01*
G01X11434Y-11976D01*
G01X11435Y-11964D01*
G01X11436Y-11957D01*
G01X11443Y-11936D01*
G01X11448Y-11919D01*
G01X11451Y-11911D01*
G01X11457Y-11896D01*
G01X11464Y-11884D01*
G01X11472Y-11870D01*
G01X11481Y-11854D01*
G01X11484Y-11850D01*
G01X11491Y-11841D01*
G01X11496Y-11835D01*
G01X11502Y-11828D01*
G01X11512Y-11818D01*
G01X11517Y-11813D01*
G01X11524Y-11808D01*
G01X11529Y-11803D01*
G01X11537Y-11794D01*
G01X11540Y-11792D01*
G01X11550Y-11786D01*
G01X11557Y-11782D01*
G01X11566Y-11776D01*
G01X11570Y-11773D01*
G01X11575Y-11771D01*
G01X11587Y-11765D01*
G01X11596Y-11761D01*
G01X11605Y-11756D01*
G01X11614Y-11752D01*
G01X11634Y-11744D01*
G01X11638Y-11743D01*
G01X11665Y-11734D01*
G01X11688Y-11729D01*
G01X11707Y-11726D01*
G01X11720Y-11723D01*
G01X11728Y-11722D01*
G01X11742Y-11721D01*
G01X11749Y-11720D01*
G01X11753Y-11719D01*
G01X11762D01*
G01X11812Y-11718D01*
G01X11860D01*
G01X11871Y-11719D01*
G01X11872Y-11720D01*
G01X11877Y-11721D01*
G01X11885Y-11722D01*
G01X11899D01*
G01X11905Y-11724D01*
G01X11915Y-11726D01*
G01X11932Y-11730D01*
G01X11947Y-11734D01*
G01X11973Y-11743D01*
G01X11993Y-11751D01*
G01X12004Y-11755D01*
G01X12011Y-11759D01*
G01X12020Y-11764D01*
G01X12035Y-11770D01*
G01X12041Y-11774D01*
G01X12044Y-11776D01*
G01X12052Y-11783D01*
G01X12068Y-11794D01*
G01X12077Y-11802D01*
G01X12081Y-11806D01*
G01X12086Y-11812D01*
G01X12089Y-11816D01*
G01X12095Y-11821D01*
G01X12101Y-11826D01*
G01X12103Y-11828D01*
G01X12105Y-11831D01*
G01X12108Y-11837D01*
G01X12111Y-11842D01*
G01X12115Y-11847D01*
G01X12119Y-11854D01*
G01X12125Y-11865D01*
G01X12132Y-11876D01*
G01X12134Y-11880D01*
G01X12138Y-11889D01*
G01X12146Y-11910D01*
G01X12150Y-11925D01*
G01X12157Y-11957D01*
G01X12158Y-11964D01*
G01X12159Y-11980D01*
G01Y-12002D01*
G01Y-12029D01*
G01X12158Y-12040D01*
G01X12155Y-12049D01*
G01X12152Y-12064D01*
G01X12149Y-12074D01*
G01X12141Y-12089D01*
G01X12135Y-12105D01*
G01X12131Y-12113D01*
G01X12121Y-12127D01*
G01X12112Y-12139D01*
G01X12105Y-12149D01*
G01X12101Y-12153D01*
G01X12095Y-12157D01*
G01X12090Y-12161D01*
G01X12085Y-12166D01*
G01X12081Y-12172D01*
G01X12078Y-12175D01*
G01X12076Y-12176D01*
G01X12070Y-12179D01*
G01X12067Y-12180D01*
G01X12064Y-12182D01*
G01X12056Y-12189D01*
G01X12047Y-12195D01*
G01X12023Y-12210D01*
G01X12006Y-12217D01*
G01X11993Y-12225D01*
G01X12724D01*
G01Y-12173D01*
G01X12725Y-12163D01*
G01X12726Y-12161D01*
G01X12727Y-12157D01*
G01X12728Y-12148D01*
G01Y-12131D01*
G01X12729Y-12124D01*
G01X12731Y-12119D01*
G01X12732Y-12112D01*
G01X12733Y-12100D01*
G01X12736Y-12089D01*
G01X12738Y-12079D01*
G01X12741Y-12059D01*
G01X12743Y-12051D01*
G01X12757Y-12006D01*
G01X12765Y-11985D01*
G01X12775Y-11961D01*
G01X12778Y-11954D01*
G01X12782Y-11946D01*
G01X12787Y-11937D01*
G01X12796Y-11922D01*
G01X12811Y-11898D01*
G01X12815Y-11891D01*
G01X12820Y-11884D01*
G01X12828Y-11876D01*
G01X12834Y-11866D01*
G01X12847Y-11853D01*
G01X12854Y-11847D01*
G01X12861Y-11842D01*
G01X12866Y-11837D01*
G01X12873Y-11828D01*
G01X12878Y-11824D01*
G01X12887Y-11817D01*
G01X12897Y-11809D01*
G01X12914Y-11796D01*
G01X12919Y-11793D01*
G01X12924Y-11790D01*
G01X12929Y-11788D01*
G01X12943Y-11781D01*
G01X12946Y-11779D01*
G01X12951Y-11775D01*
G01X12957Y-11772D01*
G01X12970Y-11768D01*
G01X12983Y-11762D01*
G01X12991Y-11759D01*
G01X13002Y-11756D01*
G01X13022Y-11751D01*
G01X13048Y-11745D01*
G01X13074Y-11741D01*
G01X13088Y-11739D01*
G01X13104Y-11738D01*
G01X13112Y-11737D01*
G01X13116D01*
G01X13118Y-11736D01*
G01X13132D01*
G01X13339Y-11734D01*
G01X13555D01*
G01Y-12226D01*
G01X13734D01*
G01X13736Y-12218D01*
G01X13737Y-12207D01*
G01X13738Y-12153D01*
G01X13739Y-12142D01*
G01X13741Y-12136D01*
G01X13742Y-12127D01*
G01Y-12113D01*
G01X13743Y-12107D01*
G01X13745Y-12102D01*
G01X13747Y-12091D01*
G01X13751Y-12072D01*
G01X13755Y-12056D01*
G01X13759Y-12037D01*
G01X13767Y-12010D01*
G01X13775Y-11990D01*
G01X13784Y-11966D01*
G01X13788Y-11958D01*
G01X13792Y-11950D01*
G01X13797Y-11942D01*
G01X13803Y-11927D01*
G01X13806Y-11921D01*
G01X13808Y-11918D01*
G01X13812Y-11915D01*
G01X13816Y-11908D01*
G01X13823Y-11897D01*
G01X13826Y-11893D01*
G01X13833Y-11884D01*
G01X13839Y-11875D01*
G01X13846Y-11868D01*
G01X13852Y-11860D01*
G01X13857Y-11854D01*
G01X13866Y-11847D01*
G01X13871Y-11841D01*
G01X13878Y-11833D01*
G01X13884Y-11828D01*
G01X13892Y-11822D01*
G01X13902Y-11813D01*
G01X13920Y-11800D01*
G01X13926Y-11796D01*
G01X13933Y-11792D01*
G01X13945Y-11786D01*
G01X13955Y-11779D01*
G01X13959Y-11777D01*
G01X13969Y-11773D01*
G01X13990Y-11764D01*
G01X14010Y-11757D01*
G01X14023Y-11753D01*
G01X14032Y-11751D01*
G01X14050Y-11747D01*
G01X14062Y-11744D01*
G01X14075Y-11742D01*
G01X14083Y-11741D01*
G01X14105Y-11739D01*
G01X14119Y-11738D01*
G01X14126Y-11737D01*
G01X14127Y-11736D01*
G01X14142D01*
G01X14348Y-11734D01*
G01X14565D01*
G01Y-11741D01*
G01X14686D01*
G01Y-11739D01*
G01X14689Y-11738D01*
G01X14694Y-11737D01*
G01X14701Y-11736D01*
G01X14722Y-11735D01*
G01X14751Y-11734D01*
G01X14819D01*
G01X14823Y-11745D01*
G01X14831Y-11765D01*
G01X14837Y-11780D01*
G01X14843Y-11794D01*
G01X14846Y-11803D01*
G01X14848Y-11814D01*
G01X14850Y-11820D01*
G01X14852Y-11824D01*
G01X14855Y-11829D01*
G01X14858Y-11837D01*
G01X14861Y-11848D01*
G01X14863Y-11854D01*
G01X14865Y-11858D01*
G01X14868Y-11863D01*
G01X14870Y-11867D01*
G01X14871Y-11871D01*
G01X14874Y-11882D01*
G01X14876Y-11888D01*
G01X14878Y-11892D01*
G01X14881Y-11897D01*
G01X14882Y-11901D01*
G01X14884Y-11905D01*
G01X14886Y-11916D01*
G01X14888Y-11922D01*
G01X14890Y-11926D01*
G01X14894Y-11931D01*
G01X14895Y-11935D01*
G01X14897Y-11940D01*
G01X14899Y-11950D01*
G01X14901Y-11956D01*
G01X14903Y-11960D01*
G01X14906Y-11965D01*
G01X14908Y-11969D01*
G01X14909Y-11974D01*
G01X14912Y-11984D01*
G01X14915Y-11993D01*
G01X14920Y-12005D01*
G01X14926Y-12019D01*
G01X14933Y-12040D01*
G01X14941Y-12062D01*
G01X14947Y-12077D01*
G01X14953Y-12091D01*
G01X14956Y-12100D01*
G01X14960Y-12112D01*
G01X14966Y-12125D01*
G01X14969Y-12135D01*
G01X14971Y-12145D01*
G01X14973Y-12151D01*
G01X14975Y-12155D01*
G01X14978Y-12160D01*
G01X14980Y-12164D01*
G01X14981Y-12169D01*
G01X14984Y-12179D01*
G01X14986Y-12185D01*
G01X14988Y-12189D01*
G01X14991Y-12194D01*
G01X14993Y-12198D01*
G01X14994Y-12203D01*
G01X14997Y-12212D01*
G01X14999Y-12219D01*
G01X15001Y-12223D01*
G01X15004Y-12228D01*
G01X15006Y-12232D01*
G01X15009Y-12246D01*
G01X15012Y-12253D01*
G01X15013Y-12257D01*
G01X15016Y-12262D01*
G01X15019Y-12266D01*
G01X15020Y-12270D01*
G01X15022Y-12280D01*
G01X15025Y-12287D01*
G01X15026Y-12291D01*
G01X15029Y-12296D01*
G01X15031Y-12300D01*
G01X15032Y-12304D01*
G01X15035Y-12314D01*
G01X15038Y-12324D01*
G01X15043Y-12335D01*
G01X15048Y-12349D01*
G01X15056Y-12370D01*
G01X15064Y-12393D01*
G01X15070Y-12408D01*
G01X15076Y-12422D01*
G01X15079Y-12430D01*
G01X15083Y-12443D01*
G01X15089Y-12456D01*
G01X15092Y-12465D01*
G01X15096Y-12481D01*
G01X15103Y-12497D01*
G01X15108Y-12511D01*
G01X15125Y-12562D01*
G01X15129Y-12574D01*
G01X15132Y-12590D01*
G01X15135Y-12597D01*
G01X15136Y-12600D01*
G01X15137Y-12602D01*
G01X15140Y-12604D01*
G01X15142Y-12606D01*
G01X15144D01*
G01X15146Y-12604D01*
G01X15148Y-12601D01*
G01X15150Y-12598D01*
G01X15151Y-12594D01*
G01X15155Y-12580D01*
G01X15189Y-12477D01*
G01X15196Y-12456D01*
G01X15204Y-12433D01*
G01X15213Y-12409D01*
G01X15221Y-12387D01*
G01X15231Y-12358D01*
G01X15235Y-12346D01*
G01X15242Y-12333D01*
G01X15245Y-12323D01*
G01X15249Y-12308D01*
G01X15255Y-12292D01*
G01X15261Y-12277D01*
G01X15269Y-12252D01*
G01X15277Y-12232D01*
G01X15285Y-12209D01*
G01X15294Y-12180D01*
G01X15299Y-12168D01*
G01X15305Y-12154D01*
G01X15308Y-12145D01*
G01X15312Y-12130D01*
G01X15319Y-12114D01*
G01X15324Y-12100D01*
G01X15333Y-12074D01*
G01X15340Y-12053D01*
G01X15349Y-12030D01*
G01X15358Y-12002D01*
G01X15362Y-11990D01*
G01X15369Y-11976D01*
G01X15372Y-11966D01*
G01X15376Y-11951D01*
G01X15383Y-11935D01*
G01X15388Y-11921D01*
G01X15396Y-11896D01*
G01X15401Y-11884D01*
G01X15407Y-11870D01*
G01X15410Y-11861D01*
G01X15414Y-11846D01*
G01X15421Y-11829D01*
G01X15426Y-11815D01*
G01X15435Y-11790D01*
G01X15442Y-11769D01*
G01X15456Y-11734D01*
G01X15600D01*
G01X15597Y-11750D01*
G01X15594Y-11760D01*
G01X15588Y-11771D01*
G01X15583Y-11786D01*
G01X15579Y-11797D01*
G01X15571Y-11814D01*
G01X15566Y-11828D01*
G01X15559Y-11849D01*
G01X15541Y-11894D01*
G01X15533Y-11914D01*
G01X15528Y-11928D01*
G01X15520Y-11945D01*
G01X15515Y-11959D01*
G01X15508Y-11980D01*
G01X15490Y-12025D01*
G01X15482Y-12045D01*
G01X15477Y-12060D01*
G01X15470Y-12077D01*
G01X15464Y-12091D01*
G01X15457Y-12112D01*
G01X15439Y-12156D01*
G01X15432Y-12177D01*
G01X15426Y-12191D01*
G01X15419Y-12208D01*
G01X15413Y-12222D01*
G01X15406Y-12243D01*
G01X15388Y-12288D01*
G01X15381Y-12308D01*
G01X15375Y-12323D01*
G01X15368Y-12340D01*
G01X15362Y-12354D01*
G01X15355Y-12374D01*
G01X15337Y-12420D01*
G01X15329Y-12440D01*
G01X15324Y-12455D01*
G01X15317Y-12471D01*
G01X15312Y-12486D01*
G01X15304Y-12506D01*
G01X15286Y-12551D01*
G01X15279Y-12571D01*
G01X15274Y-12586D01*
G01X15266Y-12602D01*
G01X15261Y-12617D01*
G01X15253Y-12638D01*
G01X15235Y-12683D01*
G01X15228Y-12703D01*
G01X15222Y-12718D01*
G01X15218Y-12727D01*
G01X15216Y-12729D01*
G01X15212Y-12731D01*
G01X15206Y-12733D01*
G01X15197Y-12734D01*
G01X15175Y-12735D01*
G01X15144Y-12736D01*
G01X15074D01*
G01X15070Y-12723D01*
G01X15065Y-12711D01*
G01X15059Y-12697D01*
G01X15056Y-12689D01*
G01X15052Y-12676D01*
G01X15045Y-12661D01*
G01X15040Y-12647D01*
G01X15036Y-12635D01*
G01X15028Y-12618D01*
G01X15023Y-12604D01*
G01X15015Y-12584D01*
G01X14980Y-12496D01*
G01X14973Y-12476D01*
G01X14968Y-12461D01*
G01X14961Y-12444D01*
G01X14955Y-12430D01*
G01X14951Y-12419D01*
G01X14943Y-12402D01*
G01X14938Y-12388D01*
G01X14931Y-12367D01*
G01X14904Y-12301D01*
G01X14897Y-12281D01*
G01X14892Y-12266D01*
G01X14884Y-12249D01*
G01X14879Y-12235D01*
G01X14875Y-12223D01*
G01X14867Y-12207D01*
G01X14862Y-12193D01*
G01X14854Y-12172D01*
G01X14828Y-12106D01*
G01X14820Y-12085D01*
G01X14815Y-12071D01*
G01X14808Y-12054D01*
G01X14803Y-12040D01*
G01X14798Y-12028D01*
G01X14791Y-12012D01*
G01X14785Y-11997D01*
G01X14778Y-11977D01*
G01X14751Y-11911D01*
G01X14744Y-11890D01*
G01X14739Y-11876D01*
G01X14731Y-11859D01*
G01X14726Y-11845D01*
G01X14722Y-11833D01*
G01X14714Y-11817D01*
G01X14709Y-11802D01*
G01X14702Y-11782D01*
G01X14692Y-11758D01*
G01X14686Y-11741D01*
G01X14565D01*
G01Y-12736D01*
G01X14342D01*
G01X14119Y-12734D01*
G01X14114D01*
G01X14113D01*
G01X14110Y-12733D01*
G01X14101Y-12731D01*
G01X14086D01*
G01X14081Y-12730D01*
G01X14075Y-12728D01*
G01X14065Y-12726D01*
G01X14045Y-12723D01*
G01X14037Y-12721D01*
G01X13992Y-12706D01*
G01X13972Y-12698D01*
G01X13961Y-12694D01*
G01X13954Y-12690D01*
G01X13918Y-12668D01*
G01X13906Y-12659D01*
G01X13901Y-12655D01*
G01X13890Y-12646D01*
G01X13884Y-12640D01*
G01X13876Y-12634D01*
G01X13872Y-12631D01*
G01X13868Y-12626D01*
G01X13866Y-12620D01*
G01X13864Y-12617D01*
G01X13861Y-12615D01*
G01X13855Y-12610D01*
G01X13852Y-12607D01*
G01X13849Y-12603D01*
G01X13842Y-12593D01*
G01X13838Y-12587D01*
G01X13835Y-12584D01*
G01X13830Y-12581D01*
G01X13828Y-12578D01*
G01X13826Y-12574D01*
G01X13823Y-12566D01*
G01X13822Y-12563D01*
G01X13820Y-12560D01*
G01X13816Y-12555D01*
G01X13814Y-12552D01*
G01X13807Y-12543D01*
G01X13803Y-12535D01*
G01X13799Y-12527D01*
G01X13791Y-12507D01*
G01X13783Y-12491D01*
G01X13780Y-12483D01*
G01X13772Y-12463D01*
G01X13763Y-12434D01*
G01X13760Y-12425D01*
G01X13758Y-12416D01*
G01X13755Y-12398D01*
G01X13752Y-12386D01*
G01X13749Y-12375D01*
G01X13743Y-12336D01*
G01X13742Y-12324D01*
G01X13741Y-12316D01*
G01X13740Y-12309D01*
G01X13739Y-12304D01*
G01X13738Y-12296D01*
G01X13737Y-12242D01*
G01X13736Y-12234D01*
G01Y-12232D01*
G01X13735Y-12229D01*
G01X13734Y-12226D01*
G01X13555D01*
G01Y-12736D01*
G01X13330D01*
G01X13105Y-12734D01*
G01X13100D01*
G01X13099D01*
G01X13096Y-12733D01*
G01X13089Y-12731D01*
G01X13076D01*
G01X13066Y-12728D01*
G01X13054Y-12726D01*
G01X13038Y-12724D01*
G01X13031Y-12722D01*
G01X13023Y-12720D01*
G01X13016Y-12717D01*
G01X13011Y-12715D01*
G01X13005Y-12714D01*
G01X12993Y-12711D01*
G01X12988Y-12710D01*
G01X12983Y-12708D01*
G01X12967Y-12701D01*
G01X12952Y-12694D01*
G01X12944Y-12690D01*
G01X12935Y-12685D01*
G01X12920Y-12679D01*
G01X12914Y-12675D01*
G01X12911Y-12673D01*
G01X12903Y-12665D01*
G01X12888Y-12655D01*
G01X12878Y-12647D01*
G01X12874Y-12643D01*
G01X12869Y-12638D01*
G01X12866Y-12633D01*
G01X12861Y-12628D01*
G01X12851Y-12621D01*
G01X12847Y-12615D01*
G01X12838Y-12603D01*
G01X12819Y-12579D01*
G01X12813Y-12570D01*
G01X12793Y-12539D01*
G01X12791Y-12535D01*
G01X12784Y-12518D01*
G01X12777Y-12505D01*
G01X12774Y-12498D01*
G01X12770Y-12486D01*
G01X12764Y-12472D01*
G01X12761Y-12463D01*
G01X12757Y-12448D01*
G01X12753Y-12439D01*
G01X12751Y-12434D01*
G01X12750Y-12429D01*
G01X12748Y-12424D01*
G01X12745Y-12406D01*
G01X12741Y-12391D01*
G01X12739Y-12381D01*
G01X12729Y-12325D01*
G01X12728Y-12320D01*
G01Y-12301D01*
G01X12727Y-12292D01*
G01X12726Y-12288D01*
G01X12725Y-12286D01*
G01X12724Y-12276D01*
G01Y-12225D01*
G01X11993D01*
G01X11985Y-12228D01*
G01X11973Y-12232D01*
G01X11960Y-12237D01*
G01X11950Y-12240D01*
G01X11935Y-12244D01*
G01X11926Y-12248D01*
G01X11922Y-12250D01*
G01X11917Y-12251D01*
G01X11911Y-12253D01*
G01X11894Y-12257D01*
G01X11864Y-12265D01*
G01X11850Y-12269D01*
G01X11826Y-12273D01*
G01X11797Y-12282D01*
G01X11783Y-12285D01*
G01X11758Y-12290D01*
G01X11729Y-12299D01*
G01X11669Y-12315D01*
G01X11659Y-12319D01*
G01X11651Y-12322D01*
G01X11639Y-12327D01*
G01X11625Y-12333D01*
G01X11619Y-12335D01*
G01X11612Y-12338D01*
G01X11609Y-12340D01*
G01X11603Y-12345D01*
G01X11591Y-12352D01*
G01X11585Y-12356D01*
G01X11580Y-12360D01*
G01X11572Y-12367D01*
G01X11569Y-12369D01*
G01X11566Y-12372D01*
G01X11562Y-12376D01*
G01X11559Y-12381D01*
G01X11544Y-12406D01*
G01X11540Y-12416D01*
G01X11538Y-12421D01*
G01X11536Y-12427D01*
G01X11535Y-12434D01*
G01X11534Y-12441D01*
G01X11533Y-12453D01*
G01X11532Y-12470D01*
G01Y-12487D01*
G01X11533Y-12496D01*
G01X11534Y-12500D01*
G01X11540Y-12517D01*
G01X11543Y-12525D01*
G01X11547Y-12533D01*
G01X11550Y-12538D01*
G01X11555Y-12547D01*
G01X11566Y-12560D01*
G01X11570Y-12565D01*
G01X11574Y-12569D01*
G01X11579Y-12573D01*
G01X11597Y-12585D01*
G01X11608Y-12592D01*
G01X11613Y-12595D01*
G01X11617Y-12598D01*
G01X11630Y-12603D01*
G01X11638Y-12608D01*
G01X11643Y-12611D01*
G01X11647Y-12612D01*
G01X11651Y-12614D01*
G01X11666Y-12617D01*
G01X11681Y-12621D01*
G01X11691Y-12623D01*
G01X11712Y-12627D01*
G01X11720Y-12629D01*
G01X11731D01*
G01X11739Y-12630D01*
G01X11746Y-12632D01*
G01X11751D01*
G01X11759Y-12633D01*
G01X11784Y-12634D01*
G01X11809Y-12633D01*
G01X11819Y-12632D01*
G01X11825Y-12631D01*
G01X11833Y-12630D01*
G01X11845Y-12629D01*
G01X11856Y-12626D01*
G01X11866Y-12624D01*
G01X11880Y-12622D01*
G01X11886Y-12621D01*
G01X11894Y-12618D01*
G01X11905Y-12613D01*
G01X11918Y-12610D01*
G01X11926Y-12606D01*
G01X11942Y-12599D01*
G01X11954Y-12594D01*
G01X11960Y-12590D01*
G01X11963Y-12588D01*
G01X11970Y-12583D01*
G01X11986Y-12572D01*
G01X11993Y-12567D01*
G01X12002Y-12560D01*
G01X12008Y-12555D01*
G01X12011Y-12552D01*
G01X12014Y-12548D01*
G01X12022Y-12535D01*
G01X12027Y-12529D01*
G01X12030Y-12525D01*
G01X12035Y-12519D01*
G01X12041Y-12507D01*
G01X12047Y-12497D01*
G01X12050Y-12490D01*
G01X12054Y-12477D01*
G01X12058Y-12466D01*
G01X12061Y-12458D01*
G01X12063Y-12451D01*
G01X12066Y-12429D01*
G01X12068Y-12420D01*
G01X12073Y-12407D01*
G01X12074Y-12404D01*
G01X12077Y-12403D01*
G01X12080Y-12402D01*
G01X12091Y-12404D01*
G01X12097D01*
G01X12111Y-12405D01*
G01X12120D01*
G01X12128Y-12406D01*
G01X12132Y-12407D01*
G01X12136Y-12408D01*
G01X12141D01*
G01X12167Y-12409D01*
G01X12175Y-12410D01*
G01X12178Y-12411D01*
G01X12191Y-12416D01*
G01X12194Y-12418D01*
G01X12196Y-12422D01*
G01X12197Y-12429D01*
G01X12198Y-12439D01*
G01X12197Y-12453D01*
G01Y-12459D01*
G01X12196Y-12465D01*
G01X12195Y-12470D01*
G01X12193Y-12480D01*
G01X12189Y-12496D01*
G01X12181Y-12524D01*
G01X12176Y-12535D01*
G01X12167Y-12556D01*
G01X12162Y-12569D01*
G01X12158Y-12575D01*
G01X12156Y-12578D01*
G01X12153Y-12581D01*
G01X12149Y-12587D01*
G01X12144Y-12596D01*
G01X12141Y-12600D01*
G01X12134Y-12611D01*
G01X12117Y-12632D01*
G01X12113Y-12636D01*
G01X12109Y-12641D01*
G01X12104Y-12646D01*
G01X12099Y-12649D01*
G01X12094Y-12654D01*
G01X12089Y-12660D01*
G01X12086Y-12663D01*
G01X12083Y-12665D01*
G01X12075Y-12670D01*
G01X12070Y-12673D01*
G01X12060Y-12681D01*
G01X12049Y-12688D01*
G01X12039Y-12695D01*
G01X12030Y-12700D01*
G01X12023Y-12704D01*
G01X12003Y-12712D01*
G01X11991Y-12718D01*
G01X11977Y-12723D01*
G01X11952Y-12731D01*
G01X11942Y-12735D01*
G01X11932Y-12737D01*
G01X11915Y-12740D01*
G01X11903Y-12743D01*
G01X11896Y-12744D01*
G01X11884Y-12745D01*
G01X11878Y-12746D01*
G01X11873Y-12747D01*
G01X11861Y-12749D01*
G01X11852Y-12750D01*
G01X11834Y-12752D01*
G01X11807Y-12753D01*
G01X11792D01*
G01X11784Y-12754D01*
G01X11782D01*
G01X11781D01*
G01X11780D01*
G01Y-12755D01*
G01X11778D01*
G01X11774Y-12756D01*
G01X11769Y-12755D01*
G01X11751Y-12753D01*
G01X11713Y-12752D01*
G01X11706D01*
G01X11700Y-12751D01*
G01X11696Y-12750D01*
G01X11689Y-12749D01*
G01X11676Y-12748D01*
G01X11669Y-12746D01*
G01X11648Y-12740D01*
G01X11628Y-12735D01*
G01X11618Y-12733D01*
G01X11611Y-12730D01*
G01X11607Y-12728D01*
G01X11602Y-12725D01*
G01X11598Y-12723D01*
G01X11594Y-12722D01*
G01X11584Y-12720D01*
G01X11577Y-12717D01*
G01X11573Y-12716D01*
G01X11555Y-12704D01*
G01X11540Y-12695D01*
G01X11529Y-12689D01*
G01X11524Y-12686D01*
G01X11520Y-12683D01*
G01X11517Y-12680D01*
G01X11503Y-12671D01*
G01X11498Y-12666D01*
G01X11495Y-12663D01*
G01X11491Y-12658D01*
G01X11486Y-12653D01*
G01X11477Y-12646D01*
G01X11472Y-12640D01*
G01X11464Y-12628D01*
G01X11459Y-12623D01*
G01X11451Y-12613D01*
G01X11432Y-12581D01*
G01X11429Y-12576D01*
G01X11426Y-12570D01*
G01X11423Y-12564D01*
G01X11414Y-12537D01*
G01X11411Y-12529D01*
G01X11409Y-12523D01*
G01X11408Y-12516D01*
G01X11404Y-12496D01*
G01X11402Y-12486D01*
G01X11401Y-12474D01*
G01X11400Y-12447D01*
G01X11222D01*
G01Y-12736D01*
G01X10997D01*
G01X10772Y-12734D01*
G01X10767D01*
G01X10766D01*
G01X10762Y-12733D01*
G01X10755Y-12731D01*
G01X10743D01*
G01X10721Y-12726D01*
G01X10705Y-12724D01*
G01X10698Y-12722D01*
G01X10689Y-12720D01*
G01X10683Y-12717D01*
G01X10678Y-12715D01*
G01X10672Y-12714D01*
G01X10660Y-12711D01*
G01X10654Y-12710D01*
G01X10649Y-12708D01*
G01X10633Y-12701D01*
G01X10618Y-12694D01*
G01X10611Y-12690D01*
G01X10601Y-12685D01*
G01X10587Y-12679D01*
G01X10581Y-12675D01*
G01X10578Y-12673D01*
G01X10569Y-12665D01*
G01X10555Y-12655D01*
G01X10545Y-12647D01*
G01X10540Y-12643D01*
G01X10536Y-12638D01*
G01X10532Y-12633D01*
G01X10527Y-12628D01*
G01X10518Y-12621D01*
G01X10514Y-12615D01*
G01X10504Y-12603D01*
G01X10486Y-12579D01*
G01X10480Y-12570D01*
G01X10460Y-12539D01*
G01X10458Y-12535D01*
G01X10451Y-12518D01*
G01X10447Y-12511D01*
G01X10443Y-12505D01*
G01X10440Y-12498D01*
G01X10436Y-12486D01*
G01X10431Y-12472D01*
G01X10428Y-12463D01*
G01X10424Y-12448D01*
G01X10420Y-12439D01*
G01X10418Y-12434D01*
G01X10417Y-12429D01*
G01X10415Y-12424D01*
G01X10411Y-12406D01*
G01X10407Y-12391D01*
G01X10405Y-12381D01*
G01X10396Y-12325D01*
G01X10395Y-12320D01*
G01Y-12301D01*
G01X10393Y-12292D01*
G01Y-12288D01*
G01X10392Y-12286D01*
G01X10391Y-12276D01*
G01X10390Y-12225D01*
G01X10123D01*
G01X10132Y-12246D01*
G01X10139Y-12266D01*
G01X10144Y-12281D01*
G01X10152Y-12297D01*
G01X10157Y-12311D01*
G01X10165Y-12332D01*
G01X10174Y-12356D01*
G01X10181Y-12376D01*
G01X10187Y-12391D01*
G01X10194Y-12407D01*
G01X10200Y-12422D01*
G01X10207Y-12442D01*
G01X10216Y-12466D01*
G01X10224Y-12487D01*
G01X10229Y-12501D01*
G01X10237Y-12518D01*
G01X10242Y-12532D01*
G01X10249Y-12553D01*
G01X10259Y-12577D01*
G01X10266Y-12597D01*
G01X10272Y-12612D01*
G01X10278Y-12625D01*
G01X10281Y-12634D01*
G01X10285Y-12647D01*
G01X10292Y-12662D01*
G01X10297Y-12676D01*
G01X10304Y-12697D01*
G01X10314Y-12721D01*
G01X10318Y-12732D01*
G01Y-12734D01*
G01X10317D01*
G01X10314Y-12735D01*
G01X10290Y-12736D01*
G01X10174D01*
G01X10172Y-12723D01*
G01X10171Y-12717D01*
G01X10169Y-12711D01*
G01X10168Y-12706D01*
G01X10163Y-12695D01*
G01X10157Y-12681D01*
G01X10148Y-12655D01*
G01X10144Y-12644D01*
G01X10138Y-12629D01*
G01X10135Y-12620D01*
G01X10133Y-12610D01*
G01X10130Y-12603D01*
G01X10129Y-12599D01*
G01X10125Y-12594D01*
G01X10123Y-12590D01*
G01X10122Y-12586D01*
G01X10120Y-12576D01*
G01X10116Y-12566D01*
G01X10111Y-12555D01*
G01X10106Y-12540D01*
G01X10098Y-12515D01*
G01X10093Y-12503D01*
G01X10087Y-12490D01*
G01X10084Y-12480D01*
G01X10080Y-12465D01*
G01X10076Y-12456D01*
G01X10072Y-12448D01*
G01X10068Y-12441D01*
G01X10067Y-12440D01*
G01X10063Y-12439D01*
G01X10053Y-12438D01*
G01X9998Y-12436D01*
G01X9856Y-12434D01*
G01X9648D01*
G01X9644Y-12450D01*
G01X9641Y-12460D01*
G01X9636Y-12472D01*
G01X9632Y-12486D01*
G01X9629Y-12494D01*
G01X9624Y-12505D01*
G01X9618Y-12519D01*
G01X9611Y-12540D01*
G01X9601Y-12564D01*
G01X9594Y-12584D01*
G01X9589Y-12599D01*
G01X9581Y-12615D01*
G01X9576Y-12629D01*
G01X9572Y-12641D01*
G01X9565Y-12655D01*
G01X9562Y-12663D01*
G01X9559Y-12676D01*
G01X9551Y-12692D01*
G01X9546Y-12706D01*
G01X9542Y-12718D01*
G01X9538Y-12727D01*
G01X9536Y-12729D01*
G01X9531Y-12731D01*
G01X9524Y-12733D01*
G01X9504Y-12735D01*
G01X9457Y-12736D01*
G01X9381D01*
G01X9126D01*
G01X8991D01*
G01Y-11853D01*
G01X8659D01*
G01Y-11734D01*
G01X8354D01*
G01X8358Y-11747D01*
G01X8363Y-11759D01*
G01X8370Y-11775D01*
G01X8375Y-11790D01*
G01X8383Y-11810D01*
G01X8392Y-11834D01*
G01X8400Y-11854D01*
G01X8405Y-11869D01*
G01X8412Y-11886D01*
G01X8418Y-11900D01*
G01X8425Y-11921D01*
G01X8434Y-11945D01*
G01X8442Y-11964D01*
G01X8448Y-11980D01*
G01X8455Y-11996D01*
G01X8460Y-12010D01*
G01X8467Y-12031D01*
G01X8477Y-12055D01*
G01X8485Y-12075D01*
G01X8490Y-12090D01*
G01X8497Y-12106D01*
G01X8502Y-12120D01*
G01X8510Y-12141D01*
G01X8520Y-12165D01*
G01X8527Y-12185D01*
G01X8532Y-12200D01*
G01X8538Y-12214D01*
G01X8542Y-12222D01*
G01X8546Y-12235D01*
G01X8552Y-12250D01*
G01X8558Y-12265D01*
G01X8565Y-12285D01*
G01X8575Y-12309D01*
G01X8582Y-12330D01*
G01X8587Y-12344D01*
G01X8595Y-12361D01*
G01X8600Y-12375D01*
G01X8608Y-12396D01*
G01X8617Y-12420D01*
G01X8624Y-12440D01*
G01X8630Y-12455D01*
G01X8637Y-12471D01*
G01X8643Y-12486D01*
G01X8650Y-12506D01*
G01X8659Y-12530D01*
G01X8667Y-12550D01*
G01X8672Y-12565D01*
G01X8680Y-12582D01*
G01X8685Y-12596D01*
G01X8692Y-12616D01*
G01X8702Y-12640D01*
G01X8709Y-12660D01*
G01X8715Y-12675D01*
G01X8722Y-12692D01*
G01X8727Y-12706D01*
G01X8732Y-12718D01*
G01X8736Y-12727D01*
G01X8740Y-12736D01*
G01X8596D01*
G01X8591Y-12723D01*
G01X8584Y-12703D01*
G01X8576Y-12680D01*
G01X8567Y-12656D01*
G01X8559Y-12633D01*
G01X8550Y-12609D01*
G01X8542Y-12586D01*
G01X8533Y-12562D01*
G01X8525Y-12539D01*
G01X8516Y-12516D01*
G01X8508Y-12493D01*
G01X8499Y-12469D01*
G01X8486Y-12434D01*
G01X8070D01*
G01X8066Y-12445D01*
G01X8058Y-12465D01*
G01X8053Y-12480D01*
G01X8045Y-12497D01*
G01X8040Y-12511D01*
G01X8032Y-12531D01*
G01X8023Y-12555D01*
G01X8016Y-12576D01*
G01X8010Y-12590D01*
G01X8003Y-12607D01*
G01X7997Y-12621D01*
G01X7990Y-12642D01*
G01X7981Y-12665D01*
G01X7973Y-12686D01*
G01X7968Y-12701D01*
G01X7955Y-12727D01*
G01X7953Y-12729D01*
G01X7949Y-12731D01*
G01X7942Y-12733D01*
G01X7933Y-12734D01*
G01X7910Y-12735D01*
G01X7877Y-12736D01*
G01X7802D01*
G01X7510D01*
G01Y-13037D01*
G01X15604D01*
G01Y-6775D01*
G37*
G36*
G01X9828Y-7149D02*
G01X9662Y-7150D01*
G01X9655Y-7151D01*
G01X9654D01*
G01X9650Y-7152D01*
G01X9645D01*
G01X9619Y-7153D01*
G01X9611Y-7154D01*
G01X9600Y-7157D01*
G01X9585Y-7160D01*
G01X9576Y-7163D01*
G01X9563Y-7169D01*
G01X9552Y-7172D01*
G01X9548Y-7174D01*
G01X9544Y-7176D01*
G01X9523Y-7191D01*
G01X9517Y-7196D01*
G01X9510Y-7204D01*
G01X9505Y-7210D01*
G01X9499Y-7215D01*
G01X9496Y-7217D01*
G01X9495Y-7221D01*
G01X9492Y-7229D01*
G01X9490Y-7232D01*
G01X9489Y-7235D01*
G01X9484Y-7240D01*
G01X9482Y-7244D01*
G01X9480Y-7249D01*
G01X9478Y-7254D01*
G01X9475Y-7266D01*
G01X9472Y-7278D01*
G01X9470Y-7290D01*
G01X9468Y-7308D01*
G01X9467Y-7318D01*
G01Y-7326D01*
G01Y-7331D01*
G01X9469Y-7337D01*
G01X9471Y-7346D01*
G01X9473Y-7358D01*
G01X9475Y-7364D01*
G01X9476Y-7369D01*
G01X9478Y-7373D01*
G01X9487Y-7390D01*
G01X9492Y-7399D01*
G01X9500Y-7409D01*
G01X9504Y-7414D01*
G01X9507Y-7418D01*
G01X9513Y-7423D01*
G01X9517Y-7426D01*
G01X9522Y-7432D01*
G01X9527Y-7438D01*
G01X9530Y-7440D01*
G01X9533Y-7442D01*
G01X9539Y-7444D01*
G01X9545Y-7448D01*
G01X9551Y-7452D01*
G01X9559Y-7455D01*
G01X9572Y-7458D01*
G01X9582Y-7464D01*
G01X9591Y-7466D01*
G01X9598Y-7468D01*
G01X9620Y-7471D01*
G01X9632Y-7474D01*
G01X9642Y-7475D01*
G01X9659Y-7476D01*
G01X9665Y-7477D01*
G01X9667D01*
G01X9671Y-7478D01*
G01X9832Y-7479D01*
G01X9986Y-7478D01*
G01X9992Y-7477D01*
G01X9994D01*
G01Y-7474D01*
G01X9995Y-7383D01*
G01X9996Y-7312D01*
G01Y-7149D01*
G37*
G36*
G01X13129Y-7157D02*
G01X12998Y-7158D01*
G01X12990Y-7159D01*
G01X12989D01*
G01X12985Y-7160D01*
G01X12980Y-7161D01*
G01X12954D01*
G01X12946Y-7162D01*
G01X12938Y-7164D01*
G01X12928Y-7166D01*
G01X12908Y-7169D01*
G01X12900Y-7172D01*
G01X12883Y-7178D01*
G01X12875Y-7182D01*
G01X12867Y-7186D01*
G01X12862Y-7189D01*
G01X12840Y-7201D01*
G01X12833Y-7206D01*
G01X12826Y-7211D01*
G01X12818Y-7218D01*
G01X12812Y-7223D01*
G01X12807Y-7228D01*
G01X12796Y-7243D01*
G01X12775Y-7269D01*
G01X12767Y-7280D01*
G01X12760Y-7290D01*
G01X12755Y-7298D01*
G01X12751Y-7307D01*
G01X12743Y-7326D01*
G01X12738Y-7338D01*
G01X12732Y-7352D01*
G01X12729Y-7361D01*
G01X12727Y-7371D01*
G01X12724Y-7389D01*
G01X12720Y-7401D01*
G01X12718Y-7411D01*
G01X12717Y-7418D01*
G01X12713Y-7447D01*
G01X12712Y-7458D01*
G01X12711Y-7470D01*
G01Y-7487D01*
G01X12710Y-7495D01*
G01X12708Y-7501D01*
G01X12707Y-7511D01*
G01Y-7535D01*
G01Y-7556D01*
G01X12708Y-7567D01*
G01X12709Y-7571D01*
G01X12710Y-7575D01*
G01Y-7581D01*
G01X12711Y-7595D01*
G01Y-7617D01*
G01X12712Y-7627D01*
G01X12714Y-7633D01*
G01X12715Y-7641D01*
G01X12716Y-7653D01*
G01X12717Y-7660D01*
G01X12718Y-7663D01*
G01X12720Y-7673D01*
G01X12724Y-7690D01*
G01X12732Y-7719D01*
G01X12736Y-7729D01*
G01X12739Y-7738D01*
G01X12744Y-7751D01*
G01X12748Y-7763D01*
G01X12751Y-7771D01*
G01X12757Y-7781D01*
G01X12766Y-7795D01*
G01X12770Y-7802D01*
G01X12779Y-7815D01*
G01X12788Y-7830D01*
G01X12793Y-7836D01*
G01X12797Y-7839D01*
G01X12801Y-7842D01*
G01X12806Y-7848D01*
G01X12811Y-7854D01*
G01X12814Y-7857D01*
G01X12818Y-7860D01*
G01X12836Y-7871D01*
G01X12847Y-7879D01*
G01X12851Y-7882D01*
G01X12856Y-7884D01*
G01X12876Y-7893D01*
G01X12885Y-7897D01*
G01X12894Y-7900D01*
G01X12915Y-7907D01*
G01X12926Y-7909D01*
G01X12959Y-7914D01*
G01X12967Y-7916D01*
G01X12975D01*
G01X12990Y-7917D01*
G01X12996Y-7918D01*
G01X12997D01*
G01X13001Y-7919D01*
G01X13053Y-7920D01*
G01X13131Y-7921D01*
G01X13253Y-7919D01*
G01X13259D01*
G01X13260D01*
G01Y-7918D01*
G01X13261Y-7917D01*
G01X13262Y-7666D01*
G01Y-7157D01*
G37*
G36*
G01X14296Y-8722D02*
G01X14165Y-8724D01*
G01X14156D01*
G01X14155D01*
G01X14152Y-8725D01*
G01X14146Y-8726D01*
G01X14121Y-8727D01*
G01X14113Y-8728D01*
G01X14105Y-8730D01*
G01X14094Y-8732D01*
G01X14075Y-8735D01*
G01X14067Y-8737D01*
G01X14049Y-8744D01*
G01X14042Y-8747D01*
G01X14034Y-8751D01*
G01X14028Y-8754D01*
G01X14007Y-8767D01*
G01X14000Y-8772D01*
G01X13993Y-8776D01*
G01X13985Y-8784D01*
G01X13979Y-8788D01*
G01X13973Y-8793D01*
G01X13962Y-8809D01*
G01X13941Y-8835D01*
G01X13933Y-8845D01*
G01X13926Y-8856D01*
G01X13922Y-8864D01*
G01X13918Y-8872D01*
G01X13910Y-8892D01*
G01X13904Y-8903D01*
G01X13899Y-8917D01*
G01X13896Y-8927D01*
G01X13894Y-8937D01*
G01X13890Y-8954D01*
G01X13887Y-8966D01*
G01X13885Y-8976D01*
G01X13884Y-8983D01*
G01X13880Y-9013D01*
G01X13878Y-9035D01*
G01Y-9053D01*
G01X13877Y-9060D01*
G01X13875Y-9066D01*
G01X13874Y-9076D01*
G01X13873Y-9100D01*
G01X13874Y-9122D01*
G01X13875Y-9133D01*
G01X13876Y-9136D01*
G01X13877Y-9140D01*
G01Y-9147D01*
G01X13878Y-9160D01*
G01Y-9183D01*
G01X13879Y-9192D01*
G01X13881Y-9199D01*
G01X13882Y-9206D01*
G01X13883Y-9218D01*
G01X13884Y-9225D01*
G01X13885Y-9229D01*
G01X13887Y-9238D01*
G01X13890Y-9255D01*
G01X13899Y-9285D01*
G01X13902Y-9295D01*
G01X13905Y-9303D01*
G01X13911Y-9316D01*
G01X13915Y-9329D01*
G01X13918Y-9337D01*
G01X13924Y-9347D01*
G01X13932Y-9361D01*
G01X13936Y-9367D01*
G01X13946Y-9380D01*
G01X13955Y-9395D01*
G01X13960Y-9402D01*
G01X13963Y-9404D01*
G01X13967Y-9408D01*
G01X13973Y-9413D01*
G01X13978Y-9419D01*
G01X13981Y-9422D01*
G01X13985Y-9425D01*
G01X14003Y-9437D01*
G01X14014Y-9445D01*
G01X14023Y-9450D01*
G01X14043Y-9458D01*
G01X14052Y-9463D01*
G01X14060Y-9466D01*
G01X14071Y-9469D01*
G01X14082Y-9472D01*
G01X14093Y-9474D01*
G01X14126Y-9480D01*
G01X14134Y-9481D01*
G01X14142Y-9482D01*
G01X14156D01*
G01X14163Y-9483D01*
G01X14164Y-9484D01*
G01X14168D01*
G01X14219Y-9486D01*
G01X14298D01*
G01X14419Y-9485D01*
G01X14426Y-9484D01*
G01X14427D01*
G01Y-9482D01*
G01X14429Y-9231D01*
G01Y-8722D01*
G37*
G36*
G01X15155Y-8724D02*
G01X15153Y-8726D01*
G01X15151Y-8729D01*
G01X15150Y-8734D01*
G01X15147Y-8745D01*
G01X15146Y-8751D01*
G01X15144Y-8756D01*
G01X15140Y-8765D01*
G01X15137Y-8775D01*
G01X15133Y-8790D01*
G01X15127Y-8803D01*
G01X15124Y-8813D01*
G01X15122Y-8823D01*
G01X15119Y-8830D01*
G01X15118Y-8833D01*
G01X15115Y-8838D01*
G01X15112Y-8842D01*
G01X15111Y-8847D01*
G01X15109Y-8857D01*
G01X15106Y-8867D01*
G01X15100Y-8878D01*
G01X15095Y-8892D01*
G01X15088Y-8913D01*
G01X15079Y-8936D01*
G01X15074Y-8950D01*
G01X15068Y-8964D01*
G01X15065Y-8973D01*
G01X15061Y-8986D01*
G01X15055Y-8998D01*
G01X15052Y-9007D01*
G01X15048Y-9020D01*
G01X15042Y-9032D01*
G01X15039Y-9040D01*
G01X15035Y-9053D01*
G01X15030Y-9066D01*
G01X15026Y-9074D01*
G01X15023Y-9087D01*
G01X15017Y-9100D01*
G01X15013Y-9108D01*
G01X15010Y-9121D01*
G01X15004Y-9134D01*
G01X15001Y-9142D01*
G01X14997Y-9155D01*
G01X14992Y-9168D01*
G01X14988Y-9178D01*
G01X14985Y-9193D01*
G01X15148D01*
G01X15307Y-9192D01*
G01X15313Y-9191D01*
G01X15314D01*
G01Y-9189D01*
G01Y-9186D01*
G01X15313Y-9182D01*
G01X15312Y-9177D01*
G01X15304Y-9156D01*
G01X15296Y-9133D01*
G01X15290Y-9118D01*
G01X15284Y-9104D01*
G01X15281Y-9096D01*
G01X15277Y-9083D01*
G01X15271Y-9070D01*
G01X15268Y-9062D01*
G01X15264Y-9049D01*
G01X15259Y-9036D01*
G01X15255Y-9028D01*
G01X15252Y-9015D01*
G01X15246Y-9002D01*
G01X15243Y-8994D01*
G01X15239Y-8981D01*
G01X15233Y-8968D01*
G01X15230Y-8960D01*
G01X15226Y-8947D01*
G01X15221Y-8935D01*
G01X15217Y-8926D01*
G01X15214Y-8913D01*
G01X15207Y-8900D01*
G01X15204Y-8891D01*
G01X15201Y-8876D01*
G01X15195Y-8862D01*
G01X15192Y-8853D01*
G01X15188Y-8838D01*
G01X15182Y-8824D01*
G01X15181Y-8819D01*
G01X15179Y-8813D01*
G01X15176Y-8796D01*
G01X15167Y-8767D01*
G01X15164Y-8756D01*
G01X15162Y-8745D01*
G01X15160Y-8731D01*
G01X15159Y-8728D01*
G01X15158Y-8725D01*
G01X15157Y-8724D01*
G37*
G36*
G01X13129Y-10288D02*
G01X12998Y-10289D01*
G01X12990Y-10290D01*
G01X12989D01*
G01X12985Y-10291D01*
G01X12980Y-10292D01*
G01X12954Y-10293D01*
G01X12946D01*
G01X12938Y-10295D01*
G01X12928Y-10297D01*
G01X12908Y-10301D01*
G01X12900Y-10303D01*
G01X12883Y-10309D01*
G01X12875Y-10312D01*
G01X12867Y-10316D01*
G01X12862Y-10320D01*
G01X12840Y-10332D01*
G01X12833Y-10337D01*
G01X12826Y-10342D01*
G01X12818Y-10349D01*
G01X12812Y-10354D01*
G01X12807Y-10359D01*
G01X12796Y-10374D01*
G01X12775Y-10400D01*
G01X12767Y-10411D01*
G01X12760Y-10422D01*
G01X12755Y-10429D01*
G01X12751Y-10437D01*
G01X12743Y-10457D01*
G01X12738Y-10469D01*
G01X12732Y-10483D01*
G01X12729Y-10493D01*
G01X12727Y-10502D01*
G01X12724Y-10520D01*
G01X12720Y-10531D01*
G01X12718Y-10542D01*
G01X12717Y-10549D01*
G01X12713Y-10579D01*
G01X12712Y-10590D01*
G01X12711Y-10601D01*
G01Y-10618D01*
G01X12710Y-10626D01*
G01X12708Y-10631D01*
G01X12707Y-10642D01*
G01Y-10665D01*
G01Y-10687D01*
G01X12708Y-10698D01*
G01X12709Y-10702D01*
G01X12710Y-10706D01*
G01Y-10712D01*
G01X12711Y-10725D01*
G01Y-10748D01*
G01X12712Y-10758D01*
G01X12714Y-10764D01*
G01X12715Y-10772D01*
G01X12716Y-10784D01*
G01X12717Y-10790D01*
G01X12718Y-10794D01*
G01X12720Y-10804D01*
G01X12724Y-10821D01*
G01X12732Y-10850D01*
G01X12736Y-10860D01*
G01X12739Y-10869D01*
G01X12744Y-10882D01*
G01X12748Y-10895D01*
G01X12751Y-10902D01*
G01X12757Y-10912D01*
G01X12766Y-10926D01*
G01X12770Y-10933D01*
G01X12779Y-10946D01*
G01X12788Y-10961D01*
G01X12793Y-10967D01*
G01X12797Y-10970D01*
G01X12801Y-10973D01*
G01X12806Y-10978D01*
G01X12811Y-10984D01*
G01X12814Y-10988D01*
G01X12818Y-10991D01*
G01X12836Y-11002D01*
G01X12847Y-11010D01*
G01X12851Y-11013D01*
G01X12856Y-11015D01*
G01X12876Y-11024D01*
G01X12885Y-11028D01*
G01X12894Y-11031D01*
G01X12915Y-11037D01*
G01X12926Y-11040D01*
G01X12959Y-11045D01*
G01X12967Y-11046D01*
G01X12990Y-11048D01*
G01X12996Y-11049D01*
G01X12997Y-11050D01*
G01X13001D01*
G01X13053Y-11051D01*
G01X13131Y-11052D01*
G01X13253Y-11050D01*
G01X13259D01*
G01X13260D01*
G01X13261Y-11047D01*
G01X13262Y-10797D01*
G01Y-10288D01*
G37*
G36*
G01X13286Y-11853D02*
G01X13155Y-11855D01*
G01X13147D01*
G01X13146D01*
G01X13142Y-11856D01*
G01X13137Y-11857D01*
G01X13111Y-11858D01*
G01X13103Y-11859D01*
G01X13095Y-11861D01*
G01X13084Y-11863D01*
G01X13068Y-11865D01*
G01X13061Y-11866D01*
G01X13053Y-11869D01*
G01X13042Y-11874D01*
G01X13029Y-11878D01*
G01X13022Y-11881D01*
G01X12994Y-11899D01*
G01X12980Y-11909D01*
G01X12975Y-11913D01*
G01X12971Y-11916D01*
G01X12967Y-11922D01*
G01X12963Y-11926D01*
G01X12958Y-11931D01*
G01X12951Y-11936D01*
G01X12948Y-11940D01*
G01X12945Y-11944D01*
G01X12938Y-11956D01*
G01X12933Y-11962D01*
G01X12929Y-11966D01*
G01X12927Y-11969D01*
G01X12921Y-11979D01*
G01X12906Y-12003D01*
G01X12896Y-12027D01*
G01X12892Y-12036D01*
G01X12888Y-12045D01*
G01X12885Y-12060D01*
G01X12876Y-12089D01*
G01X12874Y-12099D01*
G01X12873Y-12105D01*
G01X12872Y-12116D01*
G01X12871Y-12123D01*
G01X12869Y-12131D01*
G01X12868Y-12139D01*
G01X12867Y-12153D01*
G01X12866Y-12159D01*
G01X12865Y-12164D01*
G01Y-12174D01*
G01X12864Y-12233D01*
G01X12865Y-12294D01*
G01X12866Y-12303D01*
G01Y-12305D01*
G01X12867Y-12309D01*
G01X12868Y-12318D01*
G01X12869Y-12335D01*
G01X12870Y-12341D01*
G01X12871Y-12347D01*
G01X12873Y-12359D01*
G01X12875Y-12374D01*
G01X12877Y-12381D01*
G01X12880Y-12390D01*
G01X12882Y-12397D01*
G01X12884Y-12402D01*
G01X12886Y-12407D01*
G01X12888Y-12420D01*
G01X12889Y-12425D01*
G01X12892Y-12430D01*
G01X12897Y-12441D01*
G01X12902Y-12456D01*
G01X12905Y-12464D01*
G01X12909Y-12473D01*
G01X12914Y-12482D01*
G01X12923Y-12496D01*
G01X12927Y-12502D01*
G01X12942Y-12525D01*
G01X12947Y-12530D01*
G01X12953Y-12534D01*
G01X12956Y-12537D01*
G01X12958Y-12539D01*
G01X12961Y-12546D01*
G01X12963Y-12549D01*
G01X12966Y-12551D01*
G01X12974Y-12555D01*
G01X12980Y-12560D01*
G01X12985Y-12564D01*
G01X12988Y-12566D01*
G01X12997Y-12572D01*
G01X13005Y-12577D01*
G01X13013Y-12581D01*
G01X13026Y-12586D01*
G01X13034Y-12590D01*
G01X13039Y-12593D01*
G01X13043Y-12595D01*
G01X13047Y-12597D01*
G01X13062Y-12600D01*
G01X13077Y-12604D01*
G01X13087Y-12607D01*
G01X13112Y-12611D01*
G01X13126Y-12612D01*
G01X13142Y-12613D01*
G01X13151Y-12614D01*
G01X13154Y-12615D01*
G01X13158D01*
G01X13210Y-12617D01*
G01X13288D01*
G01X13410Y-12616D01*
G01X13416Y-12615D01*
G01X13417D01*
G01X13418Y-12613D01*
G01X13419Y-12362D01*
G01Y-11853D01*
G37*
G36*
G01X10952Y-11853D02*
G01X10821Y-11855D01*
G01X10813D01*
G01X10812D01*
G01X10809Y-11856D01*
G01X10804Y-11857D01*
G01X10778Y-11858D01*
G01X10770Y-11859D01*
G01X10762Y-11861D01*
G01X10750Y-11863D01*
G01X10735Y-11865D01*
G01X10727Y-11866D01*
G01X10719Y-11869D01*
G01X10709Y-11874D01*
G01X10696Y-11878D01*
G01X10688Y-11881D01*
G01X10668Y-11894D01*
G01X10660Y-11899D01*
G01X10647Y-11909D01*
G01X10642Y-11913D01*
G01X10638Y-11916D01*
G01X10633Y-11922D01*
G01X10630Y-11926D01*
G01X10625Y-11931D01*
G01X10618Y-11936D01*
G01X10615Y-11940D01*
G01X10612Y-11944D01*
G01X10605Y-11956D01*
G01X10599Y-11962D01*
G01X10596Y-11966D01*
G01X10593Y-11969D01*
G01X10588Y-11979D01*
G01X10573Y-12003D01*
G01X10562Y-12027D01*
G01X10558Y-12036D01*
G01X10555Y-12045D01*
G01X10552Y-12060D01*
G01X10543Y-12089D01*
G01X10540Y-12099D01*
G01X10539Y-12105D01*
G01X10538Y-12116D01*
G01X10537Y-12123D01*
G01X10536Y-12131D01*
G01X10535Y-12139D01*
G01X10534Y-12153D01*
G01X10533Y-12159D01*
G01X10532Y-12164D01*
G01X10531Y-12174D01*
G01X10530Y-12233D01*
G01X10531Y-12294D01*
G01X10532Y-12303D01*
G01Y-12305D01*
G01X10533Y-12309D01*
G01X10534Y-12318D01*
G01X10535Y-12335D01*
G01X10536Y-12341D01*
G01X10538Y-12347D01*
G01X10540Y-12359D01*
G01X10542Y-12374D01*
G01X10544Y-12381D01*
G01X10546Y-12390D01*
G01X10549Y-12397D01*
G01X10551Y-12402D01*
G01X10553Y-12407D01*
G01X10555Y-12420D01*
G01X10556Y-12425D01*
G01X10558Y-12430D01*
G01X10563Y-12441D01*
G01X10568Y-12456D01*
G01X10571Y-12464D01*
G01X10576Y-12473D01*
G01X10581Y-12482D01*
G01X10589Y-12496D01*
G01X10593Y-12502D01*
G01X10609Y-12525D01*
G01X10614Y-12530D01*
G01X10620Y-12534D01*
G01X10623Y-12537D01*
G01X10624Y-12539D01*
G01X10627Y-12546D01*
G01X10629Y-12549D01*
G01X10632Y-12551D01*
G01X10641Y-12555D01*
G01X10647Y-12560D01*
G01X10652Y-12564D01*
G01X10655Y-12566D01*
G01X10664Y-12572D01*
G01X10672Y-12577D01*
G01X10680Y-12581D01*
G01X10692Y-12586D01*
G01X10701Y-12590D01*
G01X10706Y-12593D01*
G01X10710Y-12595D01*
G01X10714Y-12597D01*
G01X10728Y-12600D01*
G01X10744Y-12604D01*
G01X10753Y-12607D01*
G01X10779Y-12611D01*
G01X10792Y-12612D01*
G01X10809Y-12613D01*
G01X10817Y-12614D01*
G01X10821Y-12615D01*
G01X10824D01*
G01X10876Y-12617D01*
G01X10955D01*
G01X11076Y-12616D01*
G01X11083Y-12615D01*
G01X11084D01*
G01Y-12613D01*
G01X11086Y-12362D01*
G01Y-11853D01*
G37*
G36*
G01X14296Y-11853D02*
G01X14165Y-11855D01*
G01X14156D01*
G01X14155D01*
G01X14152Y-11856D01*
G01X14146Y-11857D01*
G01X14121Y-11858D01*
G01X14113Y-11859D01*
G01X14105Y-11861D01*
G01X14094Y-11863D01*
G01X14075Y-11866D01*
G01X14067Y-11868D01*
G01X14049Y-11874D01*
G01X14042Y-11878D01*
G01X14034Y-11882D01*
G01X14028Y-11885D01*
G01X14007Y-11898D01*
G01X14000Y-11902D01*
G01X13993Y-11908D01*
G01X13985Y-11915D01*
G01X13979Y-11919D01*
G01X13973Y-11924D01*
G01X13962Y-11940D01*
G01X13941Y-11966D01*
G01X13933Y-11976D01*
G01X13926Y-11987D01*
G01X13922Y-11995D01*
G01X13918Y-12003D01*
G01X13910Y-12023D01*
G01X13904Y-12034D01*
G01X13899Y-12048D01*
G01X13896Y-12058D01*
G01X13894Y-12068D01*
G01X13890Y-12085D01*
G01X13887Y-12096D01*
G01X13885Y-12107D01*
G01X13884Y-12114D01*
G01X13880Y-12144D01*
G01X13878Y-12166D01*
G01Y-12183D01*
G01X13877Y-12191D01*
G01X13875Y-12197D01*
G01X13874Y-12207D01*
G01X13873Y-12231D01*
G01X13874Y-12252D01*
G01X13875Y-12264D01*
G01X13876Y-12267D01*
G01X13877Y-12271D01*
G01Y-12277D01*
G01X13878Y-12291D01*
G01Y-12314D01*
G01X13879Y-12324D01*
G01X13881Y-12330D01*
G01X13882Y-12337D01*
G01X13883Y-12349D01*
G01X13884Y-12356D01*
G01X13885Y-12360D01*
G01X13887Y-12369D01*
G01X13890Y-12386D01*
G01X13899Y-12416D01*
G01X13902Y-12426D01*
G01X13905Y-12434D01*
G01X13911Y-12447D01*
G01X13915Y-12460D01*
G01X13918Y-12467D01*
G01X13924Y-12477D01*
G01X13932Y-12492D01*
G01X13936Y-12498D01*
G01X13946Y-12512D01*
G01X13955Y-12526D01*
G01X13960Y-12532D01*
G01X13963Y-12535D01*
G01X13967Y-12538D01*
G01X13973Y-12544D01*
G01X13978Y-12550D01*
G01X13981Y-12553D01*
G01X13985Y-12556D01*
G01X14003Y-12567D01*
G01X14014Y-12576D01*
G01X14023Y-12581D01*
G01X14043Y-12589D01*
G01X14052Y-12594D01*
G01X14060Y-12597D01*
G01X14071Y-12600D01*
G01X14082Y-12603D01*
G01X14093Y-12605D01*
G01X14126Y-12611D01*
G01X14134Y-12612D01*
G01X14142Y-12613D01*
G01X14156D01*
G01X14163Y-12614D01*
G01X14164Y-12615D01*
G01X14168D01*
G01X14219Y-12617D01*
G01X14298D01*
G01X14419Y-12616D01*
G01X14426Y-12615D01*
G01X14427D01*
G01Y-12613D01*
G01X14429Y-12362D01*
G01Y-11853D01*
G37*
G36*
G01X9866Y-11859D02*
G01X9864Y-11860D01*
G01X9862Y-11861D01*
G01X9861Y-11864D01*
G01X9859Y-11869D01*
G01X9857Y-11881D01*
G01X9855Y-11886D01*
G01X9854Y-11891D01*
G01X9850Y-11900D01*
G01X9847Y-11910D01*
G01X9843Y-11925D01*
G01X9835Y-11941D01*
G01X9830Y-11955D01*
G01X9822Y-11981D01*
G01X9815Y-12001D01*
G01X9806Y-12024D01*
G01X9801Y-12039D01*
G01X9794Y-12053D01*
G01X9791Y-12061D01*
G01X9787Y-12074D01*
G01X9782Y-12087D01*
G01X9778Y-12095D01*
G01X9774Y-12108D01*
G01X9769Y-12120D01*
G01X9766Y-12129D01*
G01X9762Y-12142D01*
G01X9756Y-12154D01*
G01X9753Y-12163D01*
G01X9749Y-12176D01*
G01X9743Y-12188D01*
G01X9740Y-12197D01*
G01X9736Y-12210D01*
G01X9731Y-12222D01*
G01X9728Y-12231D01*
G01X9724Y-12244D01*
G01X9718Y-12257D01*
G01X9715Y-12265D01*
G01X9711Y-12277D01*
G01X9705Y-12290D01*
G01X9702Y-12299D01*
G01X9698Y-12314D01*
G01X9697Y-12318D01*
G01X9699Y-12320D01*
G01X9706Y-12321D01*
G01X9736Y-12323D01*
G01X9858Y-12324D01*
G01X10016Y-12323D01*
G01X10022D01*
G01X10023Y-12322D01*
G01X10024Y-12321D01*
G01Y-12318D01*
G01X10023Y-12309D01*
G01X10022Y-12304D01*
G01X10020Y-12298D01*
G01X10018Y-12294D01*
G01X10015Y-12289D01*
G01X10013Y-12285D01*
G01X10012Y-12280D01*
G01X10010Y-12270D01*
G01X10007Y-12264D01*
G01X10005Y-12260D01*
G01X10000Y-12251D01*
G01X9999Y-12246D01*
G01X9997Y-12236D01*
G01X9994Y-12230D01*
G01X9992Y-12226D01*
G01X9989Y-12221D01*
G01X9988Y-12217D01*
G01X9986Y-12212D01*
G01X9984Y-12203D01*
G01X9982Y-12196D01*
G01X9980Y-12192D01*
G01X9977Y-12187D01*
G01X9975Y-12183D01*
G01X9974Y-12179D01*
G01X9971Y-12169D01*
G01X9969Y-12162D01*
G01X9967Y-12158D01*
G01X9964Y-12153D01*
G01X9962Y-12149D01*
G01X9961Y-12145D01*
G01X9958Y-12135D01*
G01X9956Y-12128D01*
G01X9954Y-12124D01*
G01X9951Y-12119D01*
G01X9950Y-12115D01*
G01X9948Y-12111D01*
G01X9946Y-12101D01*
G01X9944Y-12094D01*
G01X9942Y-12090D01*
G01X9939Y-12085D01*
G01X9937Y-12081D01*
G01X9935Y-12077D01*
G01X9933Y-12067D01*
G01X9931Y-12060D01*
G01X9929Y-12056D01*
G01X9926Y-12051D01*
G01X9924Y-12047D01*
G01X9923Y-12043D01*
G01X9920Y-12032D01*
G01X9917Y-12023D01*
G01X9912Y-12010D01*
G01X9908Y-11994D01*
G01X9904Y-11985D01*
G01X9899Y-11972D01*
G01X9896Y-11961D01*
G01X9894Y-11952D01*
G01X9886Y-11925D01*
G01X9883Y-11916D01*
G01X9880Y-11907D01*
G01X9877Y-11889D01*
G01X9871Y-11870D01*
G01X9869Y-11862D01*
G01X9868Y-11860D01*
G37*
G36*
G01X8284Y-11864D02*
G01X8281Y-11865D01*
G01X8279Y-11868D01*
G01X8277Y-11872D01*
G01X8274Y-11882D01*
G01X8271Y-11891D01*
G01X8265Y-11904D01*
G01X8262Y-11920D01*
G01X8259Y-11929D01*
G01X8252Y-11943D01*
G01X8249Y-11958D01*
G01X8246Y-11967D01*
G01X8240Y-11981D01*
G01X8236Y-11993D01*
G01X8233Y-12002D01*
G01X8227Y-12015D01*
G01X8224Y-12027D01*
G01X8220Y-12036D01*
G01X8214Y-12048D01*
G01X8211Y-12061D01*
G01X8207Y-12070D01*
G01X8202Y-12082D01*
G01X8198Y-12095D01*
G01X8195Y-12104D01*
G01X8189Y-12116D01*
G01X8185Y-12129D01*
G01X8182Y-12138D01*
G01X8176Y-12150D01*
G01X8173Y-12163D01*
G01X8169Y-12172D01*
G01X8164Y-12184D01*
G01X8159Y-12197D01*
G01X8156Y-12205D01*
G01X8151Y-12218D01*
G01X8147Y-12231D01*
G01X8144Y-12239D01*
G01X8138Y-12252D01*
G01X8134Y-12265D01*
G01X8131Y-12273D01*
G01X8125Y-12286D01*
G01X8121Y-12299D01*
G01X8118Y-12307D01*
G01X8115Y-12315D01*
G01Y-12318D01*
G01X8116Y-12321D01*
G01X8118Y-12322D01*
G01X8122Y-12323D01*
G01X8282Y-12324D01*
G01X8434Y-12323D01*
G01X8440D01*
G01Y-12322D01*
G01X8441D01*
G01X8442Y-12321D01*
G01Y-12318D01*
G01X8441Y-12309D01*
G01X8438Y-12299D01*
G01X8434Y-12290D01*
G01X8431Y-12282D01*
G01X8427Y-12269D01*
G01X8424Y-12261D01*
G01X8418Y-12248D01*
G01X8415Y-12235D01*
G01X8411Y-12227D01*
G01X8405Y-12214D01*
G01X8402Y-12201D01*
G01X8398Y-12193D01*
G01X8393Y-12180D01*
G01X8389Y-12167D01*
G01X8386Y-12159D01*
G01X8380Y-12146D01*
G01X8376Y-12133D01*
G01X8373Y-12125D01*
G01X8367Y-12112D01*
G01X8363Y-12100D01*
G01X8360Y-12091D01*
G01X8355Y-12078D01*
G01X8351Y-12066D01*
G01X8347Y-12057D01*
G01X8343Y-12048D01*
G01X8340Y-12039D01*
G01X8336Y-12023D01*
G01X8330Y-12008D01*
G01X8324Y-11993D01*
G01X8316Y-11966D01*
G01X8299Y-11907D01*
G01X8294Y-11884D01*
G01X8291Y-11870D01*
G01X8290Y-11868D01*
G01X8289Y-11866D01*
G01X8287Y-11864D01*
G37*
G04 Text End*

M02*
